Ojuju.glyphspackage
{
glyphname = exclam;
kernLeft = "0";
kernRight = "0";
layers = (
{
layerId = "60D037D9-62E9-4843-B070-F1594CB0B0D1";
shapes = (
{
closed = 1;
nodes = (
(128,162,l),
(128,326,o),
(128,342,o),
(139,716,c),
(96,716,l),
(107,342,o),
(107,326,o),
(107,162,c)
);
},
{
closed = 1;
nodes = (
(145,-10,o),
(161,8,o),
(161,41,cs),
(161,74,o),
(146,93,o),
(118,93,cs),
(90,93,o),
(75,74,o),
(75,41,cs),
(75,8,o),
(91,-10,o),
(118,-10,cs)
);
}
);
width = 236;
},
{
layerId = m01;
shapes = (
{
closed = 1;
nodes = (
(184,228,l),
(194,393,o),
(207,505,o),
(238,716,c),
(60,716,l),
(91,505,o),
(104,393,o),
(114,228,c)
);
},
{
closed = 1;
nodes = (
(221,-10,o),
(254,15,o),
(254,70,cs),
(254,125,o),
(221,150,o),
(149,150,cs),
(75,150,o),
(40,125,o),
(40,70,cs),
(40,15,o),
(75,-10,o),
(149,-10,cs)
);
}
);
width = 294;
}
);
metricLeft = period;
metricRight = period;
unicode = 33;
userData = {
KernOnName = exclam;
};
}
{
glyphname = numbersign;
kernLeft = "0";
kernRight = "0";
layers = (
{
layerId = "60D037D9-62E9-4843-B070-F1594CB0B0D1";
shapes = (
{
closed = 1;
nodes = (
(178,0,l),
(214,201,l),
(369,201,l),
(333,0,l),
(356,0,l),
(392,201,l),
(532,201,l),
(541,238,l),
(398,238,l),
(438,461,l),
(574,461,l),
(584,498,l),
(445,498,l),
(485,724,l),
(462,724,l),
(422,498,l),
(267,498,l),
(307,724,l),
(284,724,l),
(243,498,l),
(118,498,l),
(108,461,l),
(237,461,l),
(197,238,l),
(75,238,l),
(66,201,l),
(190,201,l),
(154,0,l)
);
},
{
closed = 1;
nodes = (
(260,461,l),
(415,461,l),
(375,238,l),
(220,238,l)
);
}
);
width = 650;
},
{
layerId = m01;
shapes = (
{
closed = 1;
nodes = (
(192,0,l),
(214,116,l),
(324,116,l),
(295,0,l),
(367,0,l),
(387,116,l),
(575,116,l),
(575,311,l),
(424,311,l),
(447,414,l),
(595,414,l),
(595,608,l),
(494,608,l),
(525,724,l),
(453,724,l),
(432,608,l),
(321,608,l),
(350,724,l),
(278,724,l),
(257,608,l),
(70,608,l),
(70,414,l),
(217,414,l),
(194,311,l),
(50,311,l),
(50,116,l),
(148,116,l),
(120,0,l)
);
},
{
closed = 1;
nodes = (
(276,414,l),
(392,414,l),
(370,311,l),
(253,311,l)
);
}
);
width = 645;
}
);
unicode = 35;
}
{
glyphname = percent;
kernLeft = KO_percent;
layers = (
{
layerId = "60D037D9-62E9-4843-B070-F1594CB0B0D1";
shapes = (
{
closed = 1;
nodes = (
(238,477,o),
(280,522,o),
(280,596,cs),
(280,669,o),
(238,714,o),
(169,714,cs),
(101,714,o),
(58,669,o),
(58,596,cs),
(58,522,o),
(101,477,o),
(169,477,cs)
);
},
{
closed = 1;
nodes = (
(110,513,o),
(75,546,o),
(75,596,cs),
(75,645,o),
(110,678,o),
(169,678,cs),
(228,678,o),
(263,645,o),
(263,596,cs),
(263,546,o),
(228,513,o),
(169,513,cs)
);
},
{
closed = 1;
nodes = (
(90,0,l),
(216,224,o),
(360,476,o),
(497,700,c),
(461,700,l),
(337,476,o),
(190,224,o),
(54,0,c)
);
},
{
closed = 1;
nodes = (
(451,-16,o),
(493,29,o),
(493,103,cs),
(493,176,o),
(451,221,o),
(382,221,cs),
(314,221,o),
(271,176,o),
(271,103,cs),
(271,29,o),
(314,-16,o),
(382,-16,cs)
);
},
{
closed = 1;
nodes = (
(323,20,o),
(288,53,o),
(288,103,cs),
(288,152,o),
(323,185,o),
(382,185,cs),
(441,185,o),
(476,152,o),
(476,103,cs),
(476,53,o),
(441,20,o),
(382,20,cs)
);
}
);
width = 551;
},
{
layerId = m01;
shapes = (
{
closed = 1;
nodes = (
(300,350,o),
(353,401,o),
(353,528,cs),
(353,658,o),
(300,710,o),
(191,710,cs),
(83,710,o),
(30,658,o),
(30,528,cs),
(30,401,o),
(81,350,o),
(191,350,cs)
);
},
{
closed = 1;
nodes = (
(119,473,o),
(89,490,o),
(89,535,cs),
(89,572,o),
(119,587,o),
(191,587,cs),
(265,587,o),
(294,572,o),
(294,535,cs),
(294,490,o),
(265,473,o),
(191,473,c)
);
},
{
closed = 1;
nodes = (
(187,0,l),
(340,216,o),
(544,484,o),
(727,700,c),
(620,700,l),
(467,484,o),
(259,216,o),
(80,0,c)
);
},
{
closed = 1;
nodes = (
(724,-10,o),
(777,41,o),
(777,168,cs),
(777,298,o),
(724,350,o),
(615,350,cs),
(507,350,o),
(454,298,o),
(454,168,cs),
(454,41,o),
(505,-10,o),
(615,-10,cs)
);
},
{
closed = 1;
nodes = (
(543,113,o),
(513,130,o),
(513,175,cs),
(513,212,o),
(543,227,o),
(615,227,cs),
(689,227,o),
(719,212,o),
(719,175,cs),
(719,130,o),
(689,113,o),
(615,113,c)
);
}
);
width = 807;
}
);
metricLeft = o;
metricRight = o;
unicode = 37;
}
{
glyphname = ampersand;
kernRight = KO_ampersand;
layers = (
{
layerId = "60D037D9-62E9-4843-B070-F1594CB0B0D1";
shapes = (
{
closed = 1;
nodes = (
(574,26,l),
(562,24,o),
(547,23,o),
(534,23,cs),
(497,23,o),
(463,42,o),
(454,86,cs),
(448,115,o),
(446,134,o),
(446,282,cs),
(446,323,o),
(446,332,o),
(456,340,cs),
(468,350,o),
(479,350,o),
(574,350,c),
(574,384,l),
(437,381,o),
(363,381,o),
(276,381,cs),
(170,381,o),
(110,457,o),
(110,536,cs),
(110,645,o),
(203,681,o),
(297,681,cs),
(339,681,o),
(382,673,o),
(444,650,c),
(444,693,l),
(377,711,o),
(329,716,o),
(293,716,cs),
(135,716,o),
(88,617,o),
(88,539,cs),
(88,482,o),
(106,436,o),
(157,397,cs),
(189,373,o),
(189,373,o),
(189,367,cs),
(189,361,o),
(189,359,o),
(156,341,cs),
(134,329,o),
(56,286,o),
(56,175,cs),
(56,102,o),
(97,-16,o),
(269,-16,cs),
(338,-16,o),
(414,14,o),
(435,61,c),
(448,14,o),
(493,-16,o),
(543,-16,cs),
(554,-16,o),
(565,-15,o),
(574,-14,c)
);
},
{
closed = 1;
nodes = (
(178,23,o),
(80,64,o),
(80,184,cs),
(80,295,o),
(190,351,o),
(287,351,cs),
(353,351,o),
(396,350,o),
(409,338,cs),
(425,324,o),
(425,292,o),
(425,227,cs),
(425,99,o),
(425,84,o),
(395,57,cs),
(372,36,o),
(332,23,o),
(264,23,cs)
);
}
);
width = 657;
},
{
background = {
shapes = (
{
closed = 1;
nodes = (
(364,-10,o),
(469,-7,o),
(525,37,c),
(553,4,o),
(594,-10,o),
(657,-10,cs),
(675,-10,o),
(696,-9,o),
(718,-5,c),
(718,189,l),
(686,175,o),
(653,168,o),
(625,168,cs),
(554,168,o),
(548,251,o),
(548,324,c),
(652,324,l),
(652,388,l),
(361,382,o),
(326,382,o),
(296,382,cs),
(220,382,o),
(209,400,o),
(209,418,cs),
(209,439,o),
(226,457,o),
(296,457,cs),
(351,457,o),
(428,453,o),
(526,427,c),
(526,687,l),
(433,704,o),
(364,710,o),
(324,710,cs),
(171,710,o),
(73,669,o),
(73,534,cs),
(73,466,o),
(111,428,o),
(139,406,cs),
(170,381,o),
(182,370,o),
(182,355,cs),
(182,340,o),
(170,330,o),
(139,305,cs),
(112,283,o),
(60,240,o),
(60,164,cs),
(60,35,o),
(171,-10,o),
(324,-10,cs)
);
},
{
closed = 1;
nodes = (
(209,301,o),
(213,328,o),
(296,328,cs),
(326,328,o),
(361,328,o),
(488,324,c),
(488,303,o),
(488,275,o),
(464,258,cs),
(442,242,o),
(403,242,o),
(363,242,cs),
(338,242,o),
(313,243,o),
(296,243,cs),
(223,243,o),
(209,270,o),
(209,285,cs)
);
}
);
};
layerId = m01;
shapes = (
{
closed = 1;
nodes = (
(674,245,l),
(669,245,o),
(664,245,o),
(659,245,cs),
(620,245,o),
(591,248,o),
(574,257,cs),
(562,263,o),
(556,272,o),
(556,285,cs),
(556,300,o),
(564,309,o),
(578,315,cs),
(598,323,o),
(631,324,o),
(674,324,c),
(674,385,l),
(383,382,o),
(326,382,o),
(296,382,cs),
(220,382,o),
(209,400,o),
(209,418,cs),
(209,439,o),
(226,457,o),
(296,457,cs),
(351,457,o),
(428,453,o),
(526,427,c),
(526,687,l),
(433,704,o),
(364,710,o),
(324,710,cs),
(171,710,o),
(73,669,o),
(73,534,cs),
(73,466,o),
(111,428,o),
(139,406,cs),
(170,381,o),
(182,370,o),
(182,355,cs),
(182,340,o),
(170,330,o),
(139,305,cs),
(112,283,o),
(60,240,o),
(60,164,cs),
(60,35,o),
(171,-10,o),
(324,-10,cs),
(364,-10,o),
(463,-5,o),
(519,49,c),
(547,16,o),
(595,-5,o),
(658,-5,cs),
(663,-5,o),
(668,-5,o),
(674,-5,c)
);
},
{
closed = 1;
nodes = (
(245,242,o),
(209,249,o),
(209,285,cs),
(209,321,o),
(245,328,o),
(347,328,cs),
(409,328,o),
(446,325,o),
(466,315,cs),
(479,309,o),
(485,299,o),
(485,285,cs),
(485,271,o),
(480,261,o),
(467,255,cs),
(447,245,o),
(409,242,o),
(347,242,cs)
);
}
);
width = 766;
}
);
unicode = 38;
}
{
glyphname = quotesingle;
kernLeft = "0";
kernRight = "0";
layers = (
{
layerId = "60D037D9-62E9-4843-B070-F1594CB0B0D1";
shapes = (
{
closed = 1;
nodes = (
(64,491,l),
(71,740,l),
(34,740,l),
(41,491,l)
);
}
);
width = 102;
},
{
layerId = m01;
shapes = (
{
closed = 1;
nodes = (
(112,483,l),
(129,744,l),
(29,744,l),
(46,483,l)
);
}
);
width = 158;
}
);
unicode = 39;
userData = {
KernOnName = quotesingle;
};
}
{
glyphname = parenleft;
kernLeft = "0";
kernRight = "0";
layers = (
{
layerId = "60D037D9-62E9-4843-B070-F1594CB0B0D1";
shapes = (
{
closed = 1;
nodes = (
(224,-117,l),
(147,-24,o),
(107,129,o),
(107,283,cs),
(107,439,o),
(147,590,o),
(224,683,c),
(224,740,l),
(135,629,o),
(86,467,o),
(86,283,cs),
(86,101,o),
(135,-63,o),
(224,-174,c)
);
}
);
width = 350;
},
{
layerId = m01;
shapes = (
{
closed = 1;
nodes = (
(296,21,l),
(197,33,o),
(121,107,o),
(121,277,cs),
(121,447,o),
(197,521,o),
(296,533,c),
(296,740,l),
(224,723,o),
(54,655,o),
(54,277,cs),
(54,-101,o),
(224,-169,o),
(296,-186,c)
);
}
);
width = 320;
}
);
unicode = 40;
}
{
glyphname = asterisk;
kernLeft = "0";
kernRight = "0";
layers = (
{
layerId = "60D037D9-62E9-4843-B070-F1594CB0B0D1";
shapes = (
{
closed = 1;
nodes = (
(160,675,l),
(162,647,o),
(164,611,o),
(164,606,cs),
(164,600,o),
(162,598,o),
(160,596,cs),
(159,595,o),
(157,594,o),
(154,594,cs),
(149,594,o),
(132,599,o),
(84,619,c),
(75,588,l),
(127,577,o),
(137,574,o),
(141,571,cs),
(144,569,o),
(146,566,o),
(146,562,cs),
(146,559,o),
(145,557,o),
(144,555,cs),
(140,548,o),
(135,541,o),
(99,502,c),
(127,481,l),
(149,520,o),
(158,534,o),
(163,540,cs),
(168,547,o),
(170,548,o),
(175,548,cs),
(180,548,o),
(182,547,o),
(187,540,cs),
(192,534,o),
(201,520,o),
(223,481,c),
(251,502,l),
(215,541,o),
(210,548,o),
(206,555,cs),
(205,557,o),
(204,559,o),
(204,562,cs),
(204,566,o),
(206,569,o),
(209,571,cs),
(213,574,o),
(223,577,o),
(275,588,c),
(266,619,l),
(218,599,o),
(201,594,o),
(196,594,cs),
(193,594,o),
(191,595,o),
(190,596,cs),
(188,598,o),
(186,600,o),
(186,606,cs),
(186,611,o),
(188,647,o),
(190,675,c)
);
}
);
width = 350;
},
{
background = {
shapes = (
{
closed = 1;
nodes = (
(182,437,l),
(180,526,l),
(256,480,l),
(282,525,l),
(203,568,l),
(282,611,l),
(256,656,l),
(180,610,l),
(182,700,l),
(130,700,l),
(132,609,l),
(55,656,l),
(29,611,l),
(108,568,l),
(29,525,l),
(55,480,l),
(132,527,l),
(130,437,l)
);
},
{
closed = 1;
nodes = (
(-41,468,l),
(243,468,l),
(331,738,l),
(101,905,l),
(-129,738,l)
);
},
{
closed = 1;
nodes = (
(-41,468,l),
(243,468,l),
(331,738,l),
(101,905,l),
(-129,738,l)
);
},
{
closed = 1;
nodes = (
(32,855,l),
(170,855,l),
(170,1114,l),
(32,1114,l)
);
},
{
closed = 1;
nodes = (
(-306,868,l),
(-348,737,l),
(-102,657,l),
(-60,788,l)
);
},
{
closed = 1;
nodes = (
(304,657,l),
(550,737,l),
(508,868,l),
(262,788,l)
);
},
{
closed = 1;
nodes = (
(421,339,l),
(269,548,l),
(157,468,l),
(309,259,l)
);
},
{
closed = 1;
nodes = (
(45,468,l),
(-67,548,l),
(-219,339,l),
(-107,259,l)
);
},
{
closed = 1;
nodes = (
(75,703,l),
(32,703,l),
(38,660,o),
(44,613,o),
(44,606,cs),
(44,602,o),
(44,600,o),
(43,597,cs),
(41,585,o),
(26,574,o),
(13,574,cs),
(11,574,o),
(8,574,o),
(4,575,cs),
(-6,578,o),
(-10,580,o),
(-86,618,c),
(-112,534,l),
(-24,522,o),
(-10,520,o),
(-2,513,cs),
(3,508,o),
(9,498,o),
(9,484,cs),
(9,481,o),
(8,476,o),
(7,474,cs),
(3,464,o),
(-14,447,o),
(-67,399,c),
(6,347,l),
(35,412,o),
(45,433,o),
(55,440,cs),
(61,444,o),
(69,446,o),
(75,446,c)
);
}
);
};
layerId = m01;
shapes = (
{
closed = 1;
nodes = (
(187,740,l),
(191,697,o),
(192,641,o),
(192,634,cs),
(192,624,o),
(190,621,o),
(187,618,cs),
(185,616,o),
(182,615,o),
(178,615,cs),
(170,615,o),
(142,622,o),
(66,657,c),
(40,571,l),
(128,558,o),
(147,549,o),
(153,545,cs),
(157,543,o),
(161,538,o),
(161,531,cs),
(161,527,o),
(160,524,o),
(158,520,cs),
(153,510,o),
(141,496,o),
(85,436,c),
(158,384,l),
(193,449,o),
(201,462,o),
(208,471,cs),
(216,482,o),
(221,483,o),
(227,483,cs),
(233,483,o),
(238,482,o),
(246,471,cs),
(253,462,o),
(261,449,o),
(296,384,c),
(369,436,l),
(313,496,o),
(301,510,o),
(296,520,cs),
(294,524,o),
(293,527,o),
(293,531,cs),
(293,538,o),
(297,543,o),
(301,545,cs),
(307,549,o),
(326,558,o),
(414,571,c),
(387,657,l),
(313,622,o),
(284,615,o),
(276,615,cs),
(272,615,o),
(269,616,o),
(267,618,cs),
(264,621,o),
(262,624,o),
(262,634,cs),
(262,641,o),
(263,697,o),
(267,740,c)
);
}
);
width = 454;
}
);
metricLeft = period;
metricRight = period;
unicode = 42;
}
{
glyphname = plus;
kernLeft = KO_plus;
kernRight = KO_plus;
layers = (
{
layerId = "60D037D9-62E9-4843-B070-F1594CB0B0D1";
shapes = (
{
closed = 1;
nodes = (
(36,244,l),
(155,247,o),
(155,247,o),
(216,247,cs),
(276,247,o),
(276,247,o),
(395,244,c),
(395,277,l),
(275,274,o),
(275,274,o),
(215,274,cs),
(155,274,o),
(155,274,o),
(36,277,c)
);
},
{
closed = 1;
nodes = (
(231,61,l),
(228,193,o),
(228,193,o),
(228,259,cs),
(228,324,o),
(228,324,o),
(231,455,c),
(202,455,l),
(205,324,o),
(205,324,o),
(205,258,cs),
(205,192,o),
(205,192,o),
(202,61,c)
);
}
);
width = 438;
},
{
layerId = m01;
shapes = (
{
closed = 1;
nodes = (
(35,211,l),
(160,214,o),
(160,214,o),
(232,214,cs),
(298,214,o),
(298,214,o),
(429,211,c),
(429,366,l),
(298,363,o),
(298,363,o),
(232,363,cs),
(166,363,o),
(166,363,o),
(35,366,c)
);
},
{
closed = 1;
nodes = (
(256,92,l),
(253,224,o),
(253,224,o),
(253,290,cs),
(253,355,o),
(253,355,o),
(256,486,c),
(203,486,l),
(206,355,o),
(206,355,o),
(206,289,cs),
(206,223,o),
(206,223,o),
(203,92,c)
);
}
);
width = 463;
}
);
unicode = 43;
}
{
glyphname = comma;
kernLeft = "0";
kernRight = "0";
layers = (
{
background = {
shapes = (
{
ref = period;
}
);
};
layerId = m01;
shapes = (
{
closed = 1;
nodes = (
(40,-150,l),
(194,-150,o),
(267,-83,o),
(267,29,cs),
(267,96,o),
(235,150,o),
(150,150,cs),
(80,150,o),
(40,125,o),
(40,77,cs),
(40,29,o),
(68,2,o),
(132,2,cs),
(183,2,o),
(202,2,o),
(202,-15,cs),
(202,-38,o),
(152,-45,o),
(106,-45,cs),
(79,-45,o),
(54,-43,o),
(40,-39,c)
);
}
);
width = 307;
},
{
background = {
shapes = (
{
ref = period;
}
);
};
layerId = "60D037D9-62E9-4843-B070-F1594CB0B0D1";
shapes = (
{
closed = 1;
nodes = (
(75,-72,l),
(140,-67,o),
(163,-19,o),
(163,33,cs),
(163,81,o),
(142,93,o),
(118,93,cs),
(88,93,o),
(75,73,o),
(75,44,cs),
(75,18,o),
(90,0,o),
(117,0,cs),
(127,0,o),
(138,0,o),
(138,-10,cs),
(138,-25,o),
(122,-44,o),
(83,-44,cs),
(80,-44,o),
(78,-44,o),
(75,-44,c)
);
}
);
width = 238;
}
);
metricLeft = period;
metricRight = period;
unicode = 44;
}
{
glyphname = hyphen;
kernLeft = "0";
kernRight = "0";
layers = (
{
layerId = m01;
shapes = (
{
closed = 1;
nodes = (
(24,230,l),
(426,230,l),
(426,344,l),
(24,344,l)
);
}
);
width = 450;
},
{
layerId = "60D037D9-62E9-4843-B070-F1594CB0B0D1";
shapes = (
{
closed = 1;
nodes = (
(48,262,l),
(358,262,l),
(358,298,l),
(48,298,l)
);
}
);
width = 406;
}
);
unicode = 45;
userData = {
KernOnName = hyphen;
};
}
{
glyphname = period;
kernLeft = "0";
kernRight = "0";
layers = (
{
background = {
shapes = (
{
closed = 1;
nodes = (
(244,-14,o),
(282,14,o),
(282,68,cs),
(282,115,o),
(244,150,o),
(158,150,cs),
(72,150,o),
(34,120,o),
(34,68,cs),
(34,19,o),
(68,-14,o),
(158,-14,cs)
);
}
);
};
layerId = m01;
shapes = (
{
closed = 1;
nodes = (
(221,-10,o),
(254,15,o),
(254,70,cs),
(254,125,o),
(221,150,o),
(149,150,cs),
(75,150,o),
(40,125,o),
(40,70,cs),
(40,15,o),
(75,-10,o),
(149,-10,cs)
);
}
);
width = 294;
},
{
layerId = "60D037D9-62E9-4843-B070-F1594CB0B0D1";
shapes = (
{
closed = 1;
nodes = (
(145,-10,o),
(161,8,o),
(161,41,cs),
(161,75,o),
(145,93,o),
(118,93,cs),
(91,93,o),
(75,75,o),
(75,41,cs),
(75,8,o),
(91,-10,o),
(118,-10,cs)
);
}
);
width = 236;
}
);
unicode = 46;
userData = {
KernOnName = period;
};
}
{
glyphname = slash;
kernLeft = "0";
kernRight = "0";
layers = (
{
layerId = "60D037D9-62E9-4843-B070-F1594CB0B0D1";
shapes = (
{
closed = 1;
nodes = (
(111,-40,l),
(200,210,o),
(300,490,o),
(398,740,c),
(362,740,l),
(277,490,o),
(172,210,o),
(75,-40,c)
);
}
);
width = 473;
},
{
layerId = m01;
shapes = (
{
closed = 1;
nodes = (
(122,-40,l),
(186,201,o),
(272,500,o),
(352,740,c),
(270,740,l),
(206,500,o),
(116,201,o),
(40,-40,c)
);
}
);
width = 392;
}
);
metricLeft = period;
metricRight = period;
unicode = 47;
}
{
glyphname = zero;
kernLeft = KO_zero;
kernRight = KO_zero;
layers = (
{
layerId = m01;
shapes = (
{
closed = 1;
nodes = (
(508,-10,o),
(586,95,o),
(586,350,cs),
(586,605,o),
(507,710,o),
(308,710,cs),
(109,710,o),
(30,605,o),
(30,350,cs),
(30,95,o),
(108,-10,o),
(308,-10,cs)
);
},
{
closed = 1;
nodes = (
(150,245,o),
(96,271,o),
(96,350,cs),
(96,429,o),
(150,455,o),
(308,455,cs),
(466,455,o),
(520,429,o),
(520,350,cs),
(520,271,o),
(466,245,o),
(308,245,cs)
);
}
);
width = 616;
},
{
layerId = "60D037D9-62E9-4843-B070-F1594CB0B0D1";
shapes = (
{
closed = 1;
nodes = (
(449,-16,o),
(532,111,o),
(532,350,cs),
(532,589,o),
(449,716,o),
(293,716,cs),
(137,716,o),
(54,589,o),
(54,350,cs),
(54,111,o),
(137,-16,o),
(293,-16,cs)
);
},
{
closed = 1;
nodes = (
(156,23,o),
(76,140,o),
(76,350,cs),
(76,560,o),
(156,677,o),
(293,677,cs),
(430,677,o),
(510,560,o),
(510,350,cs),
(510,140,o),
(430,23,o),
(293,23,cs)
);
}
);
width = 586;
}
);
metricLeft = o;
metricRight = o;
unicode = 48;
}
{
glyphname = one;
kernLeft = KO_one;
kernRight = KO_one;
layers = (
{
layerId = m01;
shapes = (
{
closed = 1;
nodes = (
(441,0,l),
(441,245,l),
(411,243,o),
(388,242,o),
(370,242,cs),
(337,242,o),
(320,246,o),
(312,251,cs),
(292,264,o),
(288,281,o),
(288,350,cs),
(288,464,o),
(289,584,o),
(293,712,c),
(60,671,l),
(60,455,l),
(90,457,o),
(118,458,o),
(136,458,cs),
(166,458,o),
(183,454,o),
(194,447,cs),
(214,434,o),
(218,419,o),
(218,350,cs),
(218,281,o),
(214,266,o),
(194,253,cs),
(183,246,o),
(166,242,o),
(129,242,cs),
(111,242,o),
(88,243,o),
(58,245,c),
(58,0,l)
);
}
);
width = 499;
},
{
layerId = "60D037D9-62E9-4843-B070-F1594CB0B0D1";
shapes = (
{
closed = 1;
nodes = (
(331,0,l),
(331,36,l),
(313,36,o),
(294,36,o),
(282,36,cs),
(231,36,o),
(223,37,o),
(216,42,cs),
(206,50,o),
(205,66,o),
(205,271,cs),
(205,414,o),
(205,556,o),
(205,699,c),
(42,670,l),
(42,637,l),
(107,648,o),
(141,653,o),
(157,653,cs),
(170,653,o),
(174,650,o),
(176,646,cs),
(181,638,o),
(181,633,o),
(181,271,cs),
(181,66,o),
(180,50,o),
(170,42,cs),
(164,37,o),
(156,36,o),
(100,36,cs),
(88,36,o),
(69,36,o),
(51,36,c),
(51,0,l)
);
}
);
width = 373;
}
);
metricLeft = I;
metricRight = I;
unicode = 49;
}
{
glyphname = two;
kernLeft = KO_two;
kernRight = KO_two;
layers = (
{
layerId = m01;
shapes = (
{
closed = 1;
nodes = (
(564,0,l),
(564,245,l),
(449,242,o),
(316,239,o),
(259,239,cs),
(211,239,o),
(207,241,o),
(207,251,cs),
(207,271,o),
(212,284,o),
(358,333,cs),
(463,368,o),
(557,404,o),
(557,525,cs),
(557,653,o),
(454,707,o),
(301,707,cs),
(261,707,o),
(192,704,o),
(99,687,c),
(99,427,l),
(197,451,o),
(259,457,o),
(314,457,cs),
(370,457,o),
(388,446,o),
(388,430,cs),
(388,409,o),
(369,392,o),
(279,361,cs),
(66,288,o),
(65,257,o),
(65,133,cs),
(65,0,l)
);
}
);
width = 612;
},
{
background = {
shapes = (
{
pos = (507,0);
ref = S;
scale = (-1,1);
}
);
};
layerId = "60D037D9-62E9-4843-B070-F1594CB0B0D1";
shapes = (
{
closed = 1;
nodes = (
(457,0,l),
(457,37,l),
(341,37,o),
(325,37,o),
(164,37,cs),
(91,37,o),
(90,37,o),
(90,76,cs),
(90,176,o),
(130,205,o),
(322,338,cs),
(440,420,o),
(444,503,o),
(444,533,cs),
(444,644,o),
(367,716,o),
(226,716,cs),
(184,716,o),
(133,708,o),
(89,690,c),
(89,644,l),
(129,665,o),
(182,678,o),
(239,678,cs),
(346,678,o),
(417,624,o),
(417,531,cs),
(417,473,o),
(394,413,o),
(250,319,cs),
(115,231,o),
(60,183,o),
(60,62,cs),
(60,0,l)
);
}
);
width = 524;
}
);
metricLeft = S;
unicode = 50;
}
{
glyphname = three;
kernLeft = KO_three;
kernRight = KO_three;
layers = (
{
background = {
shapes = (
{
pos = (648,0);
ref = E;
scale = (-1,1);
}
);
};
layerId = m01;
shapes = (
{
closed = 1;
nodes = (
(135,-4,o),
(226,-10,o),
(266,-10,cs),
(419,-10,o),
(536,39,o),
(536,173,cs),
(536,251,o),
(481,293,o),
(454,311,cs),
(421,333,o),
(408,345,o),
(408,360,cs),
(408,375,o),
(420,386,o),
(451,411,cs),
(479,434,o),
(519,475,o),
(519,539,cs),
(519,669,o),
(419,710,o),
(266,710,cs),
(226,710,o),
(157,704,o),
(64,687,c),
(64,427,l),
(162,453,o),
(239,457,o),
(292,457,cs),
(366,457,o),
(381,440,o),
(381,423,cs),
(381,408,o),
(374,386,o),
(294,386,cs),
(247,386,o),
(191,388,o),
(117,391,c),
(117,326,l),
(165,330,o),
(208,331,o),
(264,331,cs),
(373,331,o),
(381,306,o),
(381,287,cs),
(381,265,o),
(359,243,o),
(279,243,cs),
(225,243,o),
(140,249,o),
(42,273,c),
(42,13,l)
);
}
);
width = 576;
},
{
background = {
shapes = (
{
pos = (-6,0);
ref = two;
},
{
closed = 1;
nodes = (
(450,-16,o),
(495,102,o),
(495,175,cs),
(495,286,o),
(416,329,o),
(394,341,cs),
(361,359,o),
(361,361,o),
(361,367,cs),
(361,373,o),
(361,373,o),
(394,403,cs),
(440,444,o),
(463,487,o),
(463,544,cs),
(463,617,o),
(416,716,o),
(258,716,cs),
(222,716,o),
(174,711,o),
(107,693,c),
(107,650,l),
(169,673,o),
(212,681,o),
(254,681,cs),
(348,681,o),
(441,645,o),
(441,536,cs),
(441,457,o),
(358,384,o),
(275,384,cs),
(237,384,o),
(218,384,o),
(158,387,c),
(158,348,l),
(218,351,o),
(237,351,o),
(270,351,cs),
(360,351,o),
(471,295,o),
(471,184,cs),
(471,64,o),
(373,23,o),
(267,23,cs),
(218,23,o),
(161,30,o),
(89,58,c),
(89,13,l),
(149,-6,o),
(209,-16,o),
(254,-16,cs)
);
}
);
};
layerId = "60D037D9-62E9-4843-B070-F1594CB0B0D1";
shapes = (
{
closed = 1;
nodes = (
(98,-7,o),
(149,-16,o),
(206,-16,cs),
(370,-16,o),
(449,71,o),
(449,189,cs),
(449,261,o),
(415,324,o),
(345,357,cs),
(334,362,o),
(326,366,o),
(326,370,cs),
(326,373,o),
(331,377,o),
(345,386,cs),
(402,423,o),
(427,481,o),
(427,538,cs),
(427,647,o),
(349,716,o),
(221,716,cs),
(169,716,o),
(118,707,o),
(74,690,c),
(74,644,l),
(114,664,o),
(167,678,o),
(229,678,cs),
(328,678,o),
(403,627,o),
(403,535,cs),
(403,464,o),
(345,381,o),
(231,381,cs),
(205,381,o),
(173,381,o),
(136,383,c),
(136,350,l),
(173,352,o),
(197,352,o),
(243,352,cs),
(357,352,o),
(424,277,o),
(424,197,cs),
(424,92,o),
(350,22,o),
(217,22,cs),
(145,22,o),
(94,35,o),
(54,56,c),
(54,11,l)
);
}
);
width = 494;
}
);
metricLeft = C;
metricRight = B;
unicode = 51;
}
{
glyphname = four;
kernLeft = KO_four;
kernRight = KO_four;
layers = (
{
background = {
shapes = (
{
closed = 1;
nodes = (
(473,0,l),
(469,67,o),
(468,109,o),
(468,162,c),
(568,162,l),
(568,410,l),
(468,410,l),
(468,503,o),
(468,503,o),
(471,700,c),
(396,700,l),
(399,503,o),
(399,503,o),
(399,410,c),
(380,410,o),
(355,410,o),
(336,410,cs),
(243,410,o),
(201,411,o),
(195,413,cs),
(188,415,o),
(187,419,o),
(187,423,cs),
(187,431,o),
(187,436,o),
(203,447,cs),
(254,481,o),
(433,560,o),
(433,700,c),
(216,700,l),
(216,584,o),
(129,457,o),
(48,391,c),
(48,162,l),
(399,162,l),
(399,109,o),
(398,67,o),
(394,0,c)
);
}
);
};
layerId = m01;
shapes = (
{
closed = 1;
nodes = (
(478,0,l),
(474,67,o),
(473,114,o),
(473,167,c),
(568,167,l),
(568,410,l),
(473,410,l),
(473,453,o),
(473,453,o),
(476,544,c),
(396,544,l),
(399,453,o),
(399,453,o),
(399,410,c),
(380,410,o),
(355,410,o),
(336,410,cs),
(243,410,o),
(201,411,o),
(195,413,cs),
(188,415,o),
(187,419,o),
(187,423,cs),
(187,431,o),
(187,436,o),
(203,447,cs),
(254,481,o),
(361,560,o),
(361,700,c),
(144,700,l),
(144,584,o),
(129,457,o),
(48,391,c),
(48,167,l),
(399,167,l),
(399,114,o),
(398,67,o),
(394,0,c)
);
}
);
width = 626;
},
{
layerId = "60D037D9-62E9-4843-B070-F1594CB0B0D1";
shapes = (
{
closed = 1;
nodes = (
(428,0,l),
(425,149,o),
(425,151,o),
(425,225,c),
(510,225,l),
(510,262,l),
(425,262,l),
(425,405,o),
(425,406,o),
(428,590,c),
(397,590,l),
(401,407,o),
(401,406,o),
(401,262,c),
(341,262,o),
(302,262,o),
(268,262,cs),
(179,262,o),
(133,262,o),
(112,267,cs),
(90,272,o),
(90,280,o),
(90,298,cs),
(90,330,o),
(90,330,o),
(122,367,cs),
(259,526,o),
(264,662,o),
(264,700,c),
(231,700,l),
(231,644,o),
(220,492,o),
(66,340,c),
(66,225,l),
(401,225,l),
(401,151,o),
(401,151,o),
(397,0,c)
);
}
);
width = 605;
}
);
metricRight = H;
unicode = 52;
}
{
glyphname = five;
kernLeft = KO_five;
kernRight = KO_five;
layers = (
{
background = {
shapes = (
{
pos = (0,699);
ref = two;
scale = (1,-1);
}
);
};
layerId = m01;
shapes = (
{
closed = 1;
nodes = (
(427,-10,o),
(539,59,o),
(539,209,cs),
(539,332,o),
(443,408,o),
(283,408,cs),
(241,408,o),
(237,408,o),
(167,402,cs),
(157,401,o),
(147,400,o),
(141,400,cs),
(137,400,o),
(134,400,o),
(132,402,cs),
(128,405,o),
(128,413,o),
(128,432,cs),
(128,442,o),
(128,448,o),
(136,452,cs),
(149,458,o),
(181,458,o),
(261,458,cs),
(368,458,o),
(377,458,o),
(499,455,c),
(499,700,l),
(71,700,l),
(71,330,l),
(95,335,o),
(173,345,o),
(239,345,cs),
(368,345,o),
(389,320,o),
(389,294,cs),
(389,274,o),
(372,243,o),
(264,243,cs),
(230,243,o),
(148,246,o),
(50,273,c),
(50,10,l),
(143,-7,o),
(234,-10,o),
(274,-10,cs)
);
}
);
width = 608;
},
{
background = {
shapes = (
{
closed = 1;
nodes = (
(339,-7,o),
(410,88,o),
(410,200,cs),
(410,316,o),
(326,404,o),
(182,404,cs),
(156,404,o),
(123,402,o),
(99,399,cs),
(86,397,o),
(73,396,o),
(65,396,cs),
(59,396,o),
(55,397,o),
(53,400,cs),
(51,403,o),
(50,408,o),
(50,415,cs),
(50,435,o),
(50,482,o),
(50,535,cs),
(50,638,o),
(50,645,o),
(57,653,cs),
(64,661,o),
(72,662,o),
(133,662,cs),
(190,662,o),
(247,662,o),
(369,662,c),
(369,700,l),
(26,700,l),
(26,349,l),
(55,357,o),
(125,370,o),
(172,370,cs),
(298,370,o),
(385,308,o),
(385,200,cs),
(385,113,o),
(331,31,o),
(183,31,cs),
(119,31,o),
(51,44,o),
(11,65,c),
(11,20,l),
(55,2,o),
(126,-7,o),
(172,-7,cs)
);
}
);
};
layerId = "60D037D9-62E9-4843-B070-F1594CB0B0D1";
shapes = (
{
closed = 1;
nodes = (
(339,-7,o),
(410,88,o),
(410,200,cs),
(410,316,o),
(326,404,o),
(182,404,cs),
(156,404,o),
(123,402,o),
(99,399,cs),
(86,397,o),
(73,396,o),
(65,396,cs),
(59,396,o),
(57,397,o),
(55,398,cs),
(50,402,o),
(50,403,o),
(50,535,cs),
(50,638,o),
(50,645,o),
(57,653,cs),
(64,661,o),
(72,662,o),
(133,662,cs),
(190,662,o),
(247,662,o),
(369,662,c),
(369,700,l),
(26,700,l),
(26,349,l),
(55,357,o),
(125,370,o),
(172,370,cs),
(298,370,o),
(385,308,o),
(385,200,cs),
(385,113,o),
(331,31,o),
(183,31,cs),
(119,31,o),
(51,44,o),
(11,65,c),
(11,20,l),
(55,2,o),
(126,-7,o),
(172,-7,cs)
);
}
);
width = 414;
}
);
unicode = 53;
}
{
glyphname = six;
kernLeft = KO_six;
kernRight = KO_six;
layers = (
{
layerId = m01;
shapes = (
{
closed = 1;
nodes = (
(529,695,l),
(505,703,o),
(455,710,o),
(384,710,cs),
(327,710,o),
(226,696,o),
(155,636,cs),
(105,593,o),
(51,523,o),
(36,392,cs),
(33,364,o),
(30,334,o),
(30,302,cs),
(30,275,o),
(32,250,o),
(35,227,cs),
(58,72,o),
(135,-10,o),
(296,-10,cs),
(472,-10,o),
(562,64,o),
(562,245,cs),
(562,397,o),
(452,449,o),
(319,449,cs),
(216,449,o),
(161,423,o),
(125,399,cs),
(113,391,o),
(110,389,o),
(106,389,cs),
(102,389,o),
(100,392,o),
(100,396,cs),
(100,408,o),
(116,434,o),
(146,458,cs),
(179,484,o),
(237,506,o),
(310,506,cs),
(388,506,o),
(475,489,o),
(526,462,c)
);
},
{
closed = 1;
nodes = (
(104,320,o),
(153,335,o),
(296,335,cs),
(440,335,o),
(489,320,o),
(489,272,cs),
(489,227,o),
(440,212,o),
(296,212,cs),
(153,212,o),
(104,227,o),
(104,272,cs)
);
}
);
width = 592;
},
{
background = {
shapes = (
{
closed = 1;
nodes = (
(457,-15,o),
(550,72,o),
(550,197,cs),
(550,345,o),
(476,408,o),
(309,408,cs),
(173,408,o),
(134,339,o),
(115,307,cs),
(110,297,o),
(106,291,o),
(102,291,cs),
(96,291,o),
(96,296,o),
(96,302,cs),
(106,604,o),
(211,669,o),
(395,669,cs),
(447,669,o),
(476,659,o),
(517,647,c),
(517,689,l),
(476,702,o),
(433,710,o),
(397,710,cs),
(313,710,o),
(243,696,o),
(190,655,cs),
(115,597,o),
(74,486,o),
(74,286,cs),
(74,113,o),
(134,-15,o),
(317,-15,cs)
);
},
{
closed = 1;
nodes = (
(109,294,o),
(180,375,o),
(309,375,cs),
(460,375,o),
(529,318,o),
(529,198,cs),
(529,102,o),
(447,30,o),
(317,30,cs),
(188,30,o),
(109,92,o),
(109,194,cs)
);
},
{
closed = 1;
nodes = (
(426,-16,o),
(519,82,o),
(519,227,cs),
(519,372,o),
(426,470,o),
(289,470,cs),
(152,470,o),
(59,372,o),
(59,227,cs),
(59,82,o),
(152,-16,o),
(289,-16,cs)
);
},
{
closed = 1;
nodes = (
(170,24,o),
(82,100,o),
(82,227,cs),
(82,354,o),
(170,430,o),
(289,430,cs),
(408,430,o),
(496,354,o),
(496,227,cs),
(496,100,o),
(408,24,o),
(289,24,cs)
);
}
);
};
layerId = "60D037D9-62E9-4843-B070-F1594CB0B0D1";
shapes = (
{
closed = 1;
nodes = (
(467,699,l),
(442,706,o),
(403,716,o),
(349,716,cs),
(294,716,o),
(236,704,o),
(183,661,cs),
(96,590,o),
(61,472,o),
(55,362,cs),
(54,344,o),
(54,327,o),
(54,310,cs),
(54,293,o),
(54,282,o),
(55,253,cs),
(62,46,o),
(174,-16,o),
(288,-16,cs),
(431,-16,o),
(518,84,o),
(518,217,cs),
(518,352,o),
(438,450,o),
(289,450,cs),
(205,450,o),
(138,409,o),
(95,339,cs),
(93,335,o),
(89,331,o),
(86,331,cs),
(82,331,o),
(80,334,o),
(80,340,cs),
(80,390,o),
(93,523,o),
(170,606,cs),
(227,667,o),
(297,677,o),
(350,677,cs),
(403,677,o),
(446,665,o),
(467,658,c)
);
},
{
closed = 1;
nodes = (
(84,343,o),
(172,410,o),
(289,410,cs),
(420,410,o),
(496,334,o),
(496,217,cs),
(496,95,o),
(406,24,o),
(287,24,cs),
(163,24,o),
(84,104,o),
(84,225,cs)
);
}
);
width = 572;
}
);
metricLeft = zero;
metricRight = zero;
unicode = 54;
}
{
glyphname = seven;
kernLeft = KO_seven;
kernRight = KO_seven;
layers = (
{
background = {
shapes = (
{
closed = 1;
nodes = (
(282,0,l),
(282,278,o),
(378,363,o),
(486,458,c),
(486,700,l),
(42,700,l),
(42,436,l),
(66,438,o),
(133,439,o),
(201,439,cs),
(247,439,o),
(334,438,o),
(345,436,cs),
(351,435,o),
(355,432,o),
(355,423,cs),
(355,416,o),
(354,409,o),
(340,398,cs),
(238,318,o),
(99,203,o),
(99,0,c)
);
}
);
};
layerId = m01;
shapes = (
{
closed = 1;
nodes = (
(282,0,l),
(282,278,o),
(378,363,o),
(486,458,c),
(486,700,l),
(42,700,l),
(42,436,l),
(66,438,o),
(133,439,o),
(201,439,cs),
(247,439,o),
(334,438,o),
(345,436,cs),
(351,435,o),
(355,432,o),
(355,423,cs),
(355,416,o),
(354,409,o),
(340,398,cs),
(238,318,o),
(99,203,o),
(99,0,c)
);
}
);
width = 535;
},
{
background = {
anchors = (
{
name = bottom;
pos = (219,0);
},
{
name = center;
pos = (218,350);
},
{
name = top;
pos = (219,700);
}
);
shapes = (
{
closed = 1;
nodes = (
(456,0,l),
(456,36,l),
(318,36,o),
(254,36,o),
(181,36,cs),
(35,36,o),
(33,36,o),
(33,78,cs),
(33,120,o),
(35,127,o),
(72,169,cs),
(122,225,o),
(346,469,o),
(437,568,c),
(437,700,l),
(12,700,l),
(12,664,l),
(150,664,o),
(189,664,o),
(264,664,cs),
(402,664,o),
(406,664,o),
(406,626,cs),
(406,602,o),
(406,589,o),
(401,577,cs),
(396,566,o),
(388,555,o),
(372,537,cs),
(318,474,o),
(93,229,o),
(2,130,c),
(2,0,l)
);
}
);
};
layerId = "60D037D9-62E9-4843-B070-F1594CB0B0D1";
shapes = (
{
closed = 1;
nodes = (
(207,0,l),
(207,221,o),
(247,390,o),
(437,568,c),
(437,700,l),
(54,700,l),
(54,664,l),
(121,664,o),
(164,664,o),
(223,664,cs),
(383,664,o),
(395,662,o),
(404,653,cs),
(409,648,o),
(410,643,o),
(410,612,cs),
(410,590,o),
(410,581,o),
(395,564,cs),
(221,373,o),
(176,226,o),
(176,0,c)
);
}
);
width = 472;
}
);
metricLeft = Z;
unicode = 55;
}
{
glyphname = eight;
kernLeft = KO_eight;
kernRight = KO_eight;
layers = (
{
layerId = m01;
shapes = (
{
closed = 1;
nodes = (
(478,-16,o),
(569,49,o),
(569,190,cs),
(569,279,o),
(539,335,o),
(469,365,c),
(525,395,o),
(549,446,o),
(549,522,cs),
(549,654,o),
(464,715,o),
(300,715,cs),
(130,715,o),
(48,655,o),
(48,523,cs),
(48,446,o),
(73,395,o),
(130,365,c),
(60,335,o),
(30,279,o),
(30,190,cs),
(30,49,o),
(121,-16,o),
(300,-16,cs)
);
},
{
closed = 1;
nodes = (
(170,214,o),
(126,228,o),
(126,270,cs),
(126,316,o),
(170,331,o),
(300,331,cs),
(432,331,o),
(476,316,o),
(476,270,cs),
(476,228,o),
(432,214,o),
(300,214,cs)
);
},
{
closed = 1;
nodes = (
(192,397,o),
(155,406,o),
(155,431,cs),
(155,453,o),
(191,461,o),
(300,461,cs),
(408,461,o),
(444,453,o),
(444,431,cs),
(444,406,o),
(408,397,o),
(301,397,cs)
);
}
);
width = 599;
},
{
background = {
shapes = (
{
pos = (518,0);
ref = S;
scale = (-1,1);
},
{
pos = (43,0);
ref = S;
}
);
};
layerId = "60D037D9-62E9-4843-B070-F1594CB0B0D1";
shapes = (
{
closed = 1;
nodes = (
(403,-16,o),
(506,54,o),
(506,188,cs),
(506,268,o),
(453,350,o),
(362,376,c),
(444,406,o),
(476,469,o),
(476,538,cs),
(476,623,o),
(422,715,o),
(280,715,cs),
(138,715,o),
(84,623,o),
(84,538,cs),
(84,469,o),
(116,406,o),
(198,376,c),
(107,350,o),
(54,268,o),
(54,188,cs),
(54,54,o),
(157,-16,o),
(280,-16,cs)
);
},
{
closed = 1;
nodes = (
(133,24,o),
(78,112,o),
(78,188,cs),
(78,260,o),
(131,360,o),
(280,360,cs),
(429,360,o),
(482,260,o),
(482,188,cs),
(482,112,o),
(427,24,o),
(280,24,cs)
);
},
{
closed = 1;
nodes = (
(152,390,o),
(108,464,o),
(108,537,cs),
(108,608,o),
(155,676,o),
(280,676,cs),
(400,676,o),
(452,608,o),
(452,537,cs),
(452,464,o),
(408,390,o),
(280,390,c)
);
}
);
width = 560;
}
);
metricLeft = zero;
metricRight = zero;
unicode = 56;
}
{
glyphname = greater;
layers = (
{
layerId = "60D037D9-62E9-4843-B070-F1594CB0B0D1";
shapes = (
{
closed = 1;
nodes = (
(381,272,l),
(308,304,o),
(166,368,o),
(22,433,c),
(22,395,l),
(169,337,o),
(214,317,o),
(355,252,c),
(214,187,o),
(169,168,o),
(22,109,c),
(22,71,l),
(166,136,o),
(308,200,o),
(381,232,c)
);
}
);
width = 403;
},
{
layerId = m01;
shapes = (
{
closed = 1;
nodes = (
(430,353,l),
(308,402,o),
(175,459,o),
(35,527,c),
(35,457,l),
(94,433,o),
(257,365,o),
(313,340,c),
(213,292,o),
(140,261,o),
(35,218,c),
(35,28,l),
(168,87,o),
(308,148,o),
(430,201,c)
);
}
);
width = 465;
}
);
metricLeft = minus;
metricRight = minus;
unicode = 62;
}
{
glyphname = question;
kernLeft = "0";
kernRight = "0";
layers = (
{
layerId = "60D037D9-62E9-4843-B070-F1594CB0B0D1";
shapes = (
{
closed = 1;
nodes = (
(251,-10,o),
(267,8,o),
(267,41,cs),
(267,74,o),
(252,93,o),
(224,93,cs),
(196,93,o),
(181,74,o),
(181,41,cs),
(181,8,o),
(197,-10,o),
(224,-10,cs)
);
},
{
closed = 1;
nodes = (
(236,162,l),
(236,283,o),
(238,299,o),
(244,312,cs),
(252,329,o),
(289,350,o),
(317,364,cs),
(409,411,o),
(450,470,o),
(450,548,cs),
(450,651,o),
(373,716,o),
(249,716,cs),
(190,716,o),
(139,708,o),
(95,690,c),
(95,644,l),
(135,665,o),
(188,678,o),
(262,678,cs),
(348,678,o),
(424,632,o),
(424,545,cs),
(424,485,o),
(400,437,o),
(293,379,cs),
(260,361,o),
(237,347,o),
(224,326,cs),
(213,308,o),
(213,284,o),
(213,162,c)
);
}
);
width = 525;
},
{
background = {
shapes = (
{
closed = 1;
nodes = (
(263,228,l),
(263,262,o),
(266,279,o),
(272,293,cs),
(278,307,o),
(289,331,o),
(361,360,cs),
(421,384,o),
(516,424,o),
(516,532,cs),
(516,669,o),
(413,707,o),
(260,707,cs),
(220,707,o),
(151,704,o),
(58,687,c),
(58,427,l),
(156,451,o),
(218,457,o),
(273,457,cs),
(329,457,o),
(347,446,o),
(347,430,cs),
(347,409,o),
(305,390,o),
(247,364,cs),
(204,345,o),
(188,328,o),
(179,301,cs),
(176,292,o),
(175,282,o),
(175,271,cs),
(175,258,o),
(177,243,o),
(179,228,c)
);
}
);
};
layerId = m01;
shapes = (
{
closed = 1;
nodes = (
(286,-10,o),
(319,15,o),
(319,70,cs),
(319,125,o),
(286,150,o),
(214,150,cs),
(140,150,o),
(105,125,o),
(105,70,cs),
(105,15,o),
(140,-10,o),
(214,-10,cs)
);
},
{
closed = 1;
nodes = (
(248,228,l),
(248,259,o),
(251,277,o),
(263,290,cs),
(272,300,o),
(287,308,o),
(309,317,cs),
(387,349,o),
(516,406,o),
(516,525,cs),
(516,653,o),
(413,707,o),
(260,707,cs),
(220,707,o),
(151,704,o),
(58,687,c),
(58,427,l),
(156,451,o),
(218,457,o),
(273,457,cs),
(329,457,o),
(347,442,o),
(347,427,cs),
(347,409,o),
(329,392,o),
(266,365,cs),
(232,351,o),
(210,339,o),
(196,323,cs),
(178,303,o),
(173,276,o),
(173,228,c)
);
}
);
width = 556;
}
);
metricLeft = H;
metricRight = period;
unicode = 63;
}
{
glyphname = at;
kernLeft = KO_at;
kernRight = KO_at;
layers = (
{
layerId = "60D037D9-62E9-4843-B070-F1594CB0B0D1";
shapes = (
{
closed = 1;
nodes = (
(181,-172,o),
(450,-172,cs),
(517,-172,o),
(581,-161,o),
(631,-150,c),
(626,-112,l),
(602,-118,o),
(532,-135,o),
(448,-135,cs),
(351,-135,o),
(235,-111,o),
(148,-22,cs),
(82,45,o),
(47,152,o),
(47,259,cs),
(47,446,o),
(160,637,o),
(420,637,cs),
(502,637,o),
(599,613,o),
(670,542,cs),
(728,484,o),
(754,385,o),
(754,313,cs),
(754,205,o),
(702,63,o),
(603,63,cs),
(550,63,o),
(539,102,o),
(539,155,cs),
(539,223,o),
(553,393,o),
(565,461,c),
(538,461,l),
(537,442,o),
(536,428,o),
(535,418,cs),
(532,393,o),
(530,388,o),
(521,388,cs),
(515,388,o),
(511,390,o),
(499,408,cs),
(485,428,o),
(452,475,o),
(375,475,cs),
(253,475,o),
(195,367,o),
(195,262,cs),
(195,128,o),
(244,43,o),
(359,43,cs),
(432,43,o),
(481,86,o),
(497,110,cs),
(509,128,o),
(512,132,o),
(517,132,cs),
(521,132,o),
(524,128,o),
(524,117,cs),
(524,76,o),
(530,30,o),
(600,30,cs),
(705,30,o),
(777,171,o),
(777,320,cs),
(777,390,o),
(760,462,o),
(723,520,cs),
(643,645,o),
(527,676,o),
(413,676,cs),
(162,676,o),
(24,498,o),
(24,263,cs),
(24,3,o)
);
},
{
closed = 1;
nodes = (
(213,379,o),
(285,443,o),
(379,443,cs),
(467,443,o),
(525,379,o),
(525,259,cs),
(525,139,o),
(458,77,o),
(362,77,cs),
(258,77,o),
(213,151,o),
(213,259,cs)
);
}
);
width = 795;
},
{
layerId = m01;
shapes = (
{
closed = 1;
nodes = (
(186,-195,o),
(452,-195,cs),
(530,-195,o),
(610,-183,o),
(666,-167,c),
(650,-1,l),
(638,-5,o),
(539,-30,o),
(428,-30,cs),
(321,-30,o),
(205,-6,o),
(144,82,cs),
(115,124,o),
(101,179,o),
(101,233,cs),
(101,406,o),
(226,539,o),
(439,539,cs),
(526,539,o),
(623,527,o),
(688,476,cs),
(745,431,o),
(772,370,o),
(772,313,cs),
(772,251,o),
(749,161,o),
(671,161,cs),
(626,161,o),
(590,194,o),
(590,250,cs),
(590,315,o),
(606,373,o),
(628,448,c),
(555,448,l),
(553,432,o),
(550,409,o),
(548,397,cs),
(546,384,o),
(544,376,o),
(536,376,cs),
(530,376,o),
(525,382,o),
(512,402,cs),
(496,426,o),
(469,455,o),
(392,455,cs),
(274,455,o),
(214,353,o),
(214,225,cs),
(214,97,o),
(278,45,o),
(382,45,cs),
(445,45,o),
(482,67,o),
(504,97,cs),
(518,116,o),
(524,123,o),
(531,123,cs),
(543,123,o),
(543,108,o),
(543,91,cs),
(543,53,o),
(572,24,o),
(622,24,cs),
(752,24,o),
(839,177,o),
(839,314,cs),
(839,403,o),
(818,474,o),
(765,543,cs),
(683,649,o),
(561,671,o),
(428,671,cs),
(207,671,o),
(32,523,o),
(32,256,cs),
(32,-42,o)
);
},
{
closed = 1;
nodes = (
(273,290,o),
(314,304,o),
(406,304,cs),
(499,304,o),
(538,290,o),
(538,250,cs),
(538,209,o),
(499,196,o),
(406,196,cs),
(314,196,o),
(273,209,o),
(273,250,cs)
);
}
);
width = 863;
}
);
unicode = 64;
}
{
glyphname = A;
kernLeft = KO_A;
kernRight = KO_A;
layers = (
{
anchors = (
{
name = bottom;
pos = (329,0);
},
{
name = ogonek;
pos = (628,0);
},
{
name = top;
pos = (329,700);
}
);
layerId = m01;
shapes = (
{
closed = 1;
nodes = (
(111,0,l),
(111,13,o),
(111,26,o),
(111,39,cs),
(111,72,o),
(114,102,o),
(133,115,cs),
(143,122,o),
(161,131,o),
(329,131,cs),
(497,131,o),
(515,122,o),
(525,115,cs),
(545,101,o),
(547,72,o),
(547,39,cs),
(547,26,o),
(547,13,o),
(547,0,c),
(628,0,l),
(599,216,o),
(582,419,o),
(570,700,c),
(88,700,l),
(76,419,o),
(59,216,o),
(30,0,c)
);
},
{
closed = 1;
nodes = (
(233,351,o),
(168,354,o),
(145,377,cs),
(139,383,o),
(136,390,o),
(136,403,cs),
(136,416,o),
(139,423,o),
(145,429,cs),
(168,452,o),
(235,455,o),
(329,455,cs),
(423,455,o),
(490,452,o),
(513,429,cs),
(519,423,o),
(522,416,o),
(522,403,cs),
(522,390,o),
(519,383,o),
(513,377,cs),
(490,354,o),
(425,351,o),
(329,351,cs)
);
}
);
width = 658;
},
{
anchors = (
{
name = bottom;
pos = (288,0);
},
{
name = ogonek;
pos = (522,0);
},
{
name = top;
pos = (288,700);
}
);
layerId = "60D037D9-62E9-4843-B070-F1594CB0B0D1";
shapes = (
{
closed = 1;
nodes = (
(87,0,l),
(87,10,o),
(90,61,o),
(95,109,cs),
(100,153,o),
(106,195,o),
(113,202,cs),
(122,211,o),
(127,214,o),
(288,214,cs),
(449,214,o),
(454,211,o),
(463,202,cs),
(470,195,o),
(476,153,o),
(481,109,cs),
(486,61,o),
(489,10,o),
(489,0,c),
(522,0,l),
(486,232,o),
(468,468,o),
(453,700,c),
(123,700,l),
(108,468,o),
(90,232,o),
(54,0,c)
);
},
{
closed = 1;
nodes = (
(123,243,o),
(115,243,o),
(115,272,cs),
(115,300,o),
(119,363,o),
(128,463,cs),
(144,645,o),
(145,650,o),
(152,655,cs),
(159,660,o),
(166,661,o),
(288,661,cs),
(410,661,o),
(417,660,o),
(424,655,cs),
(431,650,o),
(432,645,o),
(448,463,cs),
(457,363,o),
(461,300,o),
(461,272,cs),
(461,243,o),
(453,243,o),
(288,243,cs)
);
}
);
width = 576;
}
);
unicode = 65;
userData = {
KernOnName = A;
};
}
{
glyphname = B;
kernLeft = KO_H;
kernRight = KO_B;
layers = (
{
anchors = (
{
name = bottom;
pos = (293,0);
},
{
name = center;
pos = (305,350);
},
{
name = hook;
pos = (60,700);
},
{
name = top;
pos = (286,700);
}
);
layerId = m01;
shapes = (
{
closed = 1;
nodes = (
(406,0,ls),
(553,0,o),
(620,61,o),
(620,193,cs),
(620,282,o),
(578,346,o),
(489,369,c),
(551,402,o),
(576,448,o),
(576,515,cs),
(576,642,o),
(509,700,o),
(362,700,cs),
(58,700,l),
(61,463,o),
(61,463,o),
(61,350,cs),
(61,239,o),
(61,239,o),
(58,0,c)
);
},
{
closed = 1;
nodes = (
(167,235,o),
(152,242,o),
(135,252,cs),
(129,256,o),
(121,265,o),
(121,283,cs),
(121,302,o),
(129,310,o),
(135,314,cs),
(152,325,o),
(167,331,o),
(312,331,cs),
(457,331,o),
(471,325,o),
(488,314,cs),
(494,310,o),
(502,302,o),
(502,283,cs),
(502,265,o),
(494,256,o),
(488,252,cs),
(471,242,o),
(457,235,o),
(312,235,cs)
);
},
{
closed = 1;
nodes = (
(183,392,o),
(152,394,o),
(137,409,cs),
(133,413,o),
(130,418,o),
(130,428,cs),
(130,437,o),
(133,443,o),
(137,447,cs),
(152,461,o),
(183,463,o),
(301,463,cs),
(419,463,o),
(450,461,o),
(465,447,cs),
(469,443,o),
(472,437,o),
(472,428,cs),
(472,418,o),
(469,413,o),
(465,409,cs),
(450,394,o),
(419,392,o),
(301,392,cs)
);
}
);
width = 660;
},
{
anchors = (
{
name = bottom;
pos = (275,0);
},
{
name = center;
pos = (299,350);
},
{
name = hook;
pos = (95,700);
},
{
name = top;
pos = (275,700);
}
);
background = {
shapes = (
{
closed = 1;
nodes = (
(356,0,ls),
(477,0,o),
(559,78,o),
(559,188,cs),
(559,266,o),
(525,339,o),
(418,367,c),
(513,407,o),
(518,489,o),
(518,526,cs),
(518,629,o),
(455,700,o),
(343,700,cs),
(96,700,l),
(97,671,o),
(99,461,o),
(99,350,cs),
(99,239,o),
(97,29,o),
(96,0,c)
);
},
{
closed = 1;
nodes = (
(153,39,o),
(141,42,o),
(132,49,cs),
(123,56,o),
(120,63,o),
(120,193,cs),
(120,323,o),
(123,335,o),
(132,342,cs),
(141,349,o),
(153,350,o),
(249,350,cs),
(351,350,o),
(389,350,o),
(427,338,cs),
(473,323,o),
(537,278,o),
(537,193,cs),
(537,127,o),
(504,77,o),
(448,54,cs),
(418,42,o),
(377,39,o),
(249,39,cs)
);
},
{
closed = 1;
nodes = (
(153,381,o),
(141,382,o),
(132,389,cs),
(123,396,o),
(120,408,o),
(120,521,cs),
(120,634,o),
(123,646,o),
(132,653,cs),
(141,660,o),
(153,661,o),
(249,661,cs),
(351,661,o),
(377,660,o),
(405,653,cs),
(451,641,o),
(496,598,o),
(496,521,cs),
(496,444,o),
(451,401,o),
(405,389,cs),
(377,382,o),
(351,381,o),
(249,381,cs)
);
}
);
};
layerId = "60D037D9-62E9-4843-B070-F1594CB0B0D1";
shapes = (
{
closed = 1;
nodes = (
(356,0,ls),
(477,0,o),
(559,78,o),
(559,188,cs),
(559,266,o),
(525,339,o),
(418,367,c),
(513,407,o),
(518,489,o),
(518,526,cs),
(518,629,o),
(455,700,o),
(343,700,cs),
(95,700,l),
(99,461,o),
(99,461,o),
(99,350,cs),
(99,239,o),
(99,239,o),
(95,0,c)
);
},
{
closed = 1;
nodes = (
(153,39,o),
(141,42,o),
(132,49,cs),
(123,56,o),
(120,63,o),
(120,193,cs),
(120,323,o),
(123,335,o),
(132,342,cs),
(141,349,o),
(153,350,o),
(249,350,cs),
(351,350,o),
(389,350,o),
(427,338,cs),
(473,323,o),
(537,278,o),
(537,193,cs),
(537,127,o),
(504,77,o),
(448,54,cs),
(418,42,o),
(377,39,o),
(249,39,cs)
);
},
{
closed = 1;
nodes = (
(153,381,o),
(141,382,o),
(132,389,cs),
(123,396,o),
(120,408,o),
(120,521,cs),
(120,634,o),
(123,646,o),
(132,653,cs),
(141,660,o),
(153,661,o),
(249,661,cs),
(351,661,o),
(377,660,o),
(405,653,cs),
(451,641,o),
(496,598,o),
(496,521,cs),
(496,444,o),
(451,401,o),
(405,389,cs),
(377,382,o),
(351,381,o),
(249,381,cs)
);
}
);
width = 604;
}
);
metricLeft = H;
unicode = 66;
userData = {
KernOnName = B;
};
}
{
glyphname = C;
kernLeft = KO_C;
kernRight = KO_C;
layers = (
{
anchors = (
{
name = bottom;
pos = (311,0);
},
{
name = center;
pos = (336,350);
},
{
name = hook;
pos = (578,686);
},
{
name = top;
pos = (342,700);
}
);
layerId = m01;
shapes = (
{
closed = 1;
nodes = (
(578,270,l),
(532,260,o),
(438,245,o),
(321,245,cs),
(234,245,o),
(176,256,o),
(143,281,cs),
(122,297,o),
(112,320,o),
(112,350,cs),
(112,380,o),
(122,403,o),
(143,419,cs),
(176,444,o),
(234,455,o),
(321,455,cs),
(438,455,o),
(532,440,o),
(578,430,c),
(578,677,l),
(542,689,o),
(456,710,o),
(381,710,cs),
(152,710,o),
(42,597,o),
(42,350,cs),
(42,101,o),
(147,-10,o),
(367,-10,cs),
(431,-10,o),
(521,3,o),
(578,28,c)
);
}
);
width = 614;
},
{
anchors = (
{
name = bottom;
pos = (333,0);
},
{
name = center;
pos = (343,350);
},
{
name = hook;
pos = (508,679);
},
{
name = top;
pos = (329,700);
}
);
layerId = "60D037D9-62E9-4843-B070-F1594CB0B0D1";
shapes = (
{
closed = 1;
nodes = (
(508,59,l),
(467,37,o),
(402,21,o),
(344,21,cs),
(277,21,o),
(223,41,o),
(182,75,cs),
(111,134,o),
(77,235,o),
(77,350,cs),
(77,448,o),
(102,536,o),
(153,596,cs),
(197,648,o),
(260,679,o),
(344,679,cs),
(402,679,o),
(467,665,o),
(508,643,c),
(508,690,l),
(476,704,o),
(416,716,o),
(355,716,cs),
(162,716,o),
(54,578,o),
(54,350,cs),
(54,122,o),
(162,-16,o),
(355,-16,cs),
(416,-16,o),
(476,-1,o),
(508,13,c)
);
}
);
width = 558;
}
);
metricLeft = O;
unicode = 67;
userData = {
KernOnName = C;
};
}
{
glyphname = D;
kernLeft = KO_H;
kernRight = KO_D;
layers = (
{
anchors = (
{
name = bottom;
pos = (295,0);
},
{
name = center;
pos = (140,350);
},
{
name = hook;
pos = (58,700);
},
{
name = top;
pos = (295,700);
}
);
layerId = m01;
shapes = (
{
closed = 1;
nodes = (
(345,0,ls),
(444,0,o),
(493,7,o),
(542,48,cs),
(601,98,o),
(626,157,o),
(626,350,cs),
(626,543,o),
(601,602,o),
(542,652,cs),
(493,693,o),
(444,700,o),
(345,700,cs),
(58,700,l),
(61,461,o),
(61,461,o),
(61,350,cs),
(61,237,o),
(61,237,o),
(58,0,c)
);
},
{
closed = 1;
nodes = (
(209,250,o),
(178,250,o),
(149,269,cs),
(128,283,o),
(124,299,o),
(124,350,cs),
(124,401,o),
(128,417,o),
(149,431,cs),
(178,450,o),
(209,450,o),
(339,450,cs),
(474,450,o),
(495,440,o),
(524,421,cs),
(545,407,o),
(559,383,o),
(559,350,cs),
(559,319,o),
(545,295,o),
(524,279,cs),
(497,258,o),
(474,250,o),
(339,250,cs)
);
}
);
width = 668;
},
{
anchors = (
{
name = bottom;
pos = (294,0);
},
{
name = center;
pos = (145,350);
},
{
name = hook;
pos = (95,700);
},
{
name = top;
pos = (290,700);
}
);
background = {
shapes = (
{
pos = (14,0);
ref = B;
}
);
};
layerId = "60D037D9-62E9-4843-B070-F1594CB0B0D1";
shapes = (
{
closed = 1;
nodes = (
(322,0,ls),
(427,0,o),
(495,32,o),
(537,115,cs),
(570,180,o),
(570,264,o),
(570,350,cs),
(570,436,o),
(570,520,o),
(537,585,cs),
(495,668,o),
(427,700,o),
(322,700,cs),
(95,700,l),
(99,461,o),
(99,461,o),
(99,350,cs),
(99,239,o),
(99,239,o),
(95,0,c)
);
},
{
closed = 1;
nodes = (
(188,40,o),
(143,43,o),
(132,53,cs),
(122,62,o),
(121,75,o),
(121,350,cs),
(121,634,o),
(124,646,o),
(133,653,cs),
(142,660,o),
(183,661,o),
(312,661,cs),
(435,661,o),
(492,622,o),
(519,566,cs),
(548,506,o),
(548,425,o),
(548,350,cs),
(548,275,o),
(548,198,o),
(519,138,cs),
(492,82,o),
(435,40,o),
(312,40,cs)
);
}
);
width = 624;
}
);
metricLeft = H;
metricRight = O;
unicode = 68;
userData = {
KernOnName = D;
};
}
{
glyphname = E;
kernLeft = KO_H;
kernRight = KO_E;
layers = (
{
anchors = (
{
name = bottom;
pos = (288,0);
},
{
name = ogonek;
pos = (494,0);
},
{
name = top;
pos = (295,700);
},
{
name = topleft;
pos = (95,700);
}
);
background = {
shapes = (
{
pos = (-83,0);
ref = I;
}
);
};
layerId = "60D037D9-62E9-4843-B070-F1594CB0B0D1";
shapes = (
{
closed = 1;
nodes = (
(494,0,l),
(494,36,l),
(440,36,o),
(366,36,o),
(288,36,cs),
(150,36,o),
(141,36,o),
(133,42,cs),
(123,50,o),
(121,65,o),
(121,195,cs),
(121,325,o),
(123,340,o),
(133,348,cs),
(141,354,o),
(150,354,o),
(241,354,cs),
(312,354,o),
(312,354,o),
(466,351,c),
(466,387,l),
(312,384,o),
(312,384,o),
(241,384,cs),
(150,384,o),
(141,384,o),
(133,390,cs),
(123,398,o),
(121,413,o),
(121,524,cs),
(121,635,o),
(123,650,o),
(133,658,cs),
(141,664,o),
(150,664,o),
(288,664,cs),
(363,664,o),
(438,664,o),
(486,664,c),
(486,700,l),
(95,700,l),
(99,461,o),
(99,461,o),
(99,350,cs),
(99,239,o),
(99,239,o),
(95,0,c)
);
}
);
width = 544;
},
{
anchors = (
{
name = bottom;
pos = (310,0);
},
{
name = ogonek;
pos = (574,0);
},
{
name = top;
pos = (320,700);
},
{
name = topleft;
pos = (58,700);
}
);
layerId = m01;
shapes = (
{
closed = 1;
nodes = (
(574,0,l),
(574,249,l),
(431,245,o),
(431,245,o),
(330,245,cs),
(194,245,o),
(155,246,o),
(137,262,cs),
(129,269,o),
(127,278,o),
(127,286,cs),
(127,291,o),
(129,303,o),
(137,310,cs),
(155,324,o),
(194,324,o),
(330,324,cs),
(381,324,o),
(381,324,o),
(534,321,c),
(534,396,l),
(381,393,o),
(381,393,o),
(330,393,cs),
(194,393,o),
(149,394,o),
(135,406,cs),
(129,411,o),
(127,416,o),
(127,424,cs),
(127,432,o),
(129,437,o),
(135,442,cs),
(149,454,o),
(194,455,o),
(330,455,cs),
(426,455,o),
(426,455,o),
(569,452,c),
(572,700,l),
(58,700,l),
(61,461,o),
(61,461,o),
(61,350,cs),
(61,239,o),
(61,239,o),
(58,0,c)
);
}
);
width = 610;
}
);
metricLeft = H;
metricRight = C;
unicode = 69;
userData = {
KernOnName = E;
};
}
{
glyphname = F;
kernLeft = KO_H;
kernRight = KO_F;
layers = (
{
anchors = (
{
name = bottom;
pos = (315,0);
},
{
name = top;
pos = (315,700);
}
);
background = {
shapes = (
{
pos = (1,0);
ref = E;
}
);
};
layerId = m01;
shapes = (
{
closed = 1;
nodes = (
(144,0,l),
(138,80,o),
(134,152,o),
(134,205,cs),
(134,240,o),
(137,255,o),
(146,266,cs),
(165,288,o),
(199,293,o),
(335,293,cs),
(386,293,o),
(386,293,o),
(539,290,c),
(539,365,l),
(386,362,o),
(386,362,o),
(335,362,cs),
(199,362,o),
(157,368,o),
(140,382,cs),
(133,388,o),
(129,397,o),
(129,408,cs),
(129,419,o),
(133,429,o),
(140,435,cs),
(157,449,o),
(199,455,o),
(335,455,cs),
(420,455,o),
(420,455,o),
(563,452,c),
(566,701,l),
(58,701,l),
(62,462,o),
(62,462,o),
(62,351,cs),
(62,240,o),
(62,240,o),
(58,0,c)
);
}
);
width = 602;
},
{
anchors = (
{
name = bottom;
pos = (323,0);
},
{
name = top;
pos = (323,700);
}
);
background = {
shapes = (
{
pos = (13,0);
ref = E;
}
);
};
layerId = "60D037D9-62E9-4843-B070-F1594CB0B0D1";
shapes = (
{
closed = 1;
nodes = (
(129,0,l),
(124,121,o),
(122,198,o),
(122,246,cs),
(122,312,o),
(122,328,o),
(132,336,cs),
(140,342,o),
(149,343,o),
(236,343,cs),
(307,343,o),
(307,343,o),
(461,340,c),
(461,376,l),
(307,373,o),
(307,373,o),
(235,373,cs),
(149,373,o),
(140,373,o),
(132,379,cs),
(122,387,o),
(120,403,o),
(120,519,cs),
(120,635,o),
(122,650,o),
(132,658,cs),
(140,664,o),
(149,664,o),
(288,664,cs),
(366,664,o),
(425,664,o),
(476,664,c),
(476,700,l),
(95,700,l),
(99,461,o),
(99,461,o),
(99,350,cs),
(99,239,o),
(99,239,o),
(95,0,c)
);
}
);
width = 526;
}
);
metricLeft = H;
metricRight = C;
unicode = 70;
userData = {
KernOnName = F;
};
}
{
glyphname = G;
kernLeft = KO_C;
kernRight = KO_G;
layers = (
{
anchors = (
{
name = bottom;
pos = (354,0);
},
{
name = center;
pos = (344,350);
},
{
name = hook;
pos = (592,677);
},
{
name = stroke;
pos = (522,306);
},
{
name = top;
pos = (357,700);
}
);
background = {
shapes = (
{
ref = C;
}
);
};
layerId = m01;
shapes = (
{
closed = 1;
nodes = (
(461,-10,o),
(550,1,o),
(591,30,c),
(591,143,o),
(595,254,o),
(602,364,c),
(519,364,l),
(522,341,o),
(526,286,o),
(526,260,c),
(483,253,o),
(420,245,o),
(335,245,cs),
(248,245,o),
(176,256,o),
(143,281,cs),
(122,297,o),
(112,320,o),
(112,350,cs),
(112,380,o),
(122,403,o),
(143,419,cs),
(176,444,o),
(248,455,o),
(335,455,cs),
(452,455,o),
(546,440,o),
(592,430,c),
(592,680,l),
(556,692,o),
(470,710,o),
(397,710,cs),
(154,710,o),
(42,597,o),
(42,350,cs),
(42,103,o),
(138,-10,o),
(394,-10,cs)
);
}
);
width = 644;
},
{
anchors = (
{
name = bottom;
pos = (322,0);
},
{
name = center;
pos = (319,350);
},
{
name = hook;
pos = (519,680);
},
{
name = stroke;
pos = (482,159);
},
{
name = top;
pos = (331,700);
}
);
background = {
shapes = (
{
ref = C;
}
);
};
layerId = "60D037D9-62E9-4843-B070-F1594CB0B0D1";
shapes = (
{
closed = 1;
nodes = (
(412,-16,o),
(493,0,o),
(527,18,c),
(527,150,o),
(527,150,o),
(531,287,c),
(496,287,l),
(500,150,o),
(500,150,o),
(500,48,c),
(475,33,o),
(404,21,o),
(351,21,cs),
(278,21,o),
(219,44,o),
(175,84,cs),
(110,142,o),
(77,235,o),
(77,350,cs),
(77,463,o),
(109,549,o),
(163,605,cs),
(209,652,o),
(274,679,o),
(349,679,cs),
(403,679,o),
(459,665,o),
(519,638,c),
(519,688,l),
(470,706,o),
(411,716,o),
(361,716,cs),
(174,716,o),
(54,575,o),
(54,350,cs),
(54,130,o),
(168,-16,o),
(352,-16,cs)
);
}
);
width = 585;
}
);
metricLeft = C;
metricRight = O;
unicode = 71;
userData = {
KernOnName = G;
};
}
{
glyphname = H;
kernLeft = KO_H;
kernRight = KO_H;
layers = (
{
anchors = (
{
name = bottom;
pos = (347,0);
},
{
name = center;
pos = (347,588);
},
{
name = hook;
pos = (58,700);
},
{
name = top;
pos = (347,700);
},
{
name = topleft;
pos = (58,700);
}
);
background = {
shapes = (
{
ref = O;
}
);
};
layerId = m01;
shapes = (
{
closed = 1;
nodes = (
(142,0,l),
(139,69,o),
(139,83,o),
(139,121,cs),
(139,214,o),
(152,222,o),
(347,222,cs),
(542,222,o),
(555,214,o),
(555,121,cs),
(555,83,o),
(555,69,o),
(552,0,c),
(636,0,l),
(629,239,o),
(629,239,o),
(629,350,cs),
(629,461,o),
(629,461,o),
(636,700,c),
(554,700,l),
(557,621,o),
(557,593,o),
(557,563,cs),
(557,514,o),
(544,510,o),
(347,510,cs),
(150,510,o),
(137,514,o),
(137,563,cs),
(137,593,o),
(137,621,o),
(140,700,c),
(58,700,l),
(65,461,o),
(65,461,o),
(65,350,cs),
(65,239,o),
(65,239,o),
(58,0,c)
);
}
);
width = 694;
},
{
anchors = (
{
name = bottom;
pos = (334,0);
},
{
name = center;
pos = (334,519);
},
{
name = hook;
pos = (95,700);
},
{
name = top;
pos = (334,700);
},
{
name = topleft;
pos = (93,700);
}
);
background = {
shapes = (
{
pos = (16,0);
ref = O;
},
{
pos = (18,0);
ref = E;
}
);
};
layerId = "60D037D9-62E9-4843-B070-F1594CB0B0D1";
shapes = (
{
closed = 1;
nodes = (
(126,0,l),
(123,219,o),
(123,219,o),
(123,319,cs),
(123,350,o),
(135,350,o),
(334,350,cs),
(533,350,o),
(545,350,o),
(545,319,cs),
(545,219,o),
(545,219,o),
(542,0,c),
(573,0,l),
(568,239,o),
(568,239,o),
(568,350,cs),
(568,461,o),
(568,461,o),
(573,700,c),
(542,700,l),
(545,519,o),
(545,519,o),
(545,419,cs),
(545,388,o),
(533,388,o),
(334,388,cs),
(135,388,o),
(123,388,o),
(123,419,cs),
(123,519,o),
(123,519,o),
(126,700,c),
(95,700,l),
(100,461,o),
(100,461,o),
(100,350,cs),
(100,239,o),
(100,239,o),
(95,0,c)
);
}
);
width = 668;
}
);
unicode = 72;
userData = {
KernOnName = H;
};
}
{
glyphname = I;
kernLeft = KO_I;
kernRight = KO_I;
layers = (
{
anchors = (
{
name = bottom;
pos = (253,0);
},
{
name = center;
pos = (252,350);
},
{
name = ogonek;
pos = (445,0);
},
{
name = top;
pos = (253,700);
},
{
name = topleft;
pos = (58,700);
}
);
background = {
shapes = (
{
pos = (-94,0);
ref = O;
}
);
};
layerId = m01;
shapes = (
{
closed = 1;
nodes = (
(445,0,l),
(445,248,l),
(415,246,o),
(392,245,o),
(374,245,cs),
(337,245,o),
(320,249,o),
(309,256,cs),
(289,269,o),
(285,284,o),
(285,350,cs),
(285,416,o),
(289,431,o),
(309,444,cs),
(320,451,o),
(337,455,o),
(374,455,cs),
(392,455,o),
(415,454,o),
(445,452,c),
(445,700,l),
(58,700,l),
(58,452,l),
(88,454,o),
(111,455,o),
(129,455,cs),
(166,455,o),
(183,451,o),
(194,444,cs),
(214,431,o),
(218,416,o),
(218,350,cs),
(218,284,o),
(214,269,o),
(194,256,cs),
(183,249,o),
(166,245,o),
(129,245,cs),
(111,245,o),
(88,246,o),
(58,248,c),
(58,0,l)
);
}
);
width = 503;
},
{
anchors = (
{
name = bottom;
pos = (163,0);
},
{
name = center;
pos = (163,350);
},
{
name = ogonek;
pos = (283,0);
},
{
name = top;
pos = (163,700);
},
{
name = topleft;
pos = (42,700);
}
);
background = {
shapes = (
{
pos = (-72,0);
ref = one;
}
);
};
layerId = "60D037D9-62E9-4843-B070-F1594CB0B0D1";
shapes = (
{
closed = 1;
nodes = (
(283,0,l),
(283,36,l),
(265,36,o),
(250,36,o),
(238,36,cs),
(199,36,o),
(191,37,o),
(185,42,cs),
(175,50,o),
(174,65,o),
(174,350,cs),
(174,635,o),
(176,650,o),
(186,658,cs),
(192,663,o),
(200,664,o),
(239,664,cs),
(251,664,o),
(266,664,o),
(284,664,c),
(284,700,l),
(42,700,l),
(42,664,l),
(60,664,o),
(75,664,o),
(87,664,cs),
(126,664,o),
(134,663,o),
(140,658,cs),
(150,650,o),
(152,635,o),
(152,350,cs),
(152,65,o),
(150,50,o),
(140,42,cs),
(134,37,o),
(126,36,o),
(87,36,cs),
(75,36,o),
(60,36,o),
(42,36,c),
(42,0,l)
);
}
);
width = 326;
}
);
unicode = 73;
userData = {
KernOnName = I;
};
}
{
glyphname = J;
kernLeft = KO_J;
kernRight = KO_J;
layers = (
{
anchors = (
{
name = bottom;
pos = (243,0);
},
{
name = center;
pos = (312,350);
},
{
name = top;
pos = (306,700);
}
);
background = {
shapes = (
{
pos = (76,0);
ref = I;
}
);
};
layerId = m01;
shapes = (
{
closed = 1;
nodes = (
(63,-1,o),
(131,-8,o),
(193,-8,cs),
(295,-8,o),
(347,43,o),
(347,190,cs),
(347,350,ls),
(347,419,o),
(351,431,o),
(371,444,cs),
(381,451,o),
(398,455,o),
(435,455,cs),
(453,455,o),
(476,454,o),
(506,452,c),
(506,700,l),
(119,700,l),
(119,452,l),
(149,454,o),
(172,455,o),
(190,455,cs),
(227,455,o),
(244,451,o),
(254,444,cs),
(274,431,o),
(278,419,o),
(278,350,cs),
(278,271,o),
(278,223,o),
(197,223,cs),
(142,223,o),
(85,236,o),
(36,252,c),
(36,5,l)
);
}
);
width = 530;
},
{
anchors = (
{
name = bottom;
pos = (208,0);
},
{
name = center;
pos = (236,350);
},
{
name = top;
pos = (231,700);
}
);
background = {
shapes = (
{
pos = (30,0);
ref = I;
}
);
};
layerId = "60D037D9-62E9-4843-B070-F1594CB0B0D1";
shapes = (
{
closed = 1;
nodes = (
(45,-5,o),
(92,-16,o),
(118,-16,cs),
(224,-16,o),
(247,43,o),
(247,148,cs),
(247,259,ls),
(247,635,o),
(249,650,o),
(259,658,cs),
(265,663,o),
(273,664,o),
(312,664,cs),
(324,664,o),
(339,664,o),
(357,664,c),
(357,700,l),
(115,700,l),
(115,664,l),
(133,664,o),
(148,664,o),
(160,664,cs),
(199,664,o),
(207,663,o),
(213,658,cs),
(223,650,o),
(225,635,o),
(225,259,cs),
(225,69,o),
(224,21,o),
(127,21,cs),
(93,21,o),
(60,29,o),
(20,51,c),
(20,8,l)
);
}
);
width = 399;
}
);
unicode = 74;
userData = {
KernOnName = J;
};
}
{
glyphname = K;
kernLeft = KO_H;
kernRight = KO_K;
layers = (
{
anchors = (
{
name = bottom;
pos = (314,0);
},
{
name = hook;
pos = (550,700);
},
{
name = stroke;
pos = (114,551);
},
{
name = top;
pos = (314,700);
}
);
background = {
shapes = (
{
closed = 1;
nodes = (
(128,0,l),
(126,82,o),
(123,258,o),
(123,274,cs),
(123,314,o),
(123,326,o),
(131,331,cs),
(141,336,o),
(157,340,o),
(384,342,c),
(463,53,o),
(490,30,o),
(514,13,cs),
(525,5,o),
(539,-1,o),
(549,-3,cs),
(564,-6,o),
(570,-6,o),
(581,-5,c),
(581,42,l),
(566,38,o),
(546,37,o),
(527,51,cs),
(496,73,o),
(460,148,o),
(408,346,c),
(428,354,o),
(446,340,o),
(568,700,c),
(533,700,l),
(494,571,o),
(475,511,o),
(459,470,cs),
(433,405,o),
(425,387,o),
(389,383,cs),
(367,378,o),
(273,378,o),
(243,378,cs),
(150,378,o),
(141,378,o),
(131,386,cs),
(126,392,o),
(126,401,o),
(126,437,cs),
(126,493,o),
(126,647,o),
(128,700,c),
(96,700,l),
(100,592,o),
(101,482,o),
(101,361,cs),
(101,250,o),
(99,132,o),
(96,0,c)
);
},
{
pos = (14,0);
ref = B;
},
{
closed = 1;
nodes = (
(565,-6,o),
(578,-4,o),
(589,0,c),
(589,41,l),
(575,37,o),
(563,35,o),
(548,35,cs),
(491,35,o),
(421,93,o),
(317,343,c),
(384,343,o),
(411,343,o),
(428,354,cs),
(444,364,o),
(461,382,o),
(566,700,c),
(532,700,l),
(514,631,o),
(502,587,o),
(464,480,cs),
(447,432,o),
(426,395,o),
(415,387,cs),
(403,378,o),
(391,378,o),
(241,378,cs),
(148,378,o),
(139,378,o),
(129,386,cs),
(124,392,o),
(123,401,o),
(123,437,cs),
(123,493,o),
(123,493,o),
(126,700,c),
(96,700,l),
(99,461,o),
(99,461,o),
(99,350,cs),
(99,239,o),
(99,239,o),
(96,0,c),
(126,0,l),
(123,82,o),
(121,258,o),
(121,274,cs),
(121,319,o),
(121,330,o),
(129,336,cs),
(138,343,o),
(155,343,o),
(292,343,c),
(390,97,o),
(465,-6,o),
(541,-6,cs)
);
}
);
};
layerId = "60D037D9-62E9-4843-B070-F1594CB0B0D1";
shapes = (
{
closed = 1;
nodes = (
(127,0,l),
(124,82,o),
(121,258,o),
(121,274,cs),
(121,319,o),
(121,330,o),
(129,336,cs),
(138,343,o),
(155,343,o),
(293,343,c),
(382,97,o),
(421,-8,o),
(541,-8,cs),
(565,-8,o),
(578,-5,o),
(589,-1,c),
(589,41,l),
(575,35,o),
(558,32,o),
(543,32,cs),
(456,32,o),
(410,93,o),
(318,343,c),
(358,345,o),
(385,362,o),
(403,386,cs),
(414,401,o),
(436,432,o),
(565,700,c),
(524,700,l),
(499,631,o),
(491,613,o),
(443,509,cs),
(421,461,o),
(395,412,o),
(372,395,cs),
(354,382,o),
(341,378,o),
(241,378,cs),
(148,378,o),
(139,378,o),
(129,386,cs),
(124,392,o),
(123,401,o),
(123,437,cs),
(123,493,o),
(123,493,o),
(127,700,c),
(95,700,l),
(99,461,o),
(99,461,o),
(99,350,cs),
(99,239,o),
(99,239,o),
(95,0,c)
);
}
);
width = 625;
},
{
anchors = (
{
name = bottom;
pos = (305,0);
},
{
name = hook;
pos = (588,700);
},
{
name = stroke;
pos = (98,583);
},
{
name = top;
pos = (305,700);
}
);
background = {
shapes = (
{
closed = 1;
nodes = (
(138,0,l),
(136,36,o),
(134,118,o),
(134,152,cs),
(134,170,o),
(132,208,o),
(140,228,cs),
(156,265,o),
(195,269,o),
(225,268,c),
(226,185,o),
(263,105,o),
(311,52,cs),
(352,15,o),
(409,-8,o),
(483,-8,cs),
(516,-8,o),
(599,1,o),
(624,13,c),
(624,275,l),
(597,250,o),
(508,215,o),
(427,215,cs),
(351,215,o),
(309,242,o),
(294,270,c),
(533,274,o),
(576,298,o),
(611,700,c),
(522,700,l),
(522,626,o),
(523,617,o),
(519,560,cs),
(517,536,o),
(515,519,o),
(501,508,cs),
(480,492,o),
(433,488,o),
(321,488,cs),
(212,488,o),
(168,492,o),
(149,507,cs),
(136,518,o),
(135,535,o),
(136,560,cs),
(137,602,o),
(139,645,o),
(140,700,c),
(58,701,l),
(62,233,o),
(59,117,o),
(55,0,c)
);
}
);
};
layerId = m01;
shapes = (
{
closed = 1;
nodes = (
(141,0,l),
(138,36,o),
(134,118,o),
(134,152,cs),
(134,196,o),
(136,226,o),
(149,244,cs),
(162,261,o),
(184,268,o),
(225,268,c),
(225,136,o),
(299,-8,o),
(483,-8,cs),
(516,-8,o),
(599,1,o),
(624,13,c),
(624,275,l),
(586,242,o),
(489,215,o),
(427,215,cs),
(351,215,o),
(309,242,o),
(294,270,c),
(347,270,o),
(440,271,o),
(492,304,cs),
(562,348,o),
(585,452,o),
(607,700,c),
(514,700,l),
(514,669,o),
(514,602,o),
(514,560,cs),
(514,535,o),
(514,518,o),
(501,507,cs),
(483,491,o),
(442,488,o),
(325,488,cs),
(208,488,o),
(167,491,o),
(149,507,cs),
(136,518,o),
(136,535,o),
(136,560,cs),
(136,602,o),
(137,645,o),
(140,700,c),
(58,700,l),
(61,461,o),
(61,461,o),
(61,350,cs),
(61,239,o),
(61,239,o),
(58,0,c)
);
}
);
width = 648;
}
);
metricLeft = H;
unicode = 75;
userData = {
KernOnName = K;
};
}
{
glyphname = L;
kernLeft = KO_H;
kernRight = KO_L;
layers = (
{
anchors = (
{
name = bottom;
pos = (276,0);
},
{
name = center;
pos = (115,443);
},
{
name = top;
pos = (277,700);
},
{
name = topright;
pos = (363,700);
}
);
background = {
shapes = (
{
pos = (-4,0);
ref = E;
}
);
};
layerId = m01;
shapes = (
{
closed = 1;
nodes = (
(494,248,l),
(465,247,o),
(307,245,o),
(277,245,cs),
(184,245,o),
(163,248,o),
(150,258,cs),
(139,266,o),
(137,278,o),
(137,296,cs),
(137,327,o),
(140,481,o),
(145,700,c),
(58,700,l),
(61,461,o),
(61,461,o),
(61,350,cs),
(61,239,o),
(61,239,o),
(58,0,c),
(494,0,l)
);
}
);
width = 522;
},
{
anchors = (
{
name = bottom;
pos = (250,0);
},
{
name = center;
pos = (113,397);
},
{
name = top;
pos = (272,700);
},
{
name = topright;
pos = (373,700);
}
);
layerId = "60D037D9-62E9-4843-B070-F1594CB0B0D1";
shapes = (
{
closed = 1;
nodes = (
(421,37,l),
(304,37,o),
(254,37,o),
(179,37,cs),
(152,37,o),
(143,37,o),
(135,43,cs),
(125,51,o),
(123,66,o),
(123,107,cs),
(123,307,o),
(124,477,o),
(128,701,c),
(95,701,l),
(99,462,o),
(99,461,o),
(99,350,cs),
(99,239,o),
(99,239,o),
(96,0,c),
(421,0,l)
);
}
);
width = 433;
}
);
metricLeft = H;
unicode = 76;
userData = {
KernOnName = L;
};
}
{
glyphname = M;
kernLeft = KO_H;
kernRight = KO_H;
layers = (
{
anchors = (
{
name = bottom;
pos = (414,0);
},
{
name = top;
pos = (414,700);
}
);
background = {
shapes = (
{
pos = (67,0);
ref = O;
}
);
};
layerId = m01;
shapes = (
{
closed = 1;
nodes = (
(141,0,l),
(137,97,o),
(135,192,o),
(135,259,cs),
(135,298,o),
(139,313,o),
(154,326,cs),
(164,335,o),
(187,339,o),
(220,339,cs),
(254,339,o),
(276,338,o),
(294,322,cs),
(322,297,o),
(331,271,o),
(367,0,c),
(461,0,l),
(497,271,o),
(506,297,o),
(534,322,cs),
(552,338,o),
(574,339,o),
(608,339,cs),
(641,339,o),
(664,335,o),
(674,326,cs),
(689,313,o),
(693,298,o),
(693,259,cs),
(693,192,o),
(691,97,o),
(687,0,c),
(770,0,l),
(767,239,o),
(767,239,o),
(767,350,cs),
(767,461,o),
(767,461,o),
(770,700,c),
(475,700,l),
(458,381,o),
(453,353,o),
(414,353,cs),
(375,353,o),
(370,381,o),
(353,700,c),
(58,700,l),
(61,461,o),
(61,461,o),
(61,350,cs),
(61,239,o),
(61,239,o),
(58,0,c)
);
}
);
width = 828;
},
{
anchors = (
{
name = bottom;
pos = (402,0);
},
{
name = top;
pos = (402,700);
}
);
background = {
shapes = (
{
closed = 1;
nodes = (
(166,0,l),
(162,207,o),
(161,349,o),
(161,446,cs),
(161,633,o),
(163,644,o),
(176,655,cs),
(182,660,o),
(191,661,o),
(224,661,cs),
(261,661,o),
(274,660,o),
(280,654,cs),
(291,643,o),
(294,632,o),
(390,134,c),
(478,134,l),
(574,632,o),
(577,643,o),
(588,654,cs),
(594,660,o),
(607,661,o),
(644,661,cs),
(677,661,o),
(686,660,o),
(692,655,cs),
(705,644,o),
(707,633,o),
(707,447,cs),
(707,350,o),
(705,207,o),
(702,0,c),
(732,0,l),
(729,239,o),
(729,239,o),
(729,350,cs),
(729,461,o),
(729,461,o),
(732,700,c),
(564,700,l),
(464,170,o),
(464,170,o),
(434,170,cs),
(404,170,o),
(404,170,o),
(304,700,c),
(136,700,l),
(139,461,o),
(139,461,o),
(139,350,cs),
(139,239,o),
(139,239,o),
(136,0,c)
);
},
{
pos = (94,0);
ref = O;
}
);
};
layerId = "60D037D9-62E9-4843-B070-F1594CB0B0D1";
shapes = (
{
closed = 1;
nodes = (
(128,0,l),
(124,207,o),
(122,349,o),
(122,446,cs),
(122,633,o),
(124,644,o),
(137,655,cs),
(143,660,o),
(152,661,o),
(186,661,cs),
(222,661,o),
(235,660,o),
(242,654,cs),
(253,644,o),
(276,498,o),
(354,0,c),
(449,0,l),
(527,498,o),
(550,644,o),
(561,654,cs),
(568,660,o),
(581,661,o),
(617,661,cs),
(651,661,o),
(660,660,o),
(666,655,cs),
(679,644,o),
(681,633,o),
(681,447,cs),
(681,350,o),
(679,207,o),
(675,0,c),
(708,0,l),
(704,239,o),
(704,239,o),
(704,350,cs),
(704,461,o),
(704,461,o),
(707,700,c),
(535,700,l),
(432,36,o),
(432,36,o),
(402,36,cs),
(371,36,o),
(371,36,o),
(268,700,c),
(96,700,l),
(99,461,o),
(99,461,o),
(99,350,cs),
(99,239,o),
(99,239,o),
(95,0,c)
);
}
);
width = 803;
}
);
metricLeft = H;
metricRight = H;
unicode = 77;
userData = {
KernOnName = M;
};
}
{
glyphname = N;
kernLeft = KO_H;
kernRight = KO_N;
layers = (
{
anchors = (
{
name = bottom;
pos = (314,0);
},
{
name = top;
pos = (314,700);
}
);
background = {
shapes = (
{
closed = 1;
nodes = (
(144,0,l),
(140,102,o),
(136,177,o),
(136,229,cs),
(136,276,o),
(138,295,o),
(143,317,cs),
(150,342,o),
(166,349,o),
(221,349,cs),
(270,349,o),
(290,342,o),
(312,316,cs),
(345,276,o),
(355,259,o),
(436,0,c),
(603,0,l),
(599,280,o),
(599,420,o),
(603,700,c),
(517,700,l),
(526,601,o),
(542,432,o),
(519,401,cs),
(509,387,o),
(496,383,o),
(464,383,cs),
(428,383,o),
(413,391,o),
(394,426,cs),
(367,477,o),
(346,534,o),
(299,700,c),
(58,700,l),
(62,420,o),
(62,280,o),
(58,0,c)
);
}
);
};
layerId = m01;
shapes = (
{
closed = 1;
nodes = (
(144,0,l),
(139,102,o),
(137,177,o),
(137,229,cs),
(137,276,o),
(138,296,o),
(143,317,cs),
(149,342,o),
(166,349,o),
(221,349,cs),
(270,349,o),
(290,342,o),
(312,316,cs),
(345,276,o),
(355,259,o),
(436,0,c),
(603,0,l),
(600,319,o),
(600,319,o),
(600,350,cs),
(600,381,o),
(600,381,o),
(603,700,c),
(517,700,l),
(523,639,o),
(527,551,o),
(527,485,cs),
(527,445,o),
(524,413,o),
(516,401,cs),
(506,387,o),
(496,383,o),
(464,383,cs),
(428,383,o),
(413,391,o),
(394,426,cs),
(367,477,o),
(346,534,o),
(299,700,c),
(58,700,l),
(61,381,o),
(61,381,o),
(61,350,cs),
(61,319,o),
(61,319,o),
(58,0,c)
);
}
);
width = 661;
},
{
anchors = (
{
name = bottom;
pos = (318,0);
},
{
name = top;
pos = (335,700);
}
);
background = {
shapes = (
{
pos = (2,0);
ref = M;
}
);
};
layerId = "60D037D9-62E9-4843-B070-F1594CB0B0D1";
shapes = (
{
closed = 1;
nodes = (
(128,0,l),
(121,224,o),
(121,449,o),
(121,538,cs),
(121,635,o),
(123,645,o),
(136,656,cs),
(142,661,o),
(151,662,o),
(184,662,cs),
(220,662,o),
(232,661,o),
(238,655,cs),
(249,644,o),
(252,633,o),
(421,0,c),
(569,0,l),
(566,239,o),
(566,239,o),
(566,350,cs),
(566,461,o),
(566,461,o),
(571,700,c),
(537,700,l),
(543,476,o),
(545,248,o),
(545,159,cs),
(545,53,o),
(540,47,o),
(533,41,cs),
(527,36,o),
(518,35,o),
(493,35,cs),
(462,35,o),
(450,36,o),
(444,42,cs),
(433,53,o),
(430,64,o),
(259,700,c),
(97,700,l),
(100,461,o),
(100,461,o),
(100,350,cs),
(100,239,o),
(100,239,o),
(94,0,c)
);
}
);
width = 659;
}
);
unicode = 78;
userData = {
KernOnName = N;
};
}
{
glyphname = O;
kernLeft = KO_O;
kernRight = KO_O;
layers = (
{
anchors = (
{
name = bottom;
pos = (347,0);
},
{
name = center;
pos = (347,350);
},
{
name = ogonek;
pos = (443,10);
},
{
name = top;
pos = (347,700);
},
{
name = topleft;
pos = (20,700);
},
{
name = topright;
pos = (423,704);
}
);
layerId = m01;
shapes = (
{
closed = 1;
nodes = (
(566,-10,o),
(652,95,o),
(652,350,cs),
(652,605,o),
(565,710,o),
(347,710,cs),
(129,710,o),
(42,605,o),
(42,350,cs),
(42,95,o),
(128,-10,o),
(347,-10,cs)
);
},
{
closed = 1;
nodes = (
(168,245,o),
(109,271,o),
(109,350,cs),
(109,429,o),
(168,455,o),
(347,455,cs),
(526,455,o),
(585,429,o),
(585,350,cs),
(585,271,o),
(526,245,o),
(347,245,cs)
);
}
);
width = 694;
},
{
anchors = (
{
name = bottom;
pos = (325,0);
},
{
name = center;
pos = (325,350);
},
{
name = ogonek;
pos = (445,10);
},
{
name = top;
pos = (325,700);
},
{
name = topleft;
pos = (5,700);
},
{
name = topright;
pos = (392,707);
}
);
layerId = "60D037D9-62E9-4843-B070-F1594CB0B0D1";
shapes = (
{
closed = 1;
nodes = (
(495,-16,o),
(596,103,o),
(596,350,cs),
(596,597,o),
(495,716,o),
(325,716,cs),
(155,716,o),
(54,597,o),
(54,350,cs),
(54,103,o),
(155,-16,o),
(325,-16,cs)
);
},
{
closed = 1;
nodes = (
(173,23,o),
(77,132,o),
(77,350,cs),
(77,568,o),
(173,677,o),
(325,677,cs),
(477,677,o),
(573,568,o),
(573,350,cs),
(573,132,o),
(477,23,o),
(325,23,cs)
);
}
);
width = 650;
}
);
unicode = 79;
userData = {
KernOnName = O;
};
}
{
glyphname = P;
kernLeft = KO_H;
kernRight = KO_P;
layers = (
{
anchors = (
{
name = bottom;
pos = (319,0);
},
{
name = center;
pos = (318,381);
},
{
name = hook;
pos = (69,700);
},
{
name = stroke;
pos = (137,381);
},
{
name = top;
pos = (319,700);
}
);
background = {
shapes = (
{
pos = (-1,-12);
ref = R.ss10;
}
);
};
layerId = m01;
shapes = (
{
closed = 1;
nodes = (
(140,0,l),
(135,61,o),
(133,104,o),
(133,135,cs),
(133,178,o),
(138,199,o),
(148,212,cs),
(165,235,o),
(186,245,o),
(337,245,cs),
(534,245,o),
(625,311,o),
(625,472,cs),
(625,620,o),
(541,700,o),
(408,700,cs),
(58,700,l),
(61,381,o),
(61,381,o),
(61,350,cs),
(61,319,o),
(61,319,o),
(58,0,c)
);
},
{
closed = 1;
nodes = (
(242,307,o),
(192,315,o),
(167,325,cs),
(140,336,o),
(131,357,o),
(131,381,cs),
(131,405,o),
(140,426,o),
(167,437,cs),
(192,447,o),
(242,455,o),
(318,455,cs),
(403,455,o),
(453,447,o),
(478,437,cs),
(505,426,o),
(515,405,o),
(515,381,cs),
(515,357,o),
(505,336,o),
(478,325,cs),
(453,315,o),
(403,307,o),
(318,307,cs)
);
}
);
width = 672;
},
{
anchors = (
{
name = bottom;
pos = (319,0);
},
{
name = center;
pos = (324,480);
},
{
name = hook;
pos = (96,700);
},
{
name = stroke;
pos = (110,477);
},
{
name = top;
pos = (286,700);
}
);
layerId = "60D037D9-62E9-4843-B070-F1594CB0B0D1";
shapes = (
{
closed = 1;
nodes = (
(127,0,l),
(123,109,o),
(123,109,o),
(123,157,cs),
(123,204,o),
(124,233,o),
(130,244,cs),
(139,260,o),
(166,260,o),
(310,260,cs),
(461,260,o),
(540,369,o),
(540,477,cs),
(540,610,o),
(461,700,o),
(310,700,cs),
(96,700,l),
(99,461,o),
(99,461,o),
(99,350,cs),
(99,239,o),
(99,239,o),
(95,0,c)
);
},
{
closed = 1;
nodes = (
(169,293,o),
(137,296,o),
(129,307,cs),
(123,315,o),
(122,337,o),
(122,477,cs),
(122,614,o),
(123,636,o),
(129,646,cs),
(137,660,o),
(148,661,o),
(306,661,cs),
(397,661,o),
(447,633,o),
(480,592,cs),
(505,561,o),
(518,522,o),
(518,477,cs),
(518,432,o),
(505,393,o),
(480,362,cs),
(449,324,o),
(405,293,o),
(306,293,cs)
);
}
);
width = 588;
}
);
metricLeft = H;
unicode = 80;
userData = {
KernOnName = P;
};
}
{
glyphname = Q;
kernLeft = KO_O;
kernRight = KO_O;
layers = (
{
anchors = (
{
name = bottom;
pos = (300,0);
},
{
name = top;
pos = (300,700);
}
);
background = {
shapes = (
{
ref = O;
}
);
};
layerId = m01;
shapes = (
{
closed = 1;
nodes = (
(621,-16,l),
(611,-21,o),
(549,-50,o),
(496,-50,cs),
(429,-50,o),
(395,-34,o),
(386,-9,c),
(568,6,o),
(652,95,o),
(652,350,cs),
(652,605,o),
(565,710,o),
(347,710,cs),
(129,710,o),
(42,605,o),
(42,350,cs),
(42,95,o),
(128,5,o),
(308,-9,c),
(312,-51,o),
(317,-98,o),
(346,-144,cs),
(382,-201,o),
(452,-233,o),
(517,-233,cs),
(556,-233,o),
(607,-221,o),
(621,-214,c)
);
},
{
closed = 1;
nodes = (
(170,245,o),
(110,271,o),
(110,350,cs),
(110,429,o),
(170,455,o),
(347,455,cs),
(524,455,o),
(584,429,o),
(584,350,cs),
(584,271,o),
(524,245,o),
(347,245,cs)
);
}
);
width = 694;
},
{
anchors = (
{
name = bottom;
pos = (297,0);
},
{
name = top;
pos = (297,700);
}
);
background = {
shapes = (
{
pos = (-17,0);
ref = O;
}
);
};
layerId = "60D037D9-62E9-4843-B070-F1594CB0B0D1";
shapes = (
{
closed = 1;
nodes = (
(553,-110,l),
(529,-120,o),
(496,-127,o),
(471,-127,cs),
(382,-127,o),
(331,-71,o),
(331,-8,c),
(492,-2,o),
(590,111,o),
(590,350,cs),
(590,589,o),
(492,708,o),
(322,708,cs),
(152,708,o),
(54,589,o),
(54,350,cs),
(54,111,o),
(152,-2,o),
(313,-8,c),
(313,-28,o),
(314,-54,o),
(328,-85,cs),
(351,-135,o),
(403,-163,o),
(478,-163,cs),
(498,-163,o),
(520,-162,o),
(553,-154,c)
);
},
{
closed = 1;
nodes = (
(170,31,o),
(76,140,o),
(76,350,cs),
(76,560,o),
(170,669,o),
(322,669,cs),
(474,669,o),
(568,560,o),
(568,350,cs),
(568,140,o),
(474,31,o),
(322,31,cs)
);
}
);
width = 644;
}
);
metricLeft = O;
metricRight = O;
unicode = 81;
}
{
glyphname = R;
kernLeft = KO_H;
kernRight = KO_R;
layers = (
{
anchors = (
{
name = bottom;
pos = (328,0);
},
{
name = stroke;
pos = (116,315);
},
{
name = top;
pos = (304,700);
}
);
background = {
shapes = (
{
closed = 1;
nodes = (
(126,0,l),
(123,82,o),
(122,186,o),
(122,228,cs),
(122,275,o),
(123,284,o),
(129,289,cs),
(138,296,o),
(169,299,o),
(362,299,c),
(433,50,o),
(459,30,o),
(481,13,cs),
(498,0,o),
(520,-6,o),
(537,-6,cs),
(540,-6,o),
(544,-6,o),
(548,-5,c),
(548,42,l),
(542,40,o),
(536,39,o),
(529,39,cs),
(518,39,o),
(506,42,o),
(494,51,cs),
(465,71,o),
(433,135,o),
(386,301,c),
(477,318,o),
(542,381,o),
(542,501,cs),
(542,626,o),
(455,700,o),
(343,700,cs),
(96,700,l),
(99,461,o),
(99,461,o),
(99,350,cs),
(99,239,o),
(99,239,o),
(96,0,c)
);
},
{
closed = 1;
nodes = (
(153,330,o),
(141,331,o),
(132,338,cs),
(123,345,o),
(120,357,o),
(120,496,cs),
(120,635,o),
(123,647,o),
(132,654,cs),
(141,661,o),
(153,662,o),
(249,662,cs),
(351,662,o),
(377,661,o),
(405,654,cs),
(451,642,o),
(520,604,o),
(520,496,cs),
(520,388,o),
(447,350,o),
(401,338,cs),
(373,331,o),
(337,330,o),
(249,330,cs)
);
},
{
ref = K;
}
);
};
layerId = "60D037D9-62E9-4843-B070-F1594CB0B0D1";
shapes = (
{
closed = 1;
nodes = (
(127,0,l),
(124,82,o),
(122,186,o),
(122,228,cs),
(122,275,o),
(123,284,o),
(129,289,cs),
(138,296,o),
(168,299,o),
(320,299,c),
(398,85,o),
(433,-8,o),
(541,-8,cs),
(565,-8,o),
(578,-4,o),
(589,0,c),
(589,42,l),
(575,36,o),
(556,32,o),
(543,32,cs),
(473,32,o),
(427,63,o),
(345,299,c),
(465,299,o),
(542,377,o),
(542,501,cs),
(542,626,o),
(455,700,o),
(343,700,cs),
(95,700,l),
(99,461,o),
(99,461,o),
(99,350,cs),
(99,239,o),
(99,239,o),
(95,0,c)
);
},
{
closed = 1;
nodes = (
(153,330,o),
(141,331,o),
(132,338,cs),
(123,345,o),
(120,357,o),
(120,496,cs),
(120,635,o),
(123,647,o),
(132,654,cs),
(141,661,o),
(153,662,o),
(249,662,cs),
(351,662,o),
(377,661,o),
(405,654,cs),
(451,642,o),
(520,604,o),
(520,496,cs),
(520,388,o),
(447,350,o),
(401,338,cs),
(373,331,o),
(337,330,o),
(249,330,cs)
);
}
);
width = 596;
},
{
anchors = (
{
name = bottom;
pos = (333,0);
},
{
name = stroke;
pos = (108,303);
},
{
name = top;
pos = (297,700);
}
);
background = {
shapes = (
{
ref = K;
}
);
};
layerId = m01;
shapes = (
{
closed = 1;
nodes = (
(141,0,l),
(138,36,o),
(134,118,o),
(134,152,cs),
(134,196,o),
(138,225,o),
(154,244,cs),
(170,263,o),
(196,268,o),
(234,268,c),
(234,97,o),
(346,-8,o),
(492,-8,cs),
(565,-8,o),
(609,2,o),
(635,13,c),
(635,272,l),
(592,240,o),
(507,215,o),
(433,215,cs),
(371,215,o),
(318,242,o),
(309,269,c),
(514,269,o),
(625,316,o),
(625,472,cs),
(625,640,o),
(541,700,o),
(408,700,cs),
(58,700,l),
(61,461,o),
(61,461,o),
(61,350,cs),
(61,239,o),
(61,239,o),
(58,0,c)
);
},
{
closed = 1;
nodes = (
(242,331,o),
(192,337,o),
(167,345,cs),
(140,354,o),
(131,374,o),
(131,394,cs),
(131,414,o),
(140,434,o),
(167,443,cs),
(192,451,o),
(242,457,o),
(318,457,cs),
(403,457,o),
(454,451,o),
(479,443,cs),
(506,434,o),
(515,414,o),
(515,394,cs),
(515,374,o),
(506,354,o),
(479,345,cs),
(454,337,o),
(403,331,o),
(318,331,cs)
);
}
);
width = 671;
}
);
metricLeft = H;
unicode = 82;
userData = {
KernOnName = R;
};
}
{
glyphname = S;
kernLeft = KO_S;
kernRight = KO_S;
layers = (
{
anchors = (
{
name = bottom;
pos = (311,0);
},
{
name = center;
pos = (326,350);
},
{
name = top;
pos = (311,700);
}
);
background = {
shapes = (
{
closed = 1;
nodes = (
(446,-10,o),
(558,54,o),
(558,185,cs),
(558,300,o),
(481,341,o),
(344,381,cs),
(276,401,o),
(235,406,o),
(235,433,cs),
(235,447,o),
(251,457,o),
(307,457,cs),
(362,457,o),
(426,453,o),
(524,427,c),
(524,687,l),
(488,696,o),
(402,710,o),
(327,710,cs),
(164,710,o),
(66,663,o),
(66,532,cs),
(66,424,o),
(149,383,o),
(257,351,cs),
(346,325,o),
(416,312,o),
(416,273,cs),
(416,253,o),
(387,241,o),
(299,241,cs),
(251,241,o),
(129,253,o),
(65,276,c),
(65,13,l),
(101,4,o),
(187,-10,o),
(262,-10,cs)
);
}
);
};
backgroundImage = {
imagePath = "../../../Downloads/IMG_7408.JPG";
locked = 1;
pos = (-859,-1771);
scale = (0.7854,0.7854);
};
layerId = m01;
shapes = (
{
closed = 1;
nodes = (
(101,4,o),
(187,-10,o),
(262,-10,cs),
(446,-10,o),
(558,60,o),
(558,189,cs),
(558,310,o),
(475,353,o),
(317,387,cs),
(243,403,o),
(212,411,o),
(212,432,cs),
(212,447,o),
(228,457,o),
(282,457,cs),
(337,457,o),
(426,453,o),
(524,427,c),
(524,687,l),
(488,696,o),
(402,710,o),
(327,710,cs),
(159,710,o),
(67,653,o),
(67,525,cs),
(67,393,o),
(166,359,o),
(319,327,cs),
(373,316,o),
(421,301,o),
(421,275,cs),
(421,253,o),
(395,240,o),
(327,240,cs),
(233,240,o),
(132,255,o),
(65,276,c),
(65,13,l)
);
}
);
width = 566;
},
{
anchors = (
{
name = bottom;
pos = (258,0);
},
{
name = center;
pos = (264,351);
},
{
name = top;
pos = (258,700);
}
);
background = {
shapes = (
{
pos = (567,0);
ref = C;
scale = (-1,1);
}
);
};
layerId = "60D037D9-62E9-4843-B070-F1594CB0B0D1";
shapes = (
{
closed = 1;
nodes = (
(106,-6,o),
(162,-16,o),
(215,-16,cs),
(362,-16,o),
(454,56,o),
(454,174,cs),
(454,265,o),
(396,329,o),
(265,385,cs),
(136,440,o),
(90,486,o),
(90,549,cs),
(90,628,o),
(157,678,o),
(264,678,cs),
(320,678,o),
(378,665,o),
(418,644,c),
(418,690,l),
(374,706,o),
(321,716,o),
(271,716,cs),
(145,716,o),
(65,652,o),
(65,551,cs),
(65,469,o),
(119,419,o),
(256,360,cs),
(376,308,o),
(427,253,o),
(427,177,cs),
(427,82,o),
(351,23,o),
(230,23,cs),
(169,23,o),
(102,38,o),
(60,59,c),
(60,13,l)
);
}
);
width = 506;
}
);
unicode = 83;
userData = {
KernOnName = S;
};
}
{
glyphname = T;
kernLeft = KO_T;
kernRight = KO_T;
layers = (
{
anchors = (
{
name = bottom;
pos = (286,0);
},
{
name = center;
pos = (286,294);
},
{
name = hook;
pos = (12,700);
},
{
name = top;
pos = (286,700);
}
);
background = {
shapes = (
{
closed = 1;
nodes = (
(329,0,l),
(325,120,o),
(324,281,o),
(324,394,cs),
(324,426,o),
(324,441,o),
(351,447,cs),
(368,451,o),
(401,453,o),
(482,450,cs),
(560,447,l),
(560,699,l),
(12,699,l),
(12,447,l),
(90,450,ls),
(171,453,o),
(204,451,o),
(221,447,cs),
(248,441,o),
(248,426,o),
(248,394,cs),
(248,281,o),
(247,120,o),
(243,0,c)
);
}
);
};
layerId = m01;
shapes = (
{
closed = 1;
nodes = (
(329,0,l),
(325,120,o),
(324,281,o),
(324,394,cs),
(324,426,o),
(324,440,o),
(351,447,cs),
(362,450,o),
(381,451,o),
(416,451,cs),
(434,451,o),
(455,451,o),
(560,447,c),
(560,700,l),
(12,700,l),
(12,447,l),
(117,451,o),
(138,451,o),
(156,451,cs),
(191,451,o),
(210,450,o),
(221,447,cs),
(248,440,o),
(248,426,o),
(248,394,cs),
(248,281,o),
(247,120,o),
(243,0,c)
);
}
);
width = 572;
},
{
anchors = (
{
name = bottom;
pos = (252,0);
},
{
name = center;
pos = (252,350);
},
{
name = hook;
pos = (12,700);
},
{
name = top;
pos = (252,700);
}
);
background = {
shapes = (
{
closed = 1;
nodes = (
(268,0,l),
(265,294,o),
(263,542,o),
(263,604,cs),
(263,636,o),
(265,651,o),
(275,659,cs),
(283,665,o),
(292,667,o),
(423,665,cs),
(491,664,l),
(491,700,l),
(12,700,l),
(12,664,l),
(80,665,ls),
(211,667,o),
(220,665,o),
(228,659,cs),
(238,651,o),
(240,636,o),
(240,604,cs),
(240,542,o),
(239,294,o),
(236,0,c)
);
}
);
};
layerId = "60D037D9-62E9-4843-B070-F1594CB0B0D1";
shapes = (
{
closed = 1;
nodes = (
(269,0,l),
(264,267,o),
(263,542,o),
(263,604,cs),
(263,636,o),
(265,651,o),
(275,659,cs),
(281,664,o),
(287,666,o),
(345,666,cs),
(364,666,o),
(429,666,o),
(491,664,c),
(491,700,l),
(12,700,l),
(12,664,l),
(74,666,o),
(139,666,o),
(158,666,cs),
(216,666,o),
(222,664,o),
(228,659,cs),
(238,651,o),
(240,636,o),
(240,604,cs),
(240,542,o),
(239,267,o),
(235,0,c)
);
}
);
width = 503;
}
);
unicode = 84;
userData = {
KernOnName = T;
};
}
{
glyphname = U;
kernLeft = KO_U;
kernRight = KO_U;
layers = (
{
anchors = (
{
name = bottom;
pos = (313,0);
},
{
name = center;
pos = (313,346);
},
{
name = ogonek;
pos = (392,10);
},
{
name = top;
pos = (323,700);
},
{
name = topright;
pos = (496,700);
}
);
layerId = m01;
shapes = (
{
closed = 1;
nodes = (
(514,-10,o),
(578,59,o),
(578,302,cs),
(578,435,o),
(578,435,o),
(581,700,c),
(496,700,l),
(499,607,o),
(501,514,o),
(501,421,cs),
(501,334,o),
(488,326,o),
(311,326,cs),
(135,326,o),
(122,334,o),
(122,421,cs),
(122,514,o),
(124,607,o),
(127,700,c),
(42,700,l),
(45,440,o),
(45,440,o),
(45,310,cs),
(45,56,o),
(102,-10,o),
(311,-10,cs)
);
}
);
width = 623;
},
{
anchors = (
{
name = bottom;
pos = (292,0);
},
{
name = center;
pos = (292,345);
},
{
name = ogonek;
pos = (375,0);
},
{
name = top;
pos = (292,700);
},
{
name = topright;
pos = (486,700);
}
);
background = {
shapes = (
{
pos = (-7,0);
ref = H;
}
);
};
layerId = "60D037D9-62E9-4843-B070-F1594CB0B0D1";
shapes = (
{
closed = 1;
nodes = (
(479,-11,o),
(513,119,o),
(513,233,cs),
(513,273,o),
(515,516,o),
(519,700,c),
(486,700,l),
(489,538,o),
(490,376,o),
(490,214,cs),
(490,95,o),
(412,28,o),
(292,28,cs),
(172,28,o),
(94,95,o),
(94,214,cs),
(94,376,o),
(95,538,o),
(98,700,c),
(65,700,l),
(69,516,o),
(71,273,o),
(71,233,cs),
(71,115,o),
(107,-11,o),
(292,-11,cs)
);
}
);
width = 584;
}
);
unicode = 85;
userData = {
KernOnName = U;
};
}
{
glyphname = V;
kernLeft = KO_V;
kernRight = KO_V;
layers = (
{
anchors = (
{
name = bottom;
pos = (323,0);
},
{
name = top;
pos = (323,700);
}
);
layerId = m01;
shapes = (
{
closed = 1;
nodes = (
(524,0,l),
(550,224,o),
(577,452,o),
(616,700,c),
(523,700,l),
(519,623,o),
(508,423,o),
(493,356,cs),
(486,324,o),
(470,319,o),
(323,319,cs),
(176,319,o),
(160,324,o),
(153,356,cs),
(138,423,o),
(127,623,o),
(123,700,c),
(30,700,l),
(69,452,o),
(96,224,o),
(122,0,c)
);
}
);
width = 646;
},
{
anchors = (
{
name = bottom;
pos = (304,0);
},
{
name = top;
pos = (304,700);
}
);
layerId = "60D037D9-62E9-4843-B070-F1594CB0B0D1";
shapes = (
{
closed = 1;
nodes = (
(423,0,l),
(457,232,o),
(504,468,o),
(554,700,c),
(519,700,l),
(483,490,o),
(447,282,o),
(404,70,cs),
(398,39,o),
(390,37,o),
(304,37,cs),
(218,37,o),
(210,39,o),
(204,70,cs),
(161,282,o),
(125,490,o),
(89,700,c),
(54,700,l),
(104,468,o),
(151,232,o),
(185,0,c)
);
}
);
width = 608;
}
);
metricLeft = A;
metricRight = A;
unicode = 86;
userData = {
KernOnName = V;
};
}
{
glyphname = W;
kernLeft = KO_W;
kernRight = KO_W;
layers = (
{
anchors = (
{
name = bottom;
pos = (423,0);
},
{
name = hook;
pos = (795,700);
},
{
name = top;
pos = (423,700);
}
);
background = {
shapes = (
{
pos = (74,0);
ref = O;
}
);
};
layerId = m01;
shapes = (
{
closed = 1;
nodes = (
(359,0,l),
(376,319,o),
(381,347,o),
(420,347,cs),
(457,347,o),
(462,319,o),
(486,0,c),
(736,0,l),
(744,116,o),
(754,233,o),
(767,350,cs),
(780,467,o),
(796,583,o),
(815,700,c),
(722,700,l),
(718,603,o),
(711,478,o),
(703,411,cs),
(699,377,o),
(692,355,o),
(678,344,cs),
(664,333,o),
(634,331,o),
(614,331,cs),
(594,331,o),
(563,333,o),
(545,348,cs),
(516,372,o),
(513,396,o),
(477,700,c),
(368,700,l),
(332,396,o),
(329,372,o),
(300,348,cs),
(282,333,o),
(251,331,o),
(231,331,cs),
(211,331,o),
(181,333,o),
(167,344,cs),
(153,355,o),
(146,377,o),
(142,411,cs),
(134,478,o),
(127,603,o),
(123,700,c),
(30,700,l),
(49,583,o),
(65,467,o),
(78,350,cs),
(91,233,o),
(101,116,o),
(109,0,c)
);
}
);
width = 845;
},
{
anchors = (
{
name = bottom;
pos = (418,0);
},
{
name = hook;
pos = (782,700);
},
{
name = top;
pos = (418,700);
}
);
background = {
shapes = (
{
closed = 1;
nodes = (
(280,0,l),
(372,529,o),
(372,529,o),
(404,529,cs),
(437,529,o),
(437,529,o),
(529,0,c),
(667,0,l),
(671,116,o),
(681,233,o),
(691,350,cs),
(701,467,o),
(712,583,o),
(726,700,c),
(693,700,l),
(676,493,o),
(665,350,o),
(658,253,cs),
(650,136,o),
(646,81,o),
(643,68,cs),
(637,42,o),
(616,38,o),
(594,38,cs),
(558,38,o),
(546,46,o),
(541,68,cs),
(523,154,o),
(473,442,o),
(452,566,c),
(356,566,l),
(335,442,o),
(286,154,o),
(268,68,cs),
(263,46,o),
(251,38,o),
(215,38,cs),
(193,38,o),
(172,42,o),
(166,68,cs),
(163,81,o),
(159,136,o),
(151,253,cs),
(144,350,o),
(133,493,o),
(117,700,c),
(84,700,l),
(98,583,o),
(108,467,o),
(118,350,cs),
(128,233,o),
(138,116,o),
(142,0,c)
);
}
);
};
layerId = "60D037D9-62E9-4843-B070-F1594CB0B0D1";
shapes = (
{
closed = 1;
nodes = (
(307,0,l),
(383,642,o),
(386,664,o),
(418,664,cs),
(450,664,o),
(453,642,o),
(529,0,c),
(686,0,l),
(705,160,o),
(718,261,o),
(731,355,cs),
(745,457,o),
(759,550,o),
(782,700,c),
(748,700,l),
(722,477,o),
(704,332,o),
(692,237,cs),
(671,66,o),
(669,58,o),
(665,52,cs),
(658,41,o),
(649,39,o),
(606,39,cs),
(567,39,o),
(557,43,o),
(551,52,cs),
(545,60,o),
(542,77,o),
(465,700,c),
(371,700,l),
(294,77,o),
(291,60,o),
(285,52,cs),
(279,43,o),
(269,39,o),
(230,39,cs),
(187,39,o),
(178,41,o),
(171,52,cs),
(167,58,o),
(165,66,o),
(144,235,cs),
(132,330,o),
(114,476,o),
(88,700,c),
(54,700,l),
(77,550,o),
(91,457,o),
(105,355,cs),
(118,261,o),
(131,160,o),
(150,0,c)
);
}
);
width = 836;
}
);
metricLeft = A;
metricRight = A;
unicode = 87;
userData = {
KernOnName = W;
};
}
{
glyphname = X;
kernLeft = KO_X;
kernRight = KO_X;
layers = (
{
anchors = (
{
name = bottom;
pos = (346,0);
},
{
name = top;
pos = (346,700);
}
);
background = {
shapes = (
{
pos = (23,0);
ref = V;
}
);
};
layerId = m01;
shapes = (
{
closed = 1;
nodes = (
(129,0,l),
(157,113,o),
(172,167,o),
(199,192,cs),
(224,215,o),
(258,215,o),
(346,215,cs),
(434,215,o),
(468,215,o),
(493,192,cs),
(520,167,o),
(535,113,o),
(563,0,c),
(662,0,l),
(553,313,o),
(547,331,o),
(547,361,cs),
(547,391,o),
(552,408,o),
(647,700,c),
(548,700,l),
(534,617,o),
(524,560,o),
(497,537,cs),
(477,520,o),
(406,519,o),
(346,519,cs),
(286,519,o),
(215,520,o),
(195,537,cs),
(168,560,o),
(158,617,o),
(144,700,c),
(45,700,l),
(140,408,o),
(145,391,o),
(145,361,cs),
(145,331,o),
(139,313,o),
(30,0,c)
);
}
);
width = 692;
},
{
anchors = (
{
name = bottom;
pos = (317,0);
},
{
name = top;
pos = (317,700);
}
);
layerId = "60D037D9-62E9-4843-B070-F1594CB0B0D1";
shapes = (
{
closed = 1;
nodes = (
(91,0,l),
(168,215,o),
(206,316,o),
(220,330,cs),
(230,340,o),
(241,342,o),
(317,342,cs),
(393,342,o),
(404,340,o),
(414,330,cs),
(428,316,o),
(466,215,o),
(543,0,c),
(580,0,l),
(458,291,o),
(442,331,o),
(442,361,cs),
(442,391,o),
(449,409,o),
(570,700,c),
(534,700,l),
(466,509,o),
(426,405,o),
(417,392,cs),
(409,380,o),
(392,380,o),
(317,380,cs),
(242,380,o),
(225,380,o),
(217,392,cs),
(208,405,o),
(168,509,o),
(100,700,c),
(64,700,l),
(185,409,o),
(192,391,o),
(192,361,cs),
(192,331,o),
(176,291,o),
(54,0,c)
);
}
);
width = 634;
}
);
metricLeft = A;
metricRight = A;
unicode = 88;
userData = {
KernOnName = X;
};
}
{
glyphname = Y;
kernLeft = KO_Y;
kernRight = KO_Y;
layers = (
{
anchors = (
{
name = bottom;
pos = (257,0);
},
{
name = hook;
pos = (558,700);
},
{
name = top;
pos = (305,700);
},
{
name = topleft;
pos = (22,700);
}
);
background = {
shapes = (
{
pos = (-18,0);
ref = V;
}
);
};
layerId = m01;
shapes = (
{
closed = 1;
nodes = (
(76,2,o),
(135,-8,o),
(206,-8,cs),
(295,-8,o),
(380,9,o),
(432,58,cs),
(484,107,o),
(497,189,o),
(503,236,cs),
(520,367,o),
(539,471,o),
(586,700,c),
(504,700,l),
(498,618,o),
(493,563,o),
(481,533,cs),
(468,501,o),
(449,496,o),
(306,496,cs),
(163,496,o),
(144,501,o),
(131,533,cs),
(119,563,o),
(114,618,o),
(108,700,c),
(26,700,l),
(74,471,o),
(88,403,o),
(110,272,c),
(440,272,l),
(431,239,o),
(346,205,o),
(257,205,cs),
(156,205,o),
(73,239,o),
(51,250,c),
(51,10,l)
);
}
);
width = 596;
},
{
anchors = (
{
name = bottom;
pos = (239,0);
},
{
name = hook;
pos = (514,700);
},
{
name = top;
pos = (296,700);
},
{
name = topleft;
pos = (52,700);
}
);
background = {
shapes = (
{
closed = 1;
nodes = (
(85,2,o),
(121,-8,o),
(164,-8,cs),
(206,-8,o),
(248,0,o),
(276,15,cs),
(310,34,o),
(359,52,o),
(415,295,cs),
(422,325,o),
(489,568,o),
(526,700,c),
(493,700,l),
(459,530,o),
(417,390,o),
(406,362,cs),
(396,336,o),
(391,331,o),
(288,331,cs),
(186,331,o),
(180,338,o),
(170,364,cs),
(160,390,o),
(121,530,o),
(87,700,c),
(54,700,l),
(89,568,o),
(113,481,o),
(164,297,c),
(391,297,l),
(355,138,o),
(319,54,o),
(232,34,cs),
(168,19,o),
(93,41,o),
(66,53,c),
(66,7,l)
);
}
);
};
layerId = "60D037D9-62E9-4843-B070-F1594CB0B0D1";
shapes = (
{
closed = 1;
nodes = (
(85,1,o),
(121,-8,o),
(164,-8,cs),
(206,-8,o),
(233,-3,o),
(257,7,cs),
(303,27,o),
(360,53,o),
(415,295,cs),
(422,325,o),
(489,568,o),
(526,700,c),
(490,700,l),
(456,530,o),
(418,390,o),
(408,364,cs),
(398,338,o),
(391,331,o),
(288,331,cs),
(186,331,o),
(180,338,o),
(170,364,cs),
(160,390,o),
(124,530,o),
(90,700,c),
(54,700,l),
(89,568,o),
(113,481,o),
(164,297,c),
(392,297,l),
(359,159,o),
(328,29,o),
(185,29,cs),
(135,29,o),
(87,44,o),
(66,53,c),
(66,7,l)
);
}
);
width = 544;
}
);
unicode = 89;
userData = {
KernOnName = Y;
};
}
{
glyphname = Z;
kernLeft = KO_Z;
kernRight = KO_Z;
layers = (
{
anchors = (
{
name = bottom;
pos = (300,0);
},
{
name = center;
pos = (279,344);
},
{
name = top;
pos = (299,700);
}
);
background = {
shapes = (
{
closed = 1;
nodes = (
(557,0,l),
(557,260,l),
(483,260,o),
(445,260,o),
(373,260,cs),
(242,260,o),
(231,260,o),
(231,270,cs),
(231,277,o),
(234,280,o),
(253,290,cs),
(303,316,o),
(452,403,o),
(540,455,c),
(540,700,l),
(56,700,l),
(56,440,l),
(130,440,o),
(186,440,o),
(258,440,cs),
(357,440,o),
(367,439,o),
(367,431,cs),
(367,424,o),
(364,421,o),
(345,411,cs),
(295,384,o),
(122,289,o),
(42,245,c),
(42,0,l)
);
},
{
closed = 1;
nodes = (
(557,0,l),
(557,235,l),
(483,235,o),
(445,235,o),
(373,235,cs),
(212,235,o),
(201,235,o),
(201,245,cs),
(201,252,o),
(201,255,o),
(222,269,cs),
(270,302,o),
(460,428,o),
(540,480,c),
(540,700,l),
(56,700,l),
(56,465,l),
(130,465,o),
(186,465,o),
(258,465,cs),
(377,465,o),
(387,464,o),
(387,456,cs),
(387,449,o),
(387,446,o),
(367,433,cs),
(317,399,o),
(122,272,o),
(42,220,c),
(42,0,l)
);
}
);
};
layerId = m01;
shapes = (
{
closed = 1;
nodes = (
(557,0,l),
(557,235,l),
(483,235,o),
(445,235,o),
(373,235,cs),
(222,235,o),
(211,235,o),
(211,245,cs),
(211,252,o),
(211,254,o),
(232,269,cs),
(280,303,o),
(460,428,o),
(540,480,c),
(540,700,l),
(56,700,l),
(56,465,l),
(130,465,o),
(186,465,o),
(258,465,cs),
(367,465,o),
(377,464,o),
(377,456,cs),
(377,453,o),
(377,451,o),
(375,448,cs),
(373,445,o),
(368,441,o),
(357,433,cs),
(307,398,o),
(122,272,o),
(42,220,c),
(42,0,l)
);
}
);
width = 599;
},
{
anchors = (
{
name = bottom;
pos = (271,0);
},
{
name = center;
pos = (270,350);
},
{
name = top;
pos = (271,700);
}
);
background = {
shapes = (
{
pos = (-4,0);
ref = E;
},
{
closed = 1;
nodes = (
(504,0,l),
(504,36,l),
(366,36,o),
(301,36,o),
(228,36,cs),
(81,36,o),
(81,36,o),
(81,67,cs),
(81,88,o),
(82,90,o),
(120,138,cs),
(161,190,o),
(393,480,o),
(488,597,c),
(488,700,l),
(76,700,l),
(76,664,l),
(214,664,o),
(239,664,o),
(312,664,cs),
(460,664,o),
(460,664,o),
(460,633,cs),
(460,609,o),
(459,607,o),
(421,559,cs),
(380,507,o),
(148,220,o),
(53,103,c),
(53,0,l)
);
},
{
closed = 1;
nodes = (
(504,0,l),
(504,36,l),
(366,36,o),
(301,36,o),
(228,36,cs),
(107,36,o),
(104,36,o),
(104,49,cs),
(104,58,o),
(107,64,o),
(140,116,cs),
(173,169,o),
(413,554,o),
(488,674,c),
(488,700,l),
(76,700,l),
(76,664,l),
(214,664,o),
(239,664,o),
(312,664,cs),
(434,664,o),
(437,664,o),
(437,651,cs),
(437,642,o),
(434,636,o),
(401,582,cs),
(368,528,o),
(127,143,o),
(53,26,c),
(53,0,l)
);
}
);
};
layerId = "60D037D9-62E9-4843-B070-F1594CB0B0D1";
shapes = (
{
closed = 1;
nodes = (
(508,0,l),
(508,36,l),
(370,36,o),
(306,36,o),
(233,36,cs),
(87,36,o),
(85,36,o),
(85,78,cs),
(85,120,o),
(87,127,o),
(124,169,cs),
(174,225,o),
(398,469,o),
(489,568,c),
(489,700,l),
(64,700,l),
(64,664,l),
(202,664,o),
(241,664,o),
(316,664,cs),
(454,664,o),
(458,664,o),
(458,626,cs),
(458,602,o),
(458,589,o),
(453,577,cs),
(448,566,o),
(440,555,o),
(424,537,cs),
(370,474,o),
(145,229,o),
(54,130,c),
(54,0,l)
);
}
);
width = 562;
}
);
metricLeft = O;
metricRight = O;
unicode = 90;
userData = {
KernOnName = Z;
};
}
{
glyphname = bracketleft;
kernLeft = "0";
kernRight = "0";
layers = (
{
layerId = "60D037D9-62E9-4843-B070-F1594CB0B0D1";
shapes = (
{
closed = 1;
nodes = (
(255,-150,l),
(128,-150,o),
(126,-148,o),
(117,-133,cs),
(109,-120,o),
(109,-118,o),
(109,277,cs),
(109,663,o),
(109,674,o),
(117,687,cs),
(126,702,o),
(128,704,o),
(255,704,c),
(255,738,l),
(87,738,l),
(90,438,o),
(90,437,o),
(90,277,cs),
(90,117,o),
(90,116,o),
(87,-184,c),
(255,-184,l)
);
}
);
width = 339;
},
{
layerId = m01;
shapes = (
{
closed = 1;
nodes = (
(277,19,l),
(207,19,o),
(170,19,o),
(151,48,cs),
(131,79,o),
(131,143,o),
(131,277,cs),
(131,413,o),
(131,478,o),
(153,508,cs),
(172,535,o),
(208,535,o),
(277,535,c),
(277,738,l),
(60,738,l),
(63,586,o),
(64,442,o),
(64,277,cs),
(64,114,o),
(63,-32,o),
(60,-184,c),
(277,-184,l)
);
}
);
width = 301;
}
);
unicode = 91;
}
{
glyphname = asciicircum;
kernLeft = KO_asciicircum;
kernRight = KO_asciicircum;
layers = (
{
anchors = (
{
name = top;
pos = (211,597);
}
);
layerId = "60D037D9-62E9-4843-B070-F1594CB0B0D1";
shapes = (
{
closed = 1;
nodes = (
(98,454,l),
(182,623,o),
(183,624,o),
(216,624,cs),
(245,624,o),
(246,623,o),
(333,454,c),
(356,454,l),
(248,700,l),
(183,700,l),
(75,454,l)
);
}
);
width = 431;
},
{
anchors = (
{
name = top;
pos = (172,688);
}
);
layerId = m01;
shapes = (
{
closed = 1;
nodes = (
(135,381,l),
(224,515,o),
(224,515,o),
(249,515,cs),
(273,515,o),
(273,515,o),
(354,381,c),
(449,381,l),
(345,700,l),
(143,700,l),
(40,381,l)
);
}
);
width = 489;
}
);
metricLeft = period;
metricRight = period;
unicode = 94;
}
{
glyphname = underscore;
kernLeft = "0";
kernRight = "0";
layers = (
{
layerId = "60D037D9-62E9-4843-B070-F1594CB0B0D1";
shapes = (
{
closed = 1;
nodes = (
(48,-46,l),
(548,-46,l),
(548,-16,l),
(48,-16,l)
);
}
);
width = 596;
},
{
layerId = m01;
shapes = (
{
closed = 1;
nodes = (
(24,-108,l),
(544,-108,l),
(544,-16,l),
(24,-16,l)
);
}
);
width = 568;
}
);
metricLeft = hyphen;
metricRight = hyphen;
unicode = 95;
}
{
glyphname = a;
kernLeft = KO_a;
kernRight = KO_a;
layers = (
{
anchors = (
{
name = bottom;
pos = (274,0);
},
{
name = center;
pos = (266,245);
},
{
name = ogonek;
pos = (507,0);
},
{
name = top;
pos = (274,530);
}
);
background = {
shapes = (
{
pos = (-9,0);
ref = o;
}
);
};
layerId = m01;
shapes = (
{
closed = 1;
nodes = (
(337,-8,o),
(374,27,o),
(397,58,cs),
(414,81,o),
(422,91,o),
(429,91,cs),
(439,91,o),
(439,81,o),
(439,64,cs),
(439,49,o),
(437,24,o),
(435,0,c),
(507,0,l),
(506,29,o),
(505,169,o),
(505,245,cs),
(505,321,o),
(506,471,o),
(507,500,c),
(435,500,l),
(437,476,o),
(439,451,o),
(439,436,cs),
(439,419,o),
(439,409,o),
(429,409,cs),
(422,409,o),
(414,419,o),
(397,442,cs),
(374,473,o),
(337,508,o),
(241,508,cs),
(95,508,o),
(30,421,o),
(30,245,cs),
(30,69,o),
(95,-8,o),
(241,-8,cs)
);
},
{
closed = 1;
nodes = (
(145,178,o),
(90,194,o),
(90,245,cs),
(90,296,o),
(145,314,o),
(266,314,cs),
(393,314,o),
(441,296,o),
(441,245,cs),
(441,194,o),
(393,178,o),
(266,178,cs)
);
}
);
width = 543;
},
{
anchors = (
{
name = bottom;
pos = (265,0);
},
{
name = center;
pos = (265,245);
},
{
name = ogonek;
pos = (471,0);
},
{
name = top;
pos = (265,520);
}
);
background = {
shapes = (
{
ref = o;
}
);
};
layerId = "60D037D9-62E9-4843-B070-F1594CB0B0D1";
shapes = (
{
closed = 1;
nodes = (
(348,-16,o),
(393,32,o),
(413,62,cs),
(427,83,o),
(430,87,o),
(437,87,cs),
(444,87,o),
(444,80,o),
(444,53,cs),
(444,38,o),
(443,19,o),
(442,0,c),
(471,0,l),
(467,176,o),
(467,177,o),
(467,240,cs),
(467,303,o),
(467,304,o),
(471,480,c),
(442,480,l),
(443,461,o),
(444,442,o),
(444,430,cs),
(444,400,o),
(444,393,o),
(437,393,cs),
(430,393,o),
(427,397,o),
(413,418,cs),
(393,448,o),
(348,496,o),
(257,496,cs),
(132,496,o),
(54,400,o),
(54,240,cs),
(54,80,o),
(132,-16,o),
(257,-16,cs)
);
},
{
closed = 1;
nodes = (
(138,21,o),
(75,104,o),
(75,240,cs),
(75,376,o),
(138,459,o),
(257,459,cs),
(377,459,o),
(447,384,o),
(447,240,cs),
(447,96,o),
(377,21,o),
(257,21,cs)
);
}
);
width = 554;
}
);
metricLeft = o;
metricRight = n;
unicode = 97;
userData = {
KernOnName = a;
};
}
{
glyphname = c;
kernLeft = KO_c;
kernRight = KO_c;
layers = (
{
anchors = (
{
name = bottom;
pos = (254,0);
},
{
name = center;
pos = (265,245);
},
{
name = top;
pos = (264,520);
}
);
background = {
shapes = (
{
ref = o;
}
);
};
layerId = m01;
shapes = (
{
closed = 1;
nodes = (
(352,-8,o),
(403,3,o),
(445,20,c),
(445,199,l),
(420,192,o),
(329,180,o),
(265,180,cs),
(140,180,o),
(90,194,o),
(90,250,cs),
(90,306,o),
(140,319,o),
(265,319,cs),
(329,319,o),
(420,306,o),
(445,299,c),
(445,484,l),
(403,498,o),
(352,508,o),
(291,508,cs),
(113,508,o),
(30,422,o),
(30,250,cs),
(30,78,o),
(113,-8,o),
(291,-8,cs)
);
}
);
width = 477;
},
{
anchors = (
{
name = bottom;
pos = (259,0);
},
{
name = center;
pos = (239,240);
},
{
name = top;
pos = (267,520);
}
);
guides = (
{
locked = 1;
pos = (137,240);
}
);
layerId = "60D037D9-62E9-4843-B070-F1594CB0B0D1";
shapes = (
{
closed = 1;
nodes = (
(318,-16,o),
(361,-9,o),
(397,3,c),
(397,43,l),
(358,30,o),
(326,20,o),
(271,20,cs),
(174,20,o),
(75,77,o),
(75,240,cs),
(75,403,o),
(174,461,o),
(271,461,cs),
(320,461,o),
(361,450,o),
(397,437,c),
(397,477,l),
(361,489,o),
(328,496,o),
(280,496,cs),
(150,496,o),
(54,415,o),
(54,240,cs),
(54,65,o),
(150,-16,o),
(275,-16,cs)
);
}
);
width = 433;
}
);
metricLeft = o;
unicode = 99;
userData = {
KernOnName = c;
};
}
{
glyphname = d;
kernLeft = KO_a;
kernRight = KO_d;
layers = (
{
anchors = (
{
name = bottom;
pos = (268,0);
},
{
name = center;
pos = (453,585);
},
{
name = top;
pos = (250,520);
},
{
name = topright;
pos = (543,740);
}
);
background = {
shapes = (
{
pos = (-68,0);
ref = o;
}
);
};
layerId = m01;
shapes = (
{
closed = 1;
nodes = (
(337,-8,o),
(374,27,o),
(397,58,cs),
(414,81,o),
(422,91,o),
(429,91,cs),
(439,91,o),
(439,81,o),
(439,64,cs),
(439,49,o),
(437,24,o),
(435,0,c),
(507,0,l),
(504,339,o),
(504,339,o),
(504,370,cs),
(504,401,o),
(504,401,o),
(507,740,c),
(435,740,l),
(438,525,o),
(439,451,o),
(439,436,cs),
(439,419,o),
(439,409,o),
(429,409,cs),
(422,409,o),
(414,419,o),
(397,442,cs),
(374,473,o),
(337,508,o),
(241,508,cs),
(95,508,o),
(30,426,o),
(30,250,cs),
(30,74,o),
(95,-8,o),
(241,-8,cs)
);
},
{
closed = 1;
nodes = (
(145,183,o),
(90,199,o),
(90,250,cs),
(90,301,o),
(145,319,o),
(266,319,cs),
(393,319,o),
(441,301,o),
(441,250,cs),
(441,199,o),
(393,183,o),
(266,183,cs)
);
}
);
width = 557;
},
{
anchors = (
{
name = bottom;
pos = (295,0);
},
{
name = center;
pos = (424,590);
},
{
name = top;
pos = (252,520);
},
{
name = topright;
pos = (500,740);
}
);
layerId = "60D037D9-62E9-4843-B070-F1594CB0B0D1";
shapes = (
{
closed = 1;
nodes = (
(348,-16,o),
(393,32,o),
(413,62,cs),
(427,83,o),
(430,87,o),
(437,87,cs),
(444,87,o),
(444,80,o),
(444,53,cs),
(444,38,o),
(443,19,o),
(442,0,c),
(471,0,l),
(468,175,o),
(467,273,o),
(467,373,cs),
(467,473,o),
(468,565,o),
(471,740,c),
(442,740,l),
(443,711,o),
(444,519,o),
(444,427,cs),
(444,400,o),
(444,393,o),
(437,393,cs),
(430,393,o),
(427,397,o),
(413,418,cs),
(393,448,o),
(348,496,o),
(257,496,cs),
(132,496,o),
(54,400,o),
(54,240,cs),
(54,80,o),
(132,-16,o),
(257,-16,cs)
);
},
{
closed = 1;
nodes = (
(138,21,o),
(75,104,o),
(75,240,cs),
(75,376,o),
(138,459,o),
(257,459,cs),
(377,459,o),
(447,384,o),
(447,240,cs),
(447,96,o),
(377,21,o),
(257,21,cs)
);
}
);
width = 566;
}
);
metricLeft = o;
metricRight = "=|n";
unicode = 100;
userData = {
KernOnName = d;
};
}
{
glyphname = e;
kernLeft = KO_e;
kernRight = KO_e;
layers = (
{
anchors = (
{
name = bottom;
pos = (273,0);
},
{
name = center;
pos = (254,248);
},
{
name = ogonek;
pos = (474,9);
},
{
name = top;
pos = (273,520);
}
);
background = {
shapes = (
{
pos = (-21,0);
ref = o;
}
);
};
backgroundImage = {
imagePath = "../Downloads/Images/e-ExtraBold.tif";
locked = 1;
pos = (-977,-3564);
scale = (1.4452,1.4452);
};
layerId = m01;
shapes = (
{
closed = 1;
nodes = (
(396,-8,o),
(433,-1,o),
(474,11,c),
(474,203,l),
(393,185,o),
(340,178,o),
(277,178,cs),
(174,178,o),
(114,191,o),
(97,230,c),
(487,230,l),
(487,438,o),
(426,508,o),
(258,508,cs),
(115,508,o),
(30,406,o),
(30,250,cs),
(30,77,o),
(122,-8,o),
(325,-8,cs)
);
},
{
closed = 1;
nodes = (
(102,285,l),
(102,317,o),
(168,343,o),
(258,343,cs),
(353,343,o),
(419,317,o),
(419,285,c)
);
}
);
width = 519;
},
{
anchors = (
{
name = bottom;
pos = (274,0);
},
{
name = center;
pos = (249,248);
},
{
name = ogonek;
pos = (430,5);
},
{
name = top;
pos = (274,520);
}
);
background = {
shapes = (
{
pos = (-31,0);
ref = o;
},
{
pos = (-39,0);
ref = c;
}
);
};
guides = (
{
angle = 90;
pos = (282,259);
}
);
layerId = "60D037D9-62E9-4843-B070-F1594CB0B0D1";
shapes = (
{
closed = 1;
nodes = (
(329,-16,o),
(373,-12,o),
(430,5,c),
(430,45,l),
(379,29,o),
(336,20,o),
(283,20,cs),
(111,20,o),
(74,131,o),
(74,252,c),
(462,252,l),
(462,387,o),
(419,496,o),
(258,496,cs),
(158,496,o),
(54,425,o),
(54,252,cs),
(54,113,o),
(104,-16,o),
(287,-16,cs)
);
},
{
closed = 1;
nodes = (
(75,279,l),
(83,391,o),
(161,459,o),
(258,459,cs),
(377,459,o),
(439,391,o),
(439,279,c)
);
}
);
width = 498;
}
);
metricLeft = o;
metricRight = c;
unicode = 101;
userData = {
KernOnName = e;
};
}
{
glyphname = f;
kernLeft = KO_f;
kernRight = KO_f;
layers = (
{
anchors = (
{
name = bottom;
pos = (199,0);
},
{
name = top;
pos = (248,750);
}
);
background = {
shapes = (
{
closed = 1;
nodes = (
(183,0,l),
(177,291,l),
(360,291,l),
(360,500,l),
(177,500,l),
(177,512,o),
(182,532,o),
(194,545,cs),
(215,567,o),
(264,569,o),
(288,569,cs),
(322,569,o),
(360,562,o),
(393,554,c),
(393,737,l),
(371,740,o),
(334,745,o),
(295,745,cs),
(235,745,o),
(170,732,o),
(139,679,cs),
(111,629,o),
(117,555,o),
(117,500,c),
(30,500,l),
(30,291,l),
(117,291,l),
(111,0,l)
);
}
);
};
layerId = m01;
shapes = (
{
closed = 1;
nodes = (
(183,0,l),
(177,291,l),
(360,291,l),
(360,500,l),
(177,500,l),
(177,501,o),
(177,503,o),
(177,504,cs),
(182,562,o),
(236,569,o),
(288,569,cs),
(322,569,o),
(360,562,o),
(393,554,c),
(393,737,l),
(371,740,o),
(334,745,o),
(295,745,cs),
(125,745,o),
(117,654,o),
(117,518,cs),
(117,512,o),
(117,506,o),
(117,500,c),
(30,500,l),
(30,291,l),
(117,291,l),
(111,0,l)
);
}
);
width = 383;
},
{
anchors = (
{
name = bottom;
pos = (126,0);
},
{
name = top;
pos = (187,746);
}
);
background = {
shapes = (
{
closed = 1;
nodes = (
(117,0,l),
(114,447,l),
(270,447,l),
(270,480,l),
(114,480,l),
(114,622,o),
(111,652,o),
(142,681,cs),
(185,722,o),
(265,692,o),
(293,676,c),
(293,718,l),
(230,744,o),
(153,757,o),
(110,691,cs),
(88,657,o),
(92,604,o),
(92,480,c),
(30,480,l),
(30,447,l),
(92,447,l),
(89,0,l)
);
}
);
};
layerId = "60D037D9-62E9-4843-B070-F1594CB0B0D1";
shapes = (
{
closed = 1;
nodes = (
(118,0,l),
(114,447,l),
(270,447,l),
(270,480,l),
(114,480,l),
(114,510,o),
(114,539,o),
(114,597,cs),
(114,658,o),
(134,702,o),
(202,702,cs),
(239,702,o),
(275,686,o),
(293,676,c),
(293,718,l),
(264,730,o),
(242,739,o),
(211,739,cs),
(113,739,o),
(92,680,o),
(92,589,cs),
(92,537,o),
(92,508,o),
(92,480,c),
(30,480,l),
(30,447,l),
(92,447,l),
(88,0,l)
);
}
);
width = 293;
}
);
unicode = 102;
userData = {
KernOnName = f;
};
}
{
glyphname = g;
kernLeft = KO_a;
kernRight = KO_g;
layers = (
{
anchors = (
{
name = bottom;
pos = (262,-227);
},
{
name = center;
pos = (473,257);
},
{
name = top;
pos = (262,520);
}
);
background = {
shapes = (
{
pos = (-17,50);
ref = q;
}
);
};
layerId = m01;
shapes = (
{
closed = 1;
nodes = (
(430,-205,o),
(503,-102,o),
(503,102,cs),
(503,120,o),
(503,148,o),
(503,187,cs),
(503,261,o),
(503,372,o),
(506,500,c),
(434,500,l),
(436,476,o),
(438,452,o),
(438,437,cs),
(438,420,o),
(438,409,o),
(428,409,cs),
(421,409,o),
(413,419,o),
(396,442,cs),
(373,473,o),
(336,508,o),
(242,508,cs),
(83,508,o),
(30,432,o),
(30,273,cs),
(30,106,o),
(96,42,o),
(242,42,cs),
(336,42,o),
(373,77,o),
(396,108,cs),
(413,131,o),
(421,141,o),
(428,141,cs),
(438,141,o),
(438,130,o),
(438,118,cs),
(438,47,o),
(382,-19,o),
(235,-19,cs),
(158,-19,o),
(85,13,o),
(61,25,c),
(61,-181,l),
(101,-192,o),
(166,-205,o),
(240,-205,cs)
);
},
{
closed = 1;
nodes = (
(133,193,o),
(88,215,o),
(88,256,cs),
(88,297,o),
(133,319,o),
(264,319,cs),
(395,319,o),
(440,297,o),
(440,256,cs),
(440,215,o),
(395,193,o),
(264,193,cs)
);
}
);
width = 556;
},
{
anchors = (
{
name = bottom;
pos = (235,-207);
},
{
name = center;
pos = (457,242);
},
{
name = top;
pos = (259,520);
}
);
background = {
shapes = (
{
closed = 1;
nodes = (
(373,-16,o),
(415,87,o),
(435,87,cs),
(445,87,o),
(454,58,o),
(449,27,cs),
(422,-127,o),
(344,-181,o),
(220,-181,cs),
(178,-181,o),
(117,-175,o),
(56,-159,c),
(56,-194,l),
(107,-210,o),
(164,-217,o),
(209,-217,cs),
(374,-217,o),
(468,-124,o),
(468,47,cs),
(468,210,o),
(469,318,o),
(474,480,c),
(444,480,l),
(448,408,o),
(445,393,o),
(436,393,cs),
(413,393,o),
(373,496,o),
(239,496,cs),
(109,496,o),
(26,400,o),
(26,240,cs),
(26,80,o),
(109,-16,o),
(239,-16,cs)
);
},
{
closed = 1;
nodes = (
(115,21,o),
(49,106,o),
(49,240,cs),
(49,374,o),
(114,459,o),
(240,459,cs),
(362,459,o),
(447,380,o),
(447,242,cs),
(447,105,o),
(363,21,o),
(239,21,cs)
);
},
{
pos = (-26,0);
ref = a;
}
);
};
layerId = "60D037D9-62E9-4843-B070-F1594CB0B0D1";
shapes = (
{
closed = 1;
nodes = (
(385,-207,o),
(465,-117,o),
(465,47,cs),
(465,119,o),
(465,132,o),
(465,192,cs),
(465,265,o),
(467,389,o),
(470,480,c),
(442,480,l),
(443,461,o),
(444,442,o),
(444,430,cs),
(444,400,o),
(443,393,o),
(436,393,cs),
(429,393,o),
(426,397,o),
(412,418,cs),
(392,448,o),
(348,496,o),
(257,496,cs),
(132,496,o),
(54,400,o),
(54,240,cs),
(54,80,o),
(132,-16,o),
(257,-16,cs),
(343,-16,o),
(387,34,o),
(409,62,cs),
(425,83,o),
(429,87,o),
(436,87,cs),
(443,87,o),
(443,80,o),
(443,53,cs),
(443,-75,o),
(387,-171,o),
(238,-171,cs),
(200,-171,o),
(149,-165,o),
(89,-146,c),
(89,-186,l),
(139,-202,o),
(187,-207,o),
(235,-207,cs)
);
},
{
closed = 1;
nodes = (
(138,21,o),
(75,104,o),
(75,240,cs),
(75,376,o),
(138,459,o),
(257,459,cs),
(379,459,o),
(447,384,o),
(447,240,cs),
(447,96,o),
(363,21,o),
(257,21,cs)
);
}
);
width = 524;
}
);
metricLeft = o;
unicode = 103;
userData = {
KernOnName = g;
};
}
{
glyphname = h;
kernLeft = KO_h;
kernRight = KO_n;
layers = (
{
anchors = (
{
name = bottom;
pos = (278,0);
},
{
name = center;
pos = (93,594);
},
{
name = top;
pos = (261,740);
}
);
layerId = m01;
shapes = (
{
closed = 1;
nodes = (
(122,0,l),
(118,139,o),
(118,139,o),
(118,179,cs),
(118,260,o),
(130,266,o),
(278,266,cs),
(426,266,o),
(438,260,o),
(438,179,cs),
(438,139,o),
(438,139,o),
(434,0,c),
(506,0,l),
(503,62,o),
(502,186,o),
(502,347,cs),
(502,465,o),
(414,508,o),
(319,508,cs),
(232,508,o),
(183,465,o),
(160,433,cs),
(141,407,o),
(135,400,o),
(128,400,cs),
(118,400,o),
(118,412,o),
(118,431,cs),
(118,448,o),
(120,715,o),
(122,740,c),
(50,740,l),
(53,402,o),
(53,401,o),
(53,370,cs),
(53,339,o),
(53,339,o),
(50,0,c)
);
}
);
width = 542;
},
{
anchors = (
{
name = bottom;
pos = (290,0);
},
{
name = center;
pos = (150,587);
},
{
name = top;
pos = (290,740);
}
);
background = {
shapes = (
{
closed = 1;
nodes = (
(124,0,l),
(122,77,o),
(120,176,o),
(120,240,cs),
(120,295,o),
(125,319,o),
(132,338,cs),
(152,389,o),
(209,459,o),
(316,459,cs),
(390,459,o),
(470,435,o),
(469,311,cs),
(468,188,o),
(467,77,o),
(464,0,c),
(492,0,l),
(491,77,o),
(491,188,o),
(489,329,cs),
(488,429,o),
(437,496,o),
(325,496,cs),
(224,496,o),
(175,437,o),
(154,408,cs),
(139,387,o),
(137,383,o),
(130,383,cs),
(123,383,o),
(123,390,o),
(123,430,cs),
(123,442,o),
(123,717,o),
(124,739,c),
(96,739,l),
(100,626,o),
(100,347,o),
(96,0,c)
);
}
);
};
layerId = "60D037D9-62E9-4843-B070-F1594CB0B0D1";
shapes = (
{
closed = 1;
nodes = (
(125,0,l),
(121,182,o),
(121,182,o),
(121,249,cs),
(121,371,o),
(190,459,o),
(316,459,cs),
(390,459,o),
(468,429,o),
(468,305,cs),
(468,182,o),
(468,182,o),
(463,0,c),
(493,0,l),
(489,182,o),
(489,182,o),
(489,330,cs),
(489,425,o),
(437,496,o),
(325,496,cs),
(224,496,o),
(174,438,o),
(154,408,cs),
(140,387,o),
(137,383,o),
(130,383,cs),
(123,383,o),
(122,390,o),
(122,430,cs),
(122,522,o),
(123,711,o),
(125,740,c),
(95,740,l),
(99,468,o),
(99,468,o),
(99,350,cs),
(99,267,o),
(99,267,o),
(95,0,c)
);
}
);
width = 576;
}
);
metricLeft = n;
metricRight = n;
unicode = 104;
userData = {
KernOnName = h;
};
}
{
glyphname = i;
kernLeft = KO_i;
kernRight = KO_i;
layers = (
{
anchors = (
{
name = bottom;
pos = (201,0);
},
{
name = center;
pos = (211,227);
},
{
name = ogonek;
pos = (383,0);
}
);
layerId = m01;
shapes = (
{
closed = 1;
nodes = (
(383,0,l),
(383,161,l),
(361,159,o),
(338,158,o),
(314,158,cs),
(277,158,o),
(261,162,o),
(253,169,cs),
(240,180,o),
(239,204,o),
(239,283,cs),
(239,356,o),
(239,356,o),
(242,500,c),
(42,500,l),
(42,292,l),
(67,294,o),
(86,295,o),
(113,295,cs),
(142,295,o),
(162,291,o),
(170,284,cs),
(183,273,o),
(184,246,o),
(184,225,cs),
(184,204,o),
(183,180,o),
(170,169,cs),
(162,162,o),
(141,158,o),
(104,158,cs),
(74,158,o),
(52,159,o),
(30,161,c),
(30,0,l)
);
},
{
closed = 1;
nodes = (
(264,575,o),
(293,598,o),
(293,647,cs),
(293,696,o),
(264,719,o),
(200,719,cs),
(133,719,o),
(102,696,o),
(102,647,cs),
(102,598,o),
(133,575,o),
(200,575,cs)
);
}
);
width = 404;
},
{
anchors = (
{
name = bottom;
pos = (151,0);
},
{
name = center;
pos = (154,240);
},
{
name = ogonek;
pos = (268,0);
}
);
guides = (
{
pos = (660,11);
}
);
layerId = "60D037D9-62E9-4843-B070-F1594CB0B0D1";
shapes = (
{
closed = 1;
nodes = (
(268,0,l),
(268,30,l),
(252,30,o),
(239,30,o),
(229,30,cs),
(190,30,o),
(183,31,o),
(177,36,cs),
(167,44,o),
(164,59,o),
(164,240,cs),
(164,284,o),
(165,451,o),
(166,480,c),
(50,480,l),
(50,447,l),
(64,447,o),
(76,447,o),
(85,447,cs),
(118,447,o),
(125,446,o),
(131,441,cs),
(141,434,o),
(143,418,o),
(143,240,cs),
(143,59,o),
(141,44,o),
(131,36,cs),
(125,31,o),
(118,30,o),
(81,30,cs),
(70,30,o),
(55,30,o),
(36,30,c),
(36,0,l)
);
},
{
closed = 1;
nodes = (
(169,609,o),
(183,625,o),
(183,654,cs),
(183,684,o),
(169,700,o),
(146,700,cs),
(121,700,o),
(107,684,o),
(107,654,cs),
(107,625,o),
(121,609,o),
(146,609,cs)
);
}
);
width = 286;
}
);
unicode = 105;
userData = {
KernOnName = i;
};
}
{
glyphname = j;
kernLeft = KO_j;
kernRight = KO_j;
layers = (
{
anchors = (
{
name = center;
pos = (186,225);
}
);
background = {
shapes = (
{
closed = 1;
nodes = (
(-16,-190,l),
(16,-194,o),
(46,-197,o),
(72,-197,cs),
(165,-197,o),
(215,-161,o),
(215,-22,cs),
(215,80,o),
(215,164,o),
(215,236,cs),
(215,343,o),
(215,424,o),
(217,500,c),
(21,500,l),
(21,291,l),
(117,291,o),
(134,291,o),
(144,284,cs),
(158,275,o),
(158,246,o),
(158,166,cs),
(158,69,o),
(157,14,o),
(128,-8,cs),
(114,-19,o),
(92,-25,o),
(61,-25,cs),
(40,-24,o),
(15,-21,o),
(-16,-15,c)
);
}
);
};
layerId = m01;
shapes = (
{
closed = 1;
nodes = (
(230,571,o),
(259,594,o),
(259,643,cs),
(259,692,o),
(230,715,o),
(166,715,cs),
(99,715,o),
(68,692,o),
(68,643,cs),
(68,594,o),
(99,571,o),
(166,571,cs)
);
},
{
closed = 1;
nodes = (
(-16,-190,l),
(16,-194,o),
(46,-197,o),
(72,-197,cs),
(165,-197,o),
(215,-161,o),
(215,-22,cs),
(215,80,o),
(215,164,o),
(215,236,cs),
(215,343,o),
(215,343,o),
(218,500,c),
(21,500,l),
(21,292,l),
(46,294,o),
(65,295,o),
(92,295,cs),
(121,295,o),
(136,291,o),
(144,284,cs),
(157,273,o),
(158,246,o),
(158,166,cs),
(158,69,o),
(157,14,o),
(128,-8,cs),
(114,-19,o),
(92,-25,o),
(61,-25,cs),
(40,-25,o),
(15,-21,o),
(-16,-15,c)
);
}
);
width = 259;
},
{
anchors = (
{
name = center;
pos = (168,240);
}
);
background = {
shapes = (
{
closed = 1;
nodes = (
(-24,-175,l),
(2,-186,o),
(35,-195,o),
(66,-196,cs),
(124,-196,o),
(177,-167,o),
(178,-62,cs),
(178,-22,o),
(178,67,o),
(178,163,cs),
(177,288,o),
(177,425,o),
(178,480,c),
(63,480,l),
(63,447,l),
(128,447,o),
(137,447,o),
(145,441,cs),
(155,433,o),
(157,427,o),
(157,-46,cs),
(157,-107,o),
(136,-138,o),
(108,-151,cs),
(95,-157,o),
(80,-160,o),
(65,-159,cs),
(31,-159,o),
(-5,-144,o),
(-24,-133,c)
);
}
);
};
layerId = "60D037D9-62E9-4843-B070-F1594CB0B0D1";
shapes = (
{
closed = 1;
nodes = (
(183,609,o),
(197,625,o),
(197,654,cs),
(197,684,o),
(183,700,o),
(160,700,cs),
(135,700,o),
(121,684,o),
(121,654,cs),
(121,625,o),
(135,609,o),
(160,609,cs)
);
},
{
closed = 1;
nodes = (
(-24,-175,l),
(2,-186,o),
(35,-196,o),
(66,-196,cs),
(126,-196,o),
(178,-167,o),
(178,-62,cs),
(178,67,o),
(178,67,o),
(178,163,cs),
(178,210,o),
(178,451,o),
(179,480,c),
(63,480,l),
(63,447,l),
(78,447,o),
(90,447,o),
(99,447,cs),
(132,447,o),
(139,446,o),
(145,441,cs),
(155,433,o),
(157,427,o),
(157,-46,cs),
(157,-107,o),
(136,-138,o),
(108,-151,cs),
(95,-157,o),
(80,-159,o),
(65,-159,cs),
(31,-159,o),
(-5,-144,o),
(-24,-133,c)
);
}
);
width = 269;
}
);
unicode = 106;
userData = {
KernOnName = j;
};
}
{
glyphname = k;
kernLeft = KO_k;
kernRight = KO_k;
layers = (
{
anchors = (
{
name = bottom;
pos = (219,0);
},
{
name = center;
pos = (78,585);
},
{
name = top;
pos = (219,740);
}
);
background = {
shapes = (
{
angle = -90;
pos = (-51,717);
ref = m;
}
);
};
layerId = m01;
shapes = (
{
closed = 1;
nodes = (
(114,0,l),
(112,27,o),
(109,92,o),
(109,119,cs),
(109,133,o),
(109,161,o),
(114,179,cs),
(122,209,o),
(155,211,o),
(177,211,c),
(177,86,o),
(240,-16,o),
(367,-16,cs),
(391,-16,o),
(452,-9,o),
(471,1,c),
(471,212,l),
(445,186,o),
(385,165,o),
(325,165,cs),
(269,165,o),
(237,190,o),
(227,212,c),
(269,212,o),
(339,215,o),
(375,242,cs),
(418,275,o),
(448,353,o),
(462,500,c),
(396,500,l),
(396,469,o),
(396,466,o),
(395,442,cs),
(394,423,o),
(390,410,o),
(380,401,cs),
(365,387,o),
(329,385,o),
(247,385,cs),
(166,385,o),
(134,388,o),
(121,400,cs),
(111,409,o),
(111,422,o),
(111,442,cs),
(111,475,o),
(111,525,o),
(114,740,c),
(42,740,l),
(45,401,o),
(45,401,o),
(45,370,cs),
(45,339,o),
(45,339,o),
(42,0,c)
);
}
);
width = 489;
},
{
anchors = (
{
name = bottom;
pos = (255,0);
},
{
name = center;
pos = (111,590);
},
{
name = top;
pos = (255,700);
}
);
background = {
shapes = (
{
closed = 1;
nodes = (
(124,0,l),
(121,129,o),
(121,129,o),
(121,208,cs),
(121,239,o),
(121,247,o),
(128,253,cs),
(135,259,o),
(141,261,o),
(285,261,c),
(362,39,o),
(395,18,o),
(411,8,cs),
(426,-1,o),
(440,-6,o),
(456,-6,cs),
(459,-6,o),
(462,-6,o),
(465,-5,c),
(465,38,l),
(460,36,o),
(454,35,o),
(447,35,cs),
(440,35,o),
(432,37,o),
(424,42,cs),
(396,59,o),
(358,112,o),
(306,263,c),
(307,263,o),
(316,263,o),
(320,265,cs),
(337,274,o),
(348,287,o),
(446,480,c),
(412,480,l),
(390,428,o),
(371,389,o),
(356,360,cs),
(332,312,o),
(318,297,o),
(301,294,cs),
(283,291,o),
(243,291,o),
(213,291,cs),
(141,291,o),
(135,291,o),
(128,297,cs),
(123,301,o),
(123,308,o),
(123,336,cs),
(123,379,o),
(123,454,o),
(126,740,c),
(96,740,l),
(99,565,o),
(99,473,o),
(99,373,cs),
(99,273,o),
(99,175,o),
(96,0,c)
);
}
);
};
layerId = "60D037D9-62E9-4843-B070-F1594CB0B0D1";
shapes = (
{
closed = 1;
nodes = (
(124,-2,l),
(121,54,o),
(120,175,o),
(120,186,cs),
(120,244,o),
(120,252,o),
(125,256,cs),
(132,261,o),
(155,261,o),
(243,261,c),
(299,94,o),
(336,-8,o),
(418,-8,cs),
(435,-8,o),
(445,-6,o),
(452,-3,c),
(452,32,l),
(443,28,o),
(431,26,o),
(421,26,cs),
(361,26,o),
(324,92,o),
(266,261,c),
(300,263,o),
(322,281,o),
(334,298,cs),
(341,308,o),
(355,329,o),
(439,480,c),
(402,480,l),
(381,432,o),
(381,432,o),
(356,382,cs),
(339,349,o),
(321,315,o),
(306,304,cs),
(294,295,o),
(289,292,o),
(213,292,cs),
(156,292,o),
(132,292,o),
(125,298,cs),
(122,302,o),
(121,308,o),
(121,333,cs),
(121,371,o),
(121,597,o),
(124,740,c),
(95,740,l),
(98,575,o),
(98,315,o),
(98,239,cs),
(98,162,o),
(98,162,o),
(95,-2,c)
);
}
);
width = 501;
}
);
unicode = 107;
userData = {
KernOnName = k;
};
}
{
glyphname = l;
kernLeft = KO_l;
kernRight = KO_l;
layers = (
{
anchors = (
{
name = bottom;
pos = (206,0);
},
{
name = center;
pos = (215,346);
},
{
name = top;
pos = (206,741);
},
{
name = topright;
pos = (368,738);
}
);
layerId = m01;
shapes = (
{
closed = 1;
nodes = (
(383,0,l),
(383,161,l),
(361,159,o),
(344,158,o),
(317,158,cs),
(286,158,o),
(265,162,o),
(257,169,cs),
(244,180,o),
(243,204,o),
(243,324,cs),
(243,507,o),
(243,507,o),
(246,740,c),
(42,740,l),
(42,531,l),
(67,533,o),
(86,534,o),
(113,534,cs),
(142,534,o),
(162,531,o),
(170,524,cs),
(183,513,o),
(184,486,o),
(184,345,cs),
(184,204,o),
(183,180,o),
(170,169,cs),
(162,162,o),
(141,158,o),
(104,158,cs),
(74,158,o),
(52,159,o),
(30,161,c),
(30,0,l)
);
}
);
width = 404;
},
{
anchors = (
{
name = bottom;
pos = (155,0);
},
{
name = center;
pos = (152,368);
},
{
name = top;
pos = (137,739);
},
{
name = topright;
pos = (326,739);
}
);
layerId = "60D037D9-62E9-4843-B070-F1594CB0B0D1";
shapes = (
{
closed = 1;
nodes = (
(273,0,l),
(273,30,l),
(256,30,o),
(242,30,o),
(231,30,cs),
(191,30,o),
(184,31,o),
(178,36,cs),
(168,44,o),
(165,59,o),
(165,371,cs),
(165,636,o),
(165,711,o),
(166,740,c),
(50,740,l),
(50,707,l),
(65,707,o),
(76,707,o),
(86,707,cs),
(118,707,o),
(125,706,o),
(131,701,cs),
(141,693,o),
(143,678,o),
(143,371,cs),
(143,59,o),
(141,44,o),
(131,36,cs),
(125,32,o),
(119,30,o),
(84,30,cs),
(72,30,o),
(56,30,o),
(36,30,c),
(36,0,l)
);
}
);
width = 291;
}
);
metricLeft = i;
metricRight = i;
unicode = 108;
userData = {
KernOnName = l;
};
}
{
glyphname = m;
kernLeft = KO_n;
kernRight = KO_n;
layers = (
{
anchors = (
{
name = bottom;
pos = (473,0);
},
{
name = top;
pos = (473,520);
}
);
layerId = "60D037D9-62E9-4843-B070-F1594CB0B0D1";
shapes = (
{
closed = 1;
nodes = (
(125,0,l),
(121,182,o),
(121,182,o),
(121,240,cs),
(121,376,o),
(186,459,o),
(294,459,cs),
(356,459,o),
(431,429,o),
(431,305,cs),
(431,183,o),
(431,183,o),
(427,0,c),
(456,0,l),
(452,183,o),
(452,183,o),
(452,240,cs),
(452,368,o),
(514,459,o),
(626,459,cs),
(687,459,o),
(763,429,o),
(763,305,cs),
(763,182,o),
(763,182,o),
(759,0,c),
(788,0,l),
(784,182,o),
(784,183,o),
(784,330,cs),
(784,425,o),
(728,496,o),
(639,496,cs),
(558,496,o),
(504,444,o),
(476,398,cs),
(462,375,o),
(457,371,o),
(452,371,cs),
(445,371,o),
(444,373,o),
(436,402,cs),
(424,443,o),
(391,496,o),
(302,496,cs),
(223,496,o),
(169,438,o),
(150,408,cs),
(137,387,o),
(134,383,o),
(128,383,cs),
(121,383,o),
(121,390,o),
(121,430,cs),
(121,442,o),
(122,461,o),
(123,480,c),
(95,480,l),
(100,334,o),
(100,334,o),
(100,273,cs),
(100,210,o),
(100,210,o),
(95,0,c)
);
}
);
width = 871;
},
{
anchors = (
{
name = bottom;
pos = (441,0);
},
{
name = top;
pos = (441,520);
}
);
layerId = m01;
shapes = (
{
closed = 1;
nodes = (
(122,0,l),
(119,46,o),
(118,139,o),
(118,179,cs),
(118,260,o),
(130,266,o),
(261,266,cs),
(392,266,o),
(405,260,o),
(405,179,cs),
(405,139,o),
(403,46,o),
(400,0,c),
(472,0,l),
(469,46,o),
(468,139,o),
(468,179,cs),
(468,260,o),
(480,266,o),
(611,266,cs),
(742,266,o),
(754,260,o),
(754,179,cs),
(754,139,o),
(752,46,o),
(749,0,c),
(821,0,l),
(818,62,o),
(817,178,o),
(817,339,cs),
(817,457,o),
(742,508,o),
(651,508,cs),
(576,508,o),
(517,461,o),
(493,423,cs),
(474,393,o),
(470,387,o),
(464,387,cs),
(458,387,o),
(454,396,o),
(450,407,cs),
(428,468,o),
(384,508,o),
(306,508,cs),
(224,508,o),
(182,463,o),
(162,436,cs),
(144,411,o),
(135,400,o),
(128,400,cs),
(118,400,o),
(118,412,o),
(118,431,cs),
(118,448,o),
(120,475,o),
(122,500,c),
(50,500,l),
(51,471,o),
(52,321,o),
(52,245,cs),
(52,165,o),
(51,29,o),
(50,0,c)
);
}
);
width = 857;
}
);
metricLeft = n;
metricRight = n;
unicode = 109;
userData = {
KernOnName = m;
};
}
{
glyphname = n;
kernLeft = KO_n;
kernRight = KO_n;
layers = (
{
anchors = (
{
name = bottom;
pos = (272,0);
},
{
name = top;
pos = (272,520);
}
);
background = {
shapes = (
{
pos = (573,0);
ref = a;
scale = (-1,1);
}
);
};
guides = (
{
pos = (26,117);
}
);
layerId = m01;
shapes = (
{
closed = 1;
nodes = (
(122,0,l),
(119,46,o),
(118,139,o),
(118,179,cs),
(118,260,o),
(130,266,o),
(278,266,cs),
(426,266,o),
(438,260,o),
(438,179,cs),
(438,139,o),
(437,46,o),
(434,0,c),
(506,0,l),
(503,62,o),
(502,186,o),
(502,347,cs),
(502,465,o),
(414,508,o),
(319,508,cs),
(232,508,o),
(183,465,o),
(160,433,cs),
(141,407,o),
(135,400,o),
(128,400,cs),
(118,400,o),
(118,412,o),
(118,431,cs),
(118,448,o),
(120,475,o),
(122,500,c),
(50,500,l),
(51,471,o),
(52,323,o),
(52,245,cs),
(52,167,o),
(51,29,o),
(50,0,c)
);
}
);
width = 542;
},
{
anchors = (
{
name = bottom;
pos = (295,0);
},
{
name = top;
pos = (295,520);
}
);
layerId = "60D037D9-62E9-4843-B070-F1594CB0B0D1";
shapes = (
{
closed = 1;
nodes = (
(125,0,l),
(121,183,o),
(121,183,o),
(121,249,cs),
(121,371,o),
(190,459,o),
(316,459,cs),
(390,459,o),
(467,429,o),
(467,305,cs),
(467,182,o),
(467,182,o),
(463,0,c),
(493,0,l),
(489,182,o),
(489,182,o),
(489,330,cs),
(489,425,o),
(437,496,o),
(325,496,cs),
(224,496,o),
(174,438,o),
(154,408,cs),
(140,387,o),
(137,383,o),
(130,383,cs),
(123,383,o),
(123,390,o),
(123,430,cs),
(123,442,o),
(123,458,o),
(124,480,c),
(96,480,l),
(99,332,o),
(99,332,o),
(99,270,cs),
(99,207,o),
(99,207,o),
(95,0,c)
);
}
);
width = 576;
}
);
unicode = 110;
userData = {
KernOnName = n;
};
}
{
glyphname = o;
kernLeft = KO_a;
kernRight = KO_o;
layers = (
{
anchors = (
{
name = bottom;
pos = (272,0);
},
{
name = center;
pos = (273,249);
},
{
name = ogonek;
pos = (385,9);
},
{
name = top;
pos = (272,520);
},
{
name = topright;
pos = (335,487);
}
);
layerId = m01;
shapes = (
{
closed = 1;
nodes = (
(432,-8,o),
(514,64,o),
(514,250,cs),
(514,436,o),
(431,508,o),
(272,508,cs),
(113,508,o),
(30,436,o),
(30,250,cs),
(30,64,o),
(112,-8,o),
(272,-8,cs)
);
},
{
closed = 1;
nodes = (
(136,180,o),
(90,198,o),
(90,250,cs),
(90,302,o),
(136,320,o),
(272,320,cs),
(408,320,o),
(454,302,o),
(454,250,cs),
(454,198,o),
(408,180,o),
(272,180,cs)
);
}
);
width = 544;
},
{
anchors = (
{
name = bottom;
pos = (262,0);
},
{
name = center;
pos = (262,240);
},
{
name = ogonek;
pos = (352,2);
},
{
name = top;
pos = (262,520);
},
{
name = topright;
pos = (377,457);
}
);
guides = (
{
angle = 90;
pos = (262,239);
showMeasurement = 1;
}
);
layerId = "60D037D9-62E9-4843-B070-F1594CB0B0D1";
shapes = (
{
closed = 1;
nodes = (
(405,-16,o),
(474,92,o),
(474,240,cs),
(474,388,o),
(405,496,o),
(262,496,cs),
(119,496,o),
(54,388,o),
(54,240,cs),
(54,92,o),
(119,-16,o),
(262,-16,cs)
);
},
{
closed = 1;
nodes = (
(136,21,o),
(75,116,o),
(75,240,cs),
(75,364,o),
(136,459,o),
(262,459,cs),
(388,459,o),
(453,364,o),
(453,240,cs),
(453,116,o),
(388,21,o),
(262,21,cs)
);
}
);
width = 528;
}
);
unicode = 111;
userData = {
KernOnName = o;
};
}
{
glyphname = p;
kernLeft = KO_n;
kernRight = KO_b;
layers = (
{
anchors = (
{
name = bottom;
pos = (302,0);
},
{
name = hook;
pos = (115,502);
},
{
name = top;
pos = (302,520);
}
);
layerId = m01;
shapes = (
{
closed = 1;
nodes = (
(122,-207,l),
(120,-182,o),
(118,49,o),
(118,64,cs),
(118,81,o),
(118,91,o),
(128,91,cs),
(135,91,o),
(143,81,o),
(160,58,cs),
(183,27,o),
(220,-8,o),
(316,-8,cs),
(462,-8,o),
(527,74,o),
(527,250,cs),
(527,426,o),
(462,508,o),
(316,508,cs),
(220,508,o),
(183,473,o),
(160,442,cs),
(143,419,o),
(135,409,o),
(128,409,cs),
(118,409,o),
(118,419,o),
(118,436,cs),
(118,451,o),
(119,475,o),
(122,500,c),
(50,500,l),
(53,161,o),
(53,161,o),
(53,130,cs),
(53,99,o),
(53,98,o),
(50,-207,c)
);
},
{
closed = 1;
nodes = (
(164,181,o),
(116,199,o),
(116,250,cs),
(116,301,o),
(164,317,o),
(291,317,cs),
(412,317,o),
(467,301,o),
(467,250,cs),
(467,199,o),
(412,181,o),
(291,181,cs)
);
}
);
width = 557;
},
{
anchors = (
{
name = bottom;
pos = (314,0);
},
{
name = hook;
pos = (124,480);
},
{
name = top;
pos = (314,520);
}
);
layerId = "60D037D9-62E9-4843-B070-F1594CB0B0D1";
shapes = (
{
closed = 1;
nodes = (
(124,-207,l),
(123,-178,o),
(122,-24,o),
(122,53,cs),
(122,80,o),
(122,87,o),
(129,87,cs),
(136,87,o),
(139,83,o),
(153,62,cs),
(173,32,o),
(223,-16,o),
(309,-16,cs),
(434,-16,o),
(512,80,o),
(512,240,cs),
(512,400,o),
(434,496,o),
(309,496,cs),
(218,496,o),
(173,448,o),
(153,418,cs),
(139,397,o),
(136,393,o),
(129,393,cs),
(122,393,o),
(122,400,o),
(122,430,cs),
(122,442,o),
(123,461,o),
(124,480,c),
(95,480,l),
(98,305,o),
(99,237,o),
(99,137,cs),
(99,37,o),
(98,-32,o),
(95,-207,c)
);
},
{
closed = 1;
nodes = (
(189,21,o),
(119,96,o),
(119,240,cs),
(119,384,o),
(189,459,o),
(309,459,cs),
(428,459,o),
(491,376,o),
(491,240,cs),
(491,104,o),
(428,21,o),
(309,21,cs)
);
}
);
width = 566;
}
);
metricLeft = n;
metricRight = o;
unicode = 112;
userData = {
KernOnName = p;
};
}
{
glyphname = q;
kernLeft = KO_a;
kernRight = KO_q;
layers = (
{
anchors = (
{
name = bottom;
pos = (193,0);
},
{
name = top;
pos = (193,500);
}
);
layerId = m01;
shapes = (
{
closed = 1;
nodes = (
(504,98,o),
(504,99,o),
(504,130,cs),
(504,161,o),
(504,161,o),
(507,500,c),
(435,500,l),
(438,475,o),
(439,451,o),
(439,436,cs),
(439,419,o),
(439,409,o),
(429,409,cs),
(422,409,o),
(414,419,o),
(397,442,cs),
(374,473,o),
(337,508,o),
(241,508,cs),
(95,508,o),
(30,426,o),
(30,250,cs),
(30,74,o),
(95,-8,o),
(241,-8,cs),
(337,-8,o),
(374,27,o),
(397,58,cs),
(414,81,o),
(422,91,o),
(429,91,cs),
(439,91,o),
(439,81,o),
(439,64,cs),
(439,49,o),
(437,-182,o),
(435,-207,c),
(507,-207,l)
);
},
{
closed = 1;
nodes = (
(145,181,o),
(90,199,o),
(90,250,cs),
(90,301,o),
(145,317,o),
(266,317,cs),
(393,317,o),
(441,301,o),
(441,250,cs),
(441,199,o),
(393,181,o),
(266,181,cs)
);
}
);
width = 557;
},
{
anchors = (
{
name = bottom;
pos = (250,0);
},
{
name = top;
pos = (250,520);
}
);
layerId = "60D037D9-62E9-4843-B070-F1594CB0B0D1";
shapes = (
{
closed = 1;
nodes = (
(468,-32,o),
(467,37,o),
(467,137,cs),
(467,237,o),
(468,305,o),
(471,480,c),
(442,480,l),
(443,461,o),
(444,442,o),
(444,430,cs),
(444,400,o),
(444,393,o),
(437,393,cs),
(430,393,o),
(427,397,o),
(413,418,cs),
(393,448,o),
(348,496,o),
(257,496,cs),
(132,496,o),
(54,400,o),
(54,240,cs),
(54,80,o),
(132,-16,o),
(257,-16,cs),
(343,-16,o),
(393,32,o),
(413,62,cs),
(427,83,o),
(430,87,o),
(437,87,cs),
(444,87,o),
(444,80,o),
(444,53,cs),
(444,-24,o),
(443,-178,o),
(442,-207,c),
(471,-207,l)
);
},
{
closed = 1;
nodes = (
(138,21,o),
(75,104,o),
(75,240,cs),
(75,376,o),
(138,459,o),
(257,459,cs),
(377,459,o),
(447,384,o),
(447,240,cs),
(447,96,o),
(377,21,o),
(257,21,cs)
);
}
);
width = 566;
}
);
metricLeft = o;
metricRight = "=|n";
unicode = 113;
}
{
glyphname = r;
kernLeft = KO_n;
kernRight = KO_r;
layers = (
{
anchors = (
{
name = bottom;
pos = (222,0);
},
{
name = center;
pos = (89,148);
},
{
name = top;
pos = (241,520);
}
);
background = {
shapes = (
{
closed = 1;
nodes = (
(122,0,l),
(120,46,o),
(118,141,o),
(118,200,cs),
(118,212,o),
(118,222,o),
(122,231,cs),
(131,255,o),
(162,266,o),
(267,270,cs),
(322,272,o),
(365,264,o),
(389,258,c),
(389,498,l),
(364,505,o),
(338,508,o),
(312,508,cs),
(230,508,o),
(196,472,o),
(169,442,cs),
(142,412,o),
(135,398,o),
(128,398,cs),
(118,398,o),
(118,410,o),
(118,427,cs),
(118,444,o),
(120,471,o),
(122,500,c),
(50,500,l),
(53,313,o),
(53,187,o),
(50,0,c)
);
}
);
};
layerId = m01;
shapes = (
{
closed = 1;
nodes = (
(122,0,l),
(119,46,o),
(118,139,o),
(118,179,cs),
(118,258,o),
(151,268,o),
(225,268,cs),
(316,268,o),
(357,263,o),
(389,258,c),
(389,498,l),
(364,505,o),
(338,508,o),
(312,508,cs),
(230,508,o),
(189,472,o),
(167,442,cs),
(143,409,o),
(135,398,o),
(128,398,cs),
(118,398,o),
(118,410,o),
(118,427,cs),
(118,444,o),
(120,475,o),
(122,500,c),
(50,500,l),
(51,471,o),
(52,323,o),
(52,245,cs),
(52,167,o),
(51,29,o),
(50,0,c)
);
}
);
width = 419;
},
{
anchors = (
{
name = bottom;
pos = (207,0);
},
{
name = center;
pos = (109,191);
},
{
name = top;
pos = (229,520);
}
);
background = {
shapes = (
{
closed = 1;
nodes = (
(124,0,l),
(122,77,o),
(121,176,o),
(121,240,cs),
(121,285,o),
(126,309,o),
(133,328,cs),
(153,379,o),
(203,455,o),
(312,455,cs),
(343,455,o),
(356,451,o),
(369,448,c),
(369,489,l),
(358,492,o),
(337,496,o),
(317,496,cs),
(220,496,o),
(173,426,o),
(153,400,cs),
(140,383,o),
(137,373,o),
(130,373,cs),
(123,373,o),
(123,380,o),
(123,420,cs),
(123,434,o),
(123,458,o),
(124,480,c),
(96,480,l),
(100,367,o),
(100,347,o),
(96,0,c)
);
}
);
};
layerId = "60D037D9-62E9-4843-B070-F1594CB0B0D1";
shapes = (
{
closed = 1;
nodes = (
(125,0,l),
(120,183,o),
(120,183,o),
(120,249,cs),
(120,351,o),
(186,455,o),
(312,455,cs),
(343,455,o),
(356,452,o),
(369,448,c),
(369,489,l),
(358,492,o),
(337,496,o),
(317,496,cs),
(220,496,o),
(173,427,o),
(155,400,cs),
(141,379,o),
(137,373,o),
(130,373,cs),
(123,373,o),
(123,380,o),
(123,420,cs),
(123,434,o),
(124,458,o),
(125,480,c),
(95,480,l),
(99,331,o),
(99,331,o),
(99,269,cs),
(99,207,o),
(99,207,o),
(95,0,c)
);
}
);
width = 369;
}
);
metricLeft = n;
unicode = 114;
userData = {
KernOnName = r;
};
}
{
glyphname = s;
kernLeft = KO_s;
kernRight = KO_s;
layers = (
{
anchors = (
{
name = bottom;
pos = (215,0);
},
{
name = center;
pos = (242,247);
},
{
name = top;
pos = (223,520);
}
);
layerId = m01;
shapes = (
{
closed = 1;
nodes = (
(87,-2,o),
(143,-8,o),
(222,-8,cs),
(345,-8,o),
(417,39,o),
(417,122,cs),
(417,183,o),
(383,223,o),
(257,256,cs),
(192,273,o),
(169,281,o),
(169,297,cs),
(169,310,o),
(187,315,o),
(234,315,cs),
(276,315,o),
(326,308,o),
(402,294,c),
(402,492,l),
(360,500,o),
(290,508,o),
(254,508,cs),
(108,508,o),
(32,465,o),
(32,369,cs),
(32,282,o),
(78,255,o),
(213,220,cs),
(292,200,o),
(305,189,o),
(305,174,cs),
(305,160,o),
(285,154,o),
(237,154,cs),
(189,154,o),
(127,162,o),
(42,186,c),
(42,10,l)
);
}
);
width = 441;
},
{
anchors = (
{
name = bottom;
pos = (203,0);
},
{
name = center;
pos = (222,251);
},
{
name = top;
pos = (204,520);
}
);
background = {
shapes = (
{
closed = 1;
nodes = (
(311,-16,o),
(357,55,o),
(357,111,cs),
(357,169,o),
(341,226,o),
(195,271,cs),
(110,297,o),
(83,337,o),
(83,378,cs),
(83,418,o),
(108,461,o),
(201,461,cs),
(246,461,o),
(287,450,o),
(334,434,c),
(334,476,l),
(298,487,o),
(254,496,o),
(207,496,cs),
(95,496,o),
(60,432,o),
(60,385,cs),
(60,336,o),
(74,285,o),
(186,250,cs),
(309,212,o),
(333,158,o),
(333,115,cs),
(333,70,o),
(294,20,o),
(203,20,cs),
(136,20,o),
(97,33,o),
(54,52,c),
(54,10,l),
(97,-6,o),
(139,-16,o),
(192,-16,cs)
);
}
);
};
layerId = "60D037D9-62E9-4843-B070-F1594CB0B0D1";
shapes = (
{
closed = 1;
nodes = (
(86,-5,o),
(132,-16,o),
(180,-16,cs),
(303,-16,o),
(357,41,o),
(357,117,cs),
(357,186,o),
(310,227,o),
(212,267,cs),
(115,307,o),
(84,332,o),
(84,379,cs),
(84,433,o),
(129,463,o),
(210,463,cs),
(253,463,o),
(297,450,o),
(329,435,c),
(329,476,l),
(294,488,o),
(254,496,o),
(216,496,cs),
(117,496,o),
(60,451,o),
(60,380,cs),
(60,321,o),
(97,288,o),
(205,244,cs),
(296,207,o),
(334,174,o),
(334,117,cs),
(334,54,o),
(283,20,o),
(191,20,cs),
(138,20,o),
(84,34,o),
(54,50,c),
(54,7,l)
);
}
);
width = 405;
}
);
unicode = 115;
userData = {
KernOnName = s;
};
}
{
glyphname = t;
kernLeft = KO_t;
kernRight = KO_t;
layers = (
{
anchors = (
{
name = bottom;
pos = (225,3);
},
{
name = center;
pos = (190,250);
},
{
name = top;
pos = (152,652);
},
{
name = topright;
pos = (348,632);
}
);
background = {
shapes = (
{
closed = 1;
nodes = (
(329,189,l),
(291,173,o),
(253,166,o),
(222,169,cs),
(196,172,o),
(180,183,o),
(172,199,cs),
(160,222,o),
(159,254,o),
(159,291,c),
(332,291,l),
(332,500,l),
(159,500,l),
(163,630,l),
(95,630,l),
(99,500,l),
(12,500,l),
(12,291,l),
(99,291,l),
(99,220,o),
(89,117,o),
(117,67,cs),
(154,1,o),
(206,-15,o),
(329,-5,c)
);
}
);
};
layerId = m01;
shapes = (
{
closed = 1;
nodes = (
(286,-10,o),
(307,-9,o),
(329,-5,c),
(329,189,l),
(297,175,o),
(264,168,o),
(236,168,cs),
(207,168,o),
(189,176,o),
(178,191,cs),
(162,212,o),
(160,242,o),
(159,266,cs),
(159,274,o),
(159,282,o),
(159,291,c),
(332,291,l),
(332,500,l),
(159,500,l),
(163,634,l),
(95,634,l),
(99,500,l),
(12,500,l),
(12,291,l),
(99,291,l),
(99,262,o),
(99,228,o),
(99,194,cs),
(99,145,o),
(102,97,o),
(117,67,cs),
(144,13,o),
(188,-10,o),
(268,-10,cs)
);
}
);
width = 356;
},
{
anchors = (
{
name = bottom;
pos = (176,0);
},
{
name = center;
pos = (157,376);
},
{
name = top;
pos = (114,654);
},
{
name = topright;
pos = (181,661);
}
);
background = {
shapes = (
{
closed = 0;
nodes = (
(89,447,l),
(89,434,o),
(89,289,o),
(89,190,cs),
(89,165,o),
(89,134,o),
(89,118,cs),
(89,14,o),
(147,-12,o),
(198,-16,cs),
(226,-18,o),
(253,-13,o),
(265,-10,c),
(265,29,l),
(241,22,o),
(200,15,o),
(165,26,cs),
(131,37,o),
(119,70,o),
(116,86,cs),
(107,125,o),
(112,204,o),
(110,447,c),
(268,447,l),
(268,480,l),
(111,480,l),
(114,634,l),
(86,634,l),
(89,480,l)
);
}
);
};
layerId = "60D037D9-62E9-4843-B070-F1594CB0B0D1";
shapes = (
{
closed = 1;
nodes = (
(235,-16,o),
(255,-12,o),
(265,-10,c),
(265,29,l),
(250,25,o),
(228,20,o),
(205,20,cs),
(162,20,o),
(126,37,o),
(116,86,cs),
(110,117,o),
(110,182,o),
(110,352,cs),
(110,380,o),
(110,412,o),
(110,447,c),
(268,447,l),
(268,480,l),
(112,480,l),
(115,634,l),
(85,634,l),
(88,480,l),
(27,480,l),
(27,447,l),
(89,447,l),
(89,434,o),
(89,289,o),
(89,190,cs),
(89,86,o),
(91,65,o),
(107,37,cs),
(128,0,o),
(163,-16,o),
(212,-16,cs)
);
}
);
width = 290;
}
);
unicode = 116;
userData = {
KernOnName = t;
};
}
{
glyphname = u;
kernLeft = KO_u;
kernRight = KO_a;
layers = (
{
anchors = (
{
name = bottom;
pos = (250,0);
},
{
name = center;
pos = (248,240);
},
{
name = ogonek;
pos = (462,0);
},
{
name = top;
pos = (246,520);
},
{
name = topright;
pos = (391,500);
}
);
background = {
shapes = (
{
angle = 180;
pos = (452,500);
ref = o;
}
);
};
layerId = m01;
shapes = (
{
closed = 1;
nodes = (
(293,-8,o),
(330,36,o),
(352,67,cs),
(371,93,o),
(378,100,o),
(385,100,cs),
(394,100,o),
(394,88,o),
(394,69,cs),
(394,52,o),
(393,25,o),
(391,0,c),
(463,0,l),
(462,29,o),
(461,170,o),
(461,255,cs),
(461,327,o),
(462,471,o),
(463,500,c),
(391,500,l),
(394,454,o),
(394,364,o),
(394,324,cs),
(394,243,o),
(383,237,o),
(249,237,cs),
(116,237,o),
(105,243,o),
(105,324,cs),
(105,364,o),
(105,454,o),
(108,500,c),
(36,500,l),
(39,438,o),
(40,314,o),
(40,153,cs),
(40,35,o),
(122,-8,o),
(211,-8,cs)
);
}
);
width = 499;
},
{
anchors = (
{
name = bottom;
pos = (278,0);
},
{
name = center;
pos = (262,240);
},
{
name = ogonek;
pos = (472,0);
},
{
name = top;
pos = (276,520);
},
{
name = topright;
pos = (443,480);
}
);
layerId = "60D037D9-62E9-4843-B070-F1594CB0B0D1";
shapes = (
{
closed = 1;
nodes = (
(344,-16,o),
(394,42,o),
(414,72,cs),
(428,93,o),
(431,97,o),
(438,97,cs),
(445,97,o),
(445,90,o),
(445,50,cs),
(445,38,o),
(445,22,o),
(444,0,c),
(472,0,l),
(469,89,o),
(469,89,o),
(469,151,cs),
(469,208,o),
(469,208,o),
(473,480,c),
(443,480,l),
(448,298,o),
(448,298,o),
(448,231,cs),
(448,109,o),
(383,21,o),
(252,21,cs),
(186,21,o),
(108,51,o),
(108,175,cs),
(108,298,o),
(108,298,o),
(113,480,c),
(83,480,l),
(87,298,o),
(87,298,o),
(87,150,cs),
(87,55,o),
(139,-16,o),
(243,-16,cs)
);
}
);
width = 556;
}
);
metricLeft = "=|n";
metricRight = n;
unicode = 117;
userData = {
KernOnName = u;
};
}
{
glyphname = v;
kernLeft = KO_v;
kernRight = KO_v;
layers = (
{
anchors = (
{
name = bottom;
pos = (224,0);
},
{
name = top;
pos = (224,520);
}
);
background = {
shapes = (
{
pos = (-95,0);
ref = V;
},
{
pos = (-57,0);
ref = o;
}
);
};
layerId = m01;
shapes = (
{
closed = 1;
nodes = (
(381,0,l),
(395,131,o),
(420,271,o),
(472,500,c),
(387,500,l),
(375,380,o),
(366,325,o),
(354,259,cs),
(347,219,o),
(316,211,o),
(233,211,cs),
(150,211,o),
(119,219,o),
(112,259,cs),
(100,325,o),
(92,380,o),
(79,500,c),
(-6,500,l),
(46,271,o),
(71,131,o),
(85,0,c)
);
}
);
width = 466;
},
{
anchors = (
{
name = bottom;
pos = (276,0);
},
{
name = top;
pos = (276,480);
}
);
background = {
shapes = (
{
closed = 1;
nodes = (
(314,0,ls),
(368,0,o),
(377,-4,o),
(384,21,cs),
(505,480,l),
(484,480,l),
(371,38,ls),
(364,10,o),
(358,17,o),
(273,17,cs),
(193,17,o),
(185,10,o),
(178,38,cs),
(67,480,l),
(46,480,l),
(164,23,ls),
(171,-3,o),
(187,0,o),
(237,0,cs)
);
},
{
pos = (-14,0);
ref = o;
}
);
};
layerId = "60D037D9-62E9-4843-B070-F1594CB0B0D1";
shapes = (
{
closed = 1;
nodes = (
(330,0,l),
(372,169,o),
(409,315,o),
(460,480,c),
(423,480,l),
(389,330,o),
(360,206,o),
(326,74,cs),
(318,42,o),
(313,41,o),
(251,41,cs),
(189,41,o),
(184,42,o),
(176,74,cs),
(142,206,o),
(113,330,o),
(79,480,c),
(42,480,l),
(93,315,o),
(130,169,o),
(172,0,c)
);
}
);
width = 502;
}
);
unicode = 118;
userData = {
KernOnName = v;
};
}
{
glyphname = w;
kernLeft = KO_w;
kernRight = KO_w;
layers = (
{
anchors = (
{
name = bottom;
pos = (331,0);
},
{
name = hook;
pos = (636,500);
},
{
name = top;
pos = (331,520);
}
);
background = {
shapes = (
{
pos = (-63,0);
ref = W;
}
);
};
layerId = m01;
shapes = (
{
closed = 1;
nodes = (
(275,0,l),
(294,223,o),
(301,248,o),
(331,248,cs),
(361,248,o),
(368,223,o),
(387,0,c),
(597,0,l),
(620,216,o),
(632,300,o),
(668,500,c),
(583,500,l),
(575,368,o),
(566,248,o),
(556,229,cs),
(546,211,o),
(520,208,o),
(483,208,cs),
(446,208,o),
(420,211,o),
(410,229,cs),
(400,248,o),
(387,380,o),
(376,500,c),
(286,500,l),
(275,380,o),
(262,248,o),
(252,229,cs),
(242,211,o),
(216,208,o),
(179,208,cs),
(142,208,o),
(116,211,o),
(106,229,cs),
(96,248,o),
(87,368,o),
(79,500,c),
(-6,500,l),
(30,300,o),
(42,216,o),
(65,0,c)
);
}
);
width = 662;
},
{
anchors = (
{
name = bottom;
pos = (364,0);
},
{
name = hook;
pos = (680,480);
},
{
name = top;
pos = (364,480);
}
);
layerId = "60D037D9-62E9-4843-B070-F1594CB0B0D1";
shapes = (
{
closed = 1;
nodes = (
(265,0,l),
(335,440,o),
(337,450,o),
(366,450,cs),
(395,450,o),
(397,440,o),
(467,0,c),
(611,0,l),
(650,227,o),
(659,282,o),
(690,480,c),
(657,480,l),
(601,53,o),
(598,47,o),
(591,42,cs),
(584,37,o),
(577,36,o),
(538,36,cs),
(502,36,o),
(495,37,o),
(488,42,cs),
(481,47,o),
(480,53,o),
(409,480,c),
(323,480,l),
(252,53,o),
(251,47,o),
(244,42,cs),
(237,37,o),
(230,36,o),
(194,36,cs),
(155,36,o),
(148,37,o),
(141,42,cs),
(134,47,o),
(131,53,o),
(75,480,c),
(42,480,l),
(73,282,o),
(82,227,o),
(121,0,c)
);
}
);
width = 732;
}
);
metricLeft = v;
metricRight = v;
unicode = 119;
userData = {
KernOnName = w;
};
}
{
glyphname = x;
kernLeft = KO_x;
kernRight = KO_x;
layers = (
{
anchors = (
{
name = bottom;
pos = (232,0);
},
{
name = top;
pos = (232,520);
}
);
background = {
shapes = (
{
closed = 1;
nodes = (
(176,0,l),
(206,90,o),
(215,110,o),
(232,127,cs),
(247,142,o),
(257,144,o),
(309,144,cs),
(353,144,o),
(369,142,o),
(382,129,cs),
(400,111,o),
(418,73,o),
(442,0,c),
(540,0,l),
(471,140,o),
(442,199,o),
(430,228,cs),
(423,245,o),
(421,250,o),
(421,259,cs),
(421,273,o),
(422,276,o),
(429,292,cs),
(440,318,o),
(466,370,o),
(532,500,c),
(325,500,l),
(300,413,o),
(287,383,o),
(271,369,cs),
(262,361,o),
(250,359,o),
(212,359,cs),
(182,359,o),
(165,363,o),
(157,373,cs),
(137,399,o),
(124,430,o),
(104,500,c),
(11,500,l),
(82,363,o),
(103,319,o),
(115,291,cs),
(121,277,o),
(123,269,o),
(123,259,cs),
(123,248,o),
(123,246,o),
(114,226,cs),
(90,174,o),
(42,78,o),
(3,0,c)
);
}
);
};
layerId = m01;
shapes = (
{
closed = 1;
nodes = (
(83,0,l),
(101,84,o),
(109,119,o),
(126,140,cs),
(142,160,o),
(172,160,o),
(235,160,cs),
(298,160,o),
(328,160,o),
(344,140,cs),
(361,119,o),
(369,84,o),
(387,0,c),
(470,0,l),
(392,224,o),
(388,237,o),
(388,258,cs),
(388,280,o),
(391,292,o),
(459,501,c),
(376,501,l),
(366,440,o),
(360,405,o),
(343,384,cs),
(327,364,o),
(298,364,o),
(235,364,cs),
(172,364,o),
(143,364,o),
(127,384,cs),
(110,405,o),
(104,440,o),
(94,501,c),
(11,501,l),
(79,292,o),
(82,280,o),
(82,258,cs),
(82,237,o),
(78,224,o),
(0,0,c)
);
}
);
width = 470;
},
{
anchors = (
{
name = bottom;
pos = (256,0);
},
{
name = top;
pos = (256,480);
}
);
background = {
shapes = (
{
pos = (-1,0);
ref = v;
}
);
};
layerId = "60D037D9-62E9-4843-B070-F1594CB0B0D1";
shapes = (
{
closed = 1;
nodes = (
(80,0,l),
(126,113,o),
(170,219,o),
(179,229,cs),
(188,240,o),
(196,240,o),
(247,240,cs),
(298,240,o),
(306,240,o),
(315,229,cs),
(324,219,o),
(368,113,o),
(414,0,c),
(452,0,l),
(335,236,o),
(334,240,o),
(334,257,cs),
(334,272,o),
(336,276,o),
(445,480,c),
(407,480,l),
(370,390,o),
(324,293,o),
(315,283,cs),
(306,272,o),
(298,272,o),
(247,272,cs),
(196,272,o),
(188,272,o),
(179,283,cs),
(170,293,o),
(124,390,o),
(87,480,c),
(49,480,l),
(158,276,o),
(160,272,o),
(160,257,cs),
(160,240,o),
(159,236,o),
(42,0,c)
);
}
);
width = 494;
}
);
unicode = 120;
userData = {
KernOnName = x;
};
}
{
glyphname = y;
kernLeft = KO_y;
kernRight = KO_y;
layers = (
{
anchors = (
{
name = bottom;
pos = (469,-78);
},
{
name = center;
pos = (240,350);
},
{
name = hook;
pos = (451,501);
},
{
name = top;
pos = (240,520);
}
);
background = {
shapes = (
{
closed = 1;
nodes = (
(324,-212,o),
(374,-166,o),
(406,33,cs),
(428,166,o),
(443,286,o),
(495,500,c),
(410,500,l),
(397,380,o),
(389,325,o),
(377,259,cs),
(370,219,o),
(339,211,o),
(256,211,cs),
(173,211,o),
(142,219,o),
(135,259,cs),
(123,325,o),
(115,380,o),
(102,500,c),
(17,500,l),
(68,286,o),
(93,155,o),
(107,33,c),
(301,33,ls),
(329,33,o),
(345,28,o),
(345,20,cs),
(345,-5,o),
(314,-33,o),
(208,-33,cs),
(148,-33,o),
(87,-22,o),
(53,0,c),
(53,-193,l),
(86,-205,o),
(143,-212,o),
(189,-212,cs)
);
}
);
};
layerId = m01;
shapes = (
{
closed = 1;
nodes = (
(43,-200,o),
(94,-210,o),
(154,-210,cs),
(231,-210,o),
(303,-193,o),
(348,-144,cs),
(393,-95,o),
(405,-51,o),
(415,55,cs),
(422,127,o),
(433,234,o),
(480,501,c),
(398,501,l),
(390,366,o),
(381,311,o),
(373,281,cs),
(364,249,o),
(351,244,o),
(240,244,cs),
(129,244,o),
(116,249,o),
(107,281,cs),
(99,311,o),
(90,366,o),
(82,501,c),
(0,501,l),
(47,235,o),
(58,163,o),
(72,32,c),
(355,32,l),
(353,22,o),
(345,13,o),
(333,4,cs),
(305,-18,o),
(253,-35,o),
(198,-35,cs),
(111,-35,o),
(40,-1,o),
(22,10,c),
(22,-192,l)
);
}
);
width = 470;
},
{
anchors = (
{
name = bottom;
pos = (400,0);
},
{
name = center;
pos = (277,240);
},
{
name = hook;
pos = (471,480);
},
{
name = top;
pos = (267,480);
}
);
background = {
shapes = (
{
closed = 1;
nodes = (
(256,-207,o),
(299,-116,o),
(331,0,cs),
(332,4,o),
(419,320,o),
(474,480,c),
(439,480,l),
(399,330,o),
(363,206,o),
(326,74,cs),
(317,42,o),
(313,41,o),
(260,41,cs),
(207,41,o),
(203,42,o),
(194,74,cs),
(157,206,o),
(121,330,o),
(81,480,c),
(46,480,l),
(103,315,o),
(140,169,o),
(192,0,c),
(268,0,ls),
(300,0,o),
(303,-3,o),
(299,-19,cs),
(293,-45,o),
(265,-171,o),
(153,-171,cs),
(118,-171,o),
(75,-165,o),
(48,-148,c),
(48,-187,l),
(85,-207,o),
(119,-207,o),
(145,-207,cs)
);
}
);
};
guides = (
{
locked = 1;
pos = (-183,-207);
}
);
layerId = "60D037D9-62E9-4843-B070-F1594CB0B0D1";
shapes = (
{
closed = 1;
nodes = (
(87,-201,o),
(123,-210,o),
(161,-210,cs),
(202,-210,o),
(236,-205,o),
(257,-194,cs),
(291,-176,o),
(336,-149,o),
(370,-2,cs),
(377,28,o),
(452,348,o),
(483,480,c),
(450,480,l),
(419,310,o),
(371,93,o),
(361,65,cs),
(352,39,o),
(346,34,o),
(268,34,cs),
(185,34,o),
(182,39,o),
(172,65,cs),
(162,91,o),
(120,310,o),
(89,480,c),
(56,480,l),
(87,348,o),
(126,174,o),
(160,0,c),
(347,0,l),
(335,-55,o),
(324,-85,o),
(306,-113,cs),
(279,-154,o),
(247,-176,o),
(181,-176,cs),
(131,-176,o),
(88,-161,o),
(70,-152,c),
(70,-195,l)
);
}
);
width = 505;
}
);
unicode = 121;
userData = {
KernOnName = y;
};
}
{
glyphname = z;
kernLeft = KO_z;
kernRight = KO_z;
layers = (
{
anchors = (
{
name = bottom;
pos = (228,0);
},
{
name = center;
pos = (228,254);
},
{
name = top;
pos = (229,520);
}
);
background = {
shapes = (
{
closed = 1;
nodes = (
(35,0,l),
(421,0,l),
(421,175,l),
(197,168,o),
(189,168,o),
(189,177,cs),
(189,188,o),
(189,188,o),
(421,317,c),
(421,500,l),
(35,500,l),
(35,325,l),
(277,326,o),
(282,326,o),
(282,316,cs),
(282,310,o),
(282,310,o),
(35,162,c)
);
}
);
};
layerId = m01;
shapes = (
{
closed = 1;
nodes = (
(432,0,l),
(432,177,l),
(375,177,o),
(341,177,o),
(285,177,cs),
(188,177,o),
(180,177,o),
(180,187,cs),
(180,193,o),
(181,195,o),
(193,203,cs),
(233,230,o),
(352,297,o),
(422,336,c),
(422,500,l),
(37,500,l),
(37,323,l),
(95,323,o),
(107,323,o),
(163,323,cs),
(260,323,o),
(268,323,o),
(268,313,cs),
(268,307,o),
(267,305,o),
(255,297,cs),
(214,270,o),
(95,202,o),
(26,164,c),
(26,0,l)
);
}
);
width = 456;
},
{
anchors = (
{
name = bottom;
pos = (226,0);
},
{
name = center;
pos = (202,240);
},
{
name = top;
pos = (226,480);
}
);
layerId = "60D037D9-62E9-4843-B070-F1594CB0B0D1";
shapes = (
{
closed = 1;
nodes = (
(403,0,l),
(403,33,l),
(295,33,o),
(245,33,o),
(189,33,cs),
(75,33,o),
(73,33,o),
(73,62,cs),
(73,83,o),
(75,88,o),
(104,116,cs),
(142,153,o),
(317,319,o),
(388,386,c),
(388,480,l),
(53,480,l),
(53,447,l),
(161,447,o),
(195,447,o),
(253,447,cs),
(361,447,o),
(364,447,o),
(364,421,cs),
(364,397,o),
(358,390,o),
(332,365,cs),
(290,325,o),
(122,164,o),
(49,94,c),
(49,0,l)
);
}
);
width = 432;
}
);
unicode = 122;
userData = {
KernOnName = z;
};
}
{
glyphname = braceleft;
kernLeft = "0";
kernRight = "0";
layers = (
{
layerId = "60D037D9-62E9-4843-B070-F1594CB0B0D1";
shapes = (
{
closed = 1;
nodes = (
(358,-135,l),
(339,-137,o),
(321,-137,o),
(302,-137,cs),
(200,-137,o),
(171,-116,o),
(171,-25,cs),
(171,226,ls),
(171,259,o),
(164,272,o),
(142,280,c),
(164,288,o),
(171,301,o),
(171,334,cs),
(171,589,ls),
(171,680,o),
(200,701,o),
(302,701,cs),
(321,701,o),
(339,701,o),
(358,699,c),
(358,738,l),
(297,738,ls),
(190,738,o),
(149,713,o),
(149,585,cs),
(149,334,ls),
(149,306,o),
(139,296,o),
(110,296,cs),
(84,296,l),
(85,291,o),
(85,284,o),
(85,280,cs),
(85,276,o),
(85,269,o),
(84,264,c),
(110,264,ls),
(139,264,o),
(149,254,o),
(149,226,cs),
(149,-21,ls),
(149,-149,o),
(190,-174,o),
(297,-174,cs),
(358,-174,l)
);
}
);
width = 442;
},
{
layerId = m01;
shapes = (
{
closed = 1;
nodes = (
(382,12,l),
(350,9,o),
(318,7,o),
(286,7,cs),
(239,7,o),
(225,24,o),
(225,65,cs),
(225,203,ls),
(225,253,o),
(188,269,o),
(155,280,c),
(188,291,o),
(225,307,o),
(225,357,cs),
(225,491,ls),
(225,536,o),
(242,549,o),
(286,549,cs),
(318,549,o),
(350,547,o),
(382,544,c),
(382,738,l),
(321,738,ls),
(213,738,o),
(164,682,o),
(164,557,cs),
(164,435,ls),
(164,411,o),
(148,397,o),
(125,397,cs),
(59,397,l),
(62,319,o),
(62,319,o),
(62,280,cs),
(62,241,o),
(62,241,o),
(59,163,c),
(125,163,ls),
(152,163,o),
(164,149,o),
(164,124,cs),
(164,-1,ls),
(164,-132,o),
(216,-184,o),
(321,-184,cs),
(382,-184,l)
);
}
);
width = 406;
}
);
unicode = 123;
}
{
glyphname = bar;
layers = (
{
layerId = "60D037D9-62E9-4843-B070-F1594CB0B0D1";
shapes = (
{
closed = 1;
nodes = (
(126,0,l),
(123,239,o),
(123,239,o),
(123,350,cs),
(123,461,o),
(123,461,o),
(126,700,c),
(95,700,l),
(98,461,o),
(98,461,o),
(98,350,cs),
(98,239,o),
(98,239,o),
(95,0,c)
);
}
);
width = 221;
},
{
layerId = m01;
shapes = (
{
closed = 1;
nodes = (
(138,0,l),
(135,239,o),
(135,239,o),
(135,350,cs),
(135,461,o),
(135,461,o),
(138,700,c),
(58,700,l),
(61,461,o),
(61,461,o),
(61,350,cs),
(61,239,o),
(61,239,o),
(58,0,c)
);
}
);
width = 196;
}
);
metricLeft = H;
metricRight = H;
unicode = 124;
}
{
glyphname = asciitilde;
kernRight = KO_asciitilde;
layers = (
{
layerId = "60D037D9-62E9-4843-B070-F1594CB0B0D1";
shapes = (
{
closed = 1;
nodes = (
(289,196,o),
(329,226,o),
(332,272,c),
(280,272,l),
(280,232,o),
(257,223,o),
(236,223,cs),
(215,223,o),
(200,232,o),
(182,245,cs),
(163,259,o),
(140,273,o),
(108,273,cs),
(65,273,o),
(25,243,o),
(22,197,c),
(74,197,l),
(74,237,o),
(97,246,o),
(118,246,cs),
(138,246,o),
(153,237,o),
(170,225,cs),
(190,211,o),
(213,196,o),
(246,196,cs)
);
}
);
width = 354;
},
{
layerId = m01;
shapes = (
{
closed = 1;
nodes = (
(498,161,o),
(546,205,o),
(546,356,c),
(370,356,l),
(370,306,o),
(368,271,o),
(329,271,cs),
(307,271,o),
(285,293,o),
(267,312,cs),
(245,336,o),
(216,357,o),
(173,357,cs),
(83,357,o),
(35,315,o),
(35,163,c),
(211,163,l),
(211,213,o),
(213,248,o),
(252,248,cs),
(274,248,o),
(295,226,o),
(313,207,cs),
(335,184,o),
(365,161,o),
(408,161,cs)
);
}
);
width = 581;
}
);
metricLeft = minus;
metricRight = minus;
unicode = 126;
}
{
glyphname = sterling;
layers = (
{
background = {
shapes = (
{
pos = (87,0);
ref = S;
}
);
};
layerId = "60D037D9-62E9-4843-B070-F1594CB0B0D1";
shapes = (
{
closed = 1;
nodes = (
(512,0,l),
(512,40,l),
(177,40,l),
(225,92,o),
(243,163,o),
(243,214,cs),
(243,272,o),
(222,324,o),
(200,376,cs),
(179,426,o),
(162,474,o),
(162,530,cs),
(162,630,o),
(258,680,o),
(327,680,cs),
(392,680,o),
(441,665,o),
(493,641,c),
(493,683,l),
(472,694,o),
(410,716,o),
(341,716,cs),
(234,716,o),
(138,662,o),
(138,528,cs),
(138,475,o),
(162,412,o),
(203,310,cs),
(214,282,o),
(219,251,o),
(219,224,cs),
(219,137,o),
(161,67,o),
(126,46,c),
(126,0,l)
);
},
{
closed = 1;
nodes = (
(136,309,l),
(177,311,o),
(218,311,o),
(260,311,cs),
(301,311,o),
(343,311,o),
(384,309,c),
(384,339,l),
(343,337,o),
(301,337,o),
(259,337,cs),
(218,337,o),
(177,337,o),
(136,339,c)
);
}
);
width = 600;
},
{
layerId = m01;
shapes = (
{
closed = 1;
nodes = (
(513,0,l),
(513,199,l),
(176,199,l),
(186,212,o),
(200,235,o),
(200,267,cs),
(200,292,o),
(190,312,o),
(179,331,cs),
(169,349,o),
(161,366,o),
(161,386,cs),
(161,445,o),
(262,454,o),
(303,454,cs),
(355,454,o),
(425,442,o),
(488,413,c),
(488,683,l),
(462,691,o),
(388,710,o),
(272,710,cs),
(143,710,o),
(40,637,o),
(40,527,cs),
(40,474,o),
(61,412,o),
(114,348,cs),
(129,330,o),
(136,311,o),
(136,294,cs),
(136,239,o),
(61,195,o),
(16,182,c),
(16,0,l)
);
},
{
closed = 1;
nodes = (
(35,285,l),
(165,288,o),
(165,288,o),
(226,288,cs),
(286,288,o),
(286,288,o),
(416,285,c),
(416,357,l),
(286,354,o),
(286,354,o),
(226,354,cs),
(165,354,o),
(165,354,o),
(35,357,c)
);
}
);
width = 600;
}
);
unicode = 163;
}
{
glyphname = currency;
layers = (
{
layerId = "60D037D9-62E9-4843-B070-F1594CB0B0D1";
shapes = (
{
closed = 1;
nodes = (
(133,278,l),
(149,264,o),
(165,257,o),
(191,257,cs),
(217,257,o),
(233,264,o),
(249,278,c),
(307,214,l),
(332,240,l),
(267,294,l),
(278,310,o),
(285,331,o),
(285,350,cs),
(285,369,o),
(278,390,o),
(267,406,c),
(332,460,l),
(307,486,l),
(249,422,l),
(233,436,o),
(217,443,o),
(191,443,cs),
(165,443,o),
(149,436,o),
(133,422,c),
(75,486,l),
(50,460,l),
(115,406,l),
(104,390,o),
(97,369,o),
(97,350,cs),
(97,331,o),
(104,310,o),
(115,294,c),
(50,240,l),
(75,214,l)
);
},
{
closed = 1;
nodes = (
(150,291,o),
(118,313,o),
(118,350,cs),
(118,387,o),
(150,409,o),
(191,409,cs),
(232,409,o),
(264,387,o),
(264,350,cs),
(264,313,o),
(232,291,o),
(191,291,cs)
);
}
);
width = 382;
},
{
layerId = m01;
shapes = (
{
closed = 1;
nodes = (
(186,219,l),
(213,199,o),
(246,188,o),
(282,188,cs),
(318,188,o),
(351,199,o),
(378,219,c),
(474,120,l),
(514,163,l),
(413,254,l),
(433,281,o),
(444,314,o),
(444,350,cs),
(444,386,o),
(432,419,o),
(413,446,c),
(514,538,l),
(474,581,l),
(377,481,l),
(350,501,o),
(318,512,o),
(282,512,cs),
(246,512,o),
(214,501,o),
(187,481,c),
(90,581,l),
(50,538,l),
(151,446,l),
(132,419,o),
(120,386,o),
(120,350,cs),
(120,314,o),
(131,281,o),
(151,254,c),
(50,163,l),
(90,120,l)
);
},
{
closed = 1;
nodes = (
(197,300,o),
(167,312,o),
(167,350,cs),
(167,387,o),
(197,399,o),
(282,399,cs),
(367,399,o),
(397,387,o),
(397,350,cs),
(397,312,o),
(367,300,o),
(282,300,cs)
);
}
);
width = 564;
}
);
metricLeft = "=50";
metricRight = "=|";
unicode = 164;
}
{
glyphname = yen;
layers = (
{
layerId = "60D037D9-62E9-4843-B070-F1594CB0B0D1";
shapes = (
{
closed = 1;
nodes = (
(276,297,l),
(276,256,o),
(275,159,o),
(272,0,c),
(303,0,l),
(300,159,o),
(299,256,o),
(299,297,c),
(415,297,l),
(423,331,o),
(489,569,o),
(526,700,c),
(493,700,l),
(459,530,o),
(417,390,o),
(406,362,cs),
(396,336,o),
(391,331,o),
(288,331,cs),
(186,331,o),
(180,338,o),
(170,364,cs),
(160,390,o),
(121,530,o),
(87,700,c),
(54,700,l),
(89,568,o),
(113,481,o),
(164,297,c)
);
},
{
closed = 1;
nodes = (
(391,209,l),
(357,207,o),
(324,207,o),
(290,207,cs),
(255,207,o),
(221,207,o),
(187,209,c),
(187,179,l),
(221,181,o),
(255,181,o),
(289,181,cs),
(324,181,o),
(357,181,o),
(391,179,c)
);
},
{
closed = 1;
nodes = (
(391,133,l),
(357,131,o),
(324,131,o),
(290,131,cs),
(255,131,o),
(221,131,o),
(187,133,c),
(187,103,l),
(221,105,o),
(255,105,o),
(289,105,cs),
(324,105,o),
(357,105,o),
(391,103,c)
);
}
);
width = 580;
},
{
background = {
shapes = (
{
closed = 1;
nodes = (
(275,274,l),
(275,204,o),
(274,104,o),
(270,0,c),
(356,0,l),
(352,104,o),
(351,204,o),
(351,274,c),
(504,274,l),
(530,420,o),
(557,539,o),
(596,700,c),
(513,700,l),
(506,618,o),
(499,567,o),
(487,537,cs),
(474,505,o),
(455,500,o),
(313,500,cs),
(171,500,o),
(152,505,o),
(139,537,cs),
(127,567,o),
(120,618,o),
(113,700,c),
(30,700,l),
(69,539,o),
(96,420,o),
(122,274,c)
);
},
{
closed = 1;
nodes = (
(447,229,l),
(356,226,o),
(356,226,o),
(314,226,cs),
(272,226,o),
(272,226,o),
(181,229,c),
(181,173,l),
(272,176,o),
(272,176,o),
(314,176,cs),
(356,176,o),
(356,176,o),
(447,173,c)
);
},
{
closed = 1;
nodes = (
(447,125,l),
(356,122,o),
(356,122,o),
(314,122,cs),
(272,122,o),
(272,122,o),
(181,125,c),
(181,69,l),
(272,72,o),
(272,72,o),
(314,72,cs),
(356,72,o),
(356,72,o),
(447,69,c)
);
}
);
};
layerId = m01;
shapes = (
{
closed = 1;
nodes = (
(275,274,l),
(275,204,o),
(274,104,o),
(270,0,c),
(356,0,l),
(352,104,o),
(351,204,o),
(351,274,c),
(504,274,l),
(530,420,o),
(557,539,o),
(596,700,c),
(513,700,l),
(506,618,o),
(499,567,o),
(487,537,cs),
(474,505,o),
(455,500,o),
(313,500,cs),
(171,500,o),
(152,505,o),
(139,537,cs),
(127,567,o),
(120,618,o),
(113,700,c),
(30,700,l),
(69,539,o),
(96,420,o),
(122,274,c)
);
},
{
closed = 1;
nodes = (
(447,229,l),
(356,226,o),
(356,226,o),
(314,226,cs),
(272,226,o),
(272,226,o),
(181,229,c),
(181,173,l),
(272,176,o),
(272,176,o),
(314,176,cs),
(356,176,o),
(356,176,o),
(447,173,c)
);
},
{
closed = 1;
nodes = (
(447,125,l),
(356,122,o),
(356,122,o),
(314,122,cs),
(272,122,o),
(272,122,o),
(181,125,c),
(181,69,l),
(272,72,o),
(272,72,o),
(314,72,cs),
(356,72,o),
(356,72,o),
(447,69,c)
);
}
);
width = 626;
}
);
metricLeft = V;
metricRight = V;
unicode = 165;
}
{
glyphname = brokenbar;
layers = (
{
layerId = "60D037D9-62E9-4843-B070-F1594CB0B0D1";
shapes = (
{
closed = 1;
nodes = (
(122,449,l),
(122,497,o),
(125,671,o),
(126,700,c),
(95,700,l),
(96,671,o),
(99,497,o),
(99,449,c)
);
},
{
closed = 1;
nodes = (
(99,203,o),
(96,29,o),
(95,0,c),
(126,0,l),
(125,29,o),
(122,203,o),
(122,251,c),
(99,251,l)
);
}
);
width = 221;
},
{
layerId = m01;
shapes = (
{
closed = 1;
nodes = (
(134,449,l),
(134,497,o),
(137,671,o),
(138,700,c),
(58,700,l),
(59,671,o),
(62,497,o),
(62,449,c)
);
},
{
closed = 1;
nodes = (
(62,203,o),
(59,29,o),
(58,0,c),
(138,0,l),
(137,29,o),
(134,203,o),
(134,251,c),
(62,251,l)
);
}
);
width = 196;
}
);
metricLeft = "=bar";
metricRight = "=|";
unicode = 166;
}
{
glyphname = section;
layers = (
{
background = {
shapes = (
{
closed = 1;
nodes = (
(50,181,o),
(124,145,o),
(261,103,cs),
(273,99,o),
(284,96,o),
(294,92,cs),
(403,53,o),
(437,6,o),
(437,-41,cs),
(437,-146,o),
(337,-165,o),
(257,-165,cs),
(208,-165,o),
(143,-149,o),
(107,-132,c),
(107,-172,l),
(154,-186,o),
(207,-195,o),
(253,-195,cs),
(384,-195,o),
(460,-142,o),
(460,-48,cs),
(460,16,o),
(428,61,o),
(332,101,c),
(403,122,o),
(460,162,o),
(460,243,cs),
(460,339,o),
(386,376,o),
(249,418,cs),
(237,422,o),
(226,425,o),
(216,429,c),
(107,468,o),
(73,515,o),
(73,562,cs),
(73,667,o),
(173,685,o),
(253,685,cs),
(302,685,o),
(367,670,o),
(403,653,c),
(403,693,l),
(356,707,o),
(303,716,o),
(257,716,cs),
(126,716,o),
(50,663,o),
(50,568,cs),
(50,504,o),
(81,460,o),
(178,420,c),
(107,399,o),
(50,359,o),
(50,278,cs)
);
},
{
closed = 1;
nodes = (
(76,358,o),
(156,391,o),
(224,403,c),
(242,397,ls),
(355,362,o),
(434,335,o),
(434,241,cs),
(434,163,o),
(354,130,o),
(286,118,c),
(268,124,ls),
(155,159,o),
(76,186,o),
(76,280,cs)
);
}
);
};
layerId = "60D037D9-62E9-4843-B070-F1594CB0B0D1";
shapes = (
{
closed = 1;
nodes = (
(50,196,o),
(124,145,o),
(261,103,cs),
(320,85,o),
(438,44,o),
(438,-41,cs),
(438,-138,o),
(333,-158,o),
(251,-158,cs),
(169,-158,o),
(104,-138,o),
(68,-122,c),
(68,-169,l),
(115,-183,o),
(168,-195,o),
(247,-195,cs),
(387,-195,o),
(460,-131,o),
(460,-46,cs),
(460,12,o),
(428,61,o),
(332,101,c),
(403,122,o),
(460,164,o),
(460,240,cs),
(460,331,o),
(386,376,o),
(249,418,cs),
(190,436,o),
(82,471,o),
(82,566,cs),
(82,650,o),
(154,681,o),
(236,681,cs),
(299,681,o),
(367,659,o),
(403,642,c),
(403,687,l),
(356,702,o),
(303,716,o),
(245,716,cs),
(131,716,o),
(61,659,o),
(61,572,cs),
(61,517,o),
(81,465,o),
(178,420,c),
(107,399,o),
(50,351,o),
(50,278,cs)
);
},
{
closed = 1;
nodes = (
(73,353,o),
(149,394,o),
(204,394,cs),
(251,394,o),
(436,361,o),
(436,240,cs),
(436,160,o),
(363,130,o),
(308,130,cs),
(261,130,o),
(73,159,o),
(73,279,cs)
);
}
);
width = 496;
},
{
background = {
shapes = (
{
closed = 1;
nodes = (
(92,190,o),
(184,162,o),
(279,143,cs),
(343,130,o),
(382,117,o),
(382,89,cs),
(382,68,o),
(367,58,o),
(314,58,cs),
(262,58,o),
(202,61,o),
(109,85,c),
(109,-145,l),
(143,-154,o),
(224,-166,o),
(295,-166,cs),
(449,-166,o),
(542,-116,o),
(542,0,cs),
(542,80,o),
(502,122,o),
(443,149,c),
(498,166,o),
(542,198,o),
(542,260,cs),
(542,354,o),
(450,379,o),
(355,401,cs),
(292,416,o),
(252,427,o),
(252,454,cs),
(252,476,o),
(267,486,o),
(320,486,cs),
(372,486,o),
(432,483,o),
(525,459,c),
(525,689,l),
(491,697,o),
(410,710,o),
(339,710,cs),
(185,710,o),
(92,660,o),
(92,544,cs),
(92,464,o),
(132,422,o),
(191,395,c),
(136,378,o),
(92,346,o),
(92,283,cs)
);
},
{
closed = 1;
nodes = (
(201,349,o),
(265,353,o),
(329,341,cs),
(410,327,o),
(451,294,o),
(443,250,cs),
(433,195,o),
(369,191,o),
(305,203,cs),
(224,217,o),
(183,250,o),
(191,294,cs)
);
}
);
};
layerId = m01;
shapes = (
{
closed = 1;
nodes = (
(92,190,o),
(184,162,o),
(279,143,cs),
(343,130,o),
(382,117,o),
(382,89,cs),
(382,68,o),
(367,58,o),
(314,58,cs),
(262,58,o),
(202,61,o),
(109,85,c),
(109,-145,l),
(143,-154,o),
(224,-166,o),
(295,-166,cs),
(449,-166,o),
(542,-116,o),
(542,0,cs),
(542,80,o),
(502,122,o),
(443,149,c),
(498,166,o),
(542,198,o),
(542,260,cs),
(542,354,o),
(450,379,o),
(355,401,cs),
(292,416,o),
(252,427,o),
(252,454,cs),
(252,476,o),
(267,486,o),
(320,486,cs),
(372,486,o),
(432,483,o),
(525,459,c),
(525,689,l),
(491,697,o),
(410,710,o),
(339,710,cs),
(185,710,o),
(92,660,o),
(92,544,cs),
(92,464,o),
(132,422,o),
(191,395,c),
(136,378,o),
(92,346,o),
(92,283,cs)
);
},
{
closed = 1;
nodes = (
(190,324,o),
(225,347,o),
(274,347,cs),
(319,347,o),
(444,327,o),
(444,263,cs),
(444,220,o),
(409,197,o),
(357,197,cs),
(312,197,o),
(190,218,o),
(190,283,cs)
);
}
);
width = 600;
}
);
unicode = 167;
}
{
glyphname = copyright;
layers = (
{
layerId = "60D037D9-62E9-4843-B070-F1594CB0B0D1";
shapes = (
{
closed = 1;
nodes = (
(431,265,o),
(503,362,o),
(503,490,cs),
(503,618,o),
(431,715,o),
(297,715,cs),
(163,715,o),
(94,618,o),
(94,490,cs),
(94,362,o),
(163,265,o),
(297,265,cs)
);
},
{
closed = 1;
nodes = (
(178,294,o),
(111,382,o),
(111,490,cs),
(111,596,o),
(178,686,o),
(297,686,cs),
(416,686,o),
(486,596,o),
(486,490,cs),
(486,382,o),
(416,294,o),
(297,294,cs)
);
},
{
closed = 1;
nodes = (
(333,355,o),
(357,361,o),
(369,366,c),
(369,399,l),
(353,390,o),
(327,384,o),
(304,384,cs),
(273,384,o),
(251,391,o),
(234,408,cs),
(212,429,o),
(201,452,o),
(201,497,cs),
(201,534,o),
(212,565,o),
(234,586,cs),
(251,602,o),
(273,610,o),
(304,610,cs),
(327,610,o),
(353,604,o),
(369,596,c),
(369,628,l),
(357,634,o),
(333,639,o),
(308,639,cs),
(231,639,o),
(186,585,o),
(186,497,cs),
(186,409,o),
(231,355,o),
(308,355,cs)
);
}
);
width = 600;
},
{
layerId = m01;
shapes = (
{
closed = 1;
nodes = (
(496,132,o),
(598,241,o),
(598,421,cs),
(598,601,o),
(496,710,o),
(318,710,cs),
(140,710,o),
(37,602,o),
(37,424,cs),
(37,242,o),
(140,132,o),
(318,132,cs)
);
},
{
closed = 1;
nodes = (
(169,225,o),
(81,292,o),
(81,421,cs),
(81,551,o),
(169,617,o),
(318,617,cs),
(467,617,o),
(554,551,o),
(554,421,cs),
(554,292,o),
(467,225,o),
(318,225,cs)
);
},
{
closed = 1;
nodes = (
(353,275,o),
(390,280,o),
(413,290,c),
(413,388,l),
(394,384,o),
(356,378,o),
(309,378,cs),
(274,378,o),
(250,383,o),
(237,393,cs),
(229,399,o),
(224,408,o),
(224,421,cs),
(224,434,o),
(229,443,o),
(237,449,cs),
(250,459,o),
(274,463,o),
(309,463,cs),
(356,463,o),
(394,457,o),
(413,453,c),
(413,553,l),
(398,558,o),
(363,566,o),
(333,566,cs),
(240,566,o),
(188,521,o),
(188,421,cs),
(188,320,o),
(238,275,o),
(327,275,cs)
);
}
);
width = 678;
}
);
unicode = 169;
}
{
glyphname = ordfeminine;
layers = (
{
layerId = "60D037D9-62E9-4843-B070-F1594CB0B0D1";
shapes = (
{
closed = 1;
nodes = (
(299,407,o),
(331,438,o),
(344,459,cs),
(352,472,o),
(354,475,o),
(358,475,cs),
(363,475,o),
(363,471,o),
(363,453,cs),
(363,443,o),
(363,426,o),
(362,413,c),
(389,413,l),
(386,530,o),
(386,534,o),
(386,576,cs),
(386,618,o),
(386,622,o),
(389,740,c),
(362,740,l),
(363,727,o),
(363,709,o),
(363,701,cs),
(363,683,o),
(363,678,o),
(358,678,cs),
(354,678,o),
(352,681,o),
(343,695,cs),
(330,714,o),
(304,746,o),
(239,746,cs),
(156,746,o),
(99,683,o),
(99,576,cs),
(99,471,o),
(156,407,o),
(239,407,cs)
);
},
{
closed = 1;
nodes = (
(161,437,o),
(118,487,o),
(118,576,cs),
(118,667,o),
(161,716,o),
(239,716,cs),
(319,716,o),
(366,673,o),
(366,576,cs),
(366,482,o),
(319,437,o),
(239,437,cs)
);
}
);
width = 436;
},
{
layerId = m01;
shapes = (
{
closed = 1;
nodes = (
(233,390,o),
(259,415,o),
(274,436,cs),
(286,452,o),
(292,459,o),
(297,459,cs),
(304,459,o),
(304,452,o),
(304,440,cs),
(304,429,o),
(303,418,o),
(301,401,c),
(355,401,l),
(354,421,o),
(354,513,o),
(354,565,cs),
(354,618,o),
(354,717,o),
(355,736,c),
(301,736,l),
(303,719,o),
(304,707,o),
(304,696,cs),
(304,684,o),
(304,677,o),
(297,677,cs),
(292,677,o),
(286,684,o),
(274,701,cs),
(259,721,o),
(233,746,o),
(167,746,cs),
(76,746,o),
(15,686,o),
(15,565,cs),
(15,443,o),
(76,390,o),
(167,390,cs)
);
},
{
closed = 1;
nodes = (
(101,518,o),
(63,529,o),
(63,565,cs),
(63,600,o),
(101,613,o),
(184,613,cs),
(272,613,o),
(305,600,o),
(305,565,cs),
(305,529,o),
(272,518,o),
(184,518,cs)
);
}
);
width = 371;
}
);
metricLeft = ordmasculine;
metricRight = hmod;
unicode = 170;
}
{
glyphname = logicalnot;
layers = (
{
layerId = "60D037D9-62E9-4843-B070-F1594CB0B0D1";
shapes = (
{
closed = 1;
nodes = (
(22,271,l),
(141,274,o),
(141,274,o),
(202,274,cs),
(256,274,o),
(261,274,o),
(349,271,c),
(352,185,o),
(352,173,o),
(348,87,c),
(381,87,l),
(378,159,o),
(378,159,o),
(378,196,cs),
(378,228,o),
(378,231,o),
(381,304,c),
(261,301,o),
(261,301,o),
(201,301,cs),
(141,301,o),
(141,301,o),
(22,304,c)
);
}
);
width = 403;
},
{
layerId = m01;
shapes = (
{
closed = 1;
nodes = (
(35,230,l),
(160,233,o),
(160,233,o),
(232,233,cs),
(289,233,o),
(289,233,o),
(381,230,c),
(381,204,o),
(381,204,o),
(378,119,c),
(429,119,l),
(426,204,o),
(426,204,o),
(426,230,cs),
(426,268,o),
(426,268,o),
(429,385,c),
(298,382,o),
(298,382,o),
(232,382,cs),
(166,382,o),
(166,382,o),
(35,385,c)
);
}
);
width = 464;
}
);
metricLeft = minus;
metricRight = minus;
unicode = 172;
}
{
glyphname = registered;
layers = (
{
layerId = "60D037D9-62E9-4843-B070-F1594CB0B0D1";
shapes = (
{
closed = 1;
nodes = (
(431,265,o),
(503,362,o),
(503,490,cs),
(503,618,o),
(431,715,o),
(297,715,cs),
(163,715,o),
(94,618,o),
(94,490,cs),
(94,362,o),
(163,265,o),
(297,265,cs)
);
},
{
closed = 1;
nodes = (
(178,294,o),
(111,382,o),
(111,490,cs),
(111,596,o),
(178,686,o),
(297,686,cs),
(416,686,o),
(486,596,o),
(486,490,cs),
(486,382,o),
(416,294,o),
(297,294,cs)
);
},
{
closed = 1;
nodes = (
(225,357,l),
(222,405,o),
(222,405,o),
(222,448,cs),
(222,467,o),
(222,471,o),
(225,473,cs),
(228,476,o),
(240,477,o),
(295,477,c),
(323,392,o),
(345,354,o),
(385,354,cs),
(402,354,o),
(408,355,o),
(412,357,c),
(412,382,l),
(407,380,o),
(399,378,o),
(393,378,cs),
(364,378,o),
(345,384,o),
(311,477,c),
(357,477,o),
(394,508,o),
(394,557,cs),
(394,610,o),
(357,640,o),
(310,640,cs),
(203,640,l),
(206,542,o),
(206,542,o),
(206,497,cs),
(206,452,o),
(206,452,o),
(203,357,c)
);
},
{
closed = 1;
nodes = (
(234,496,o),
(230,496,o),
(226,499,cs),
(222,502,o),
(221,507,o),
(221,557,cs),
(221,607,o),
(222,611,o),
(226,614,cs),
(230,617,o),
(234,617,o),
(271,617,cs),
(312,617,o),
(322,617,o),
(334,614,cs),
(352,610,o),
(380,594,o),
(380,557,cs),
(380,516,o),
(350,504,o),
(332,499,cs),
(321,496,o),
(308,496,o),
(271,496,cs)
);
}
);
width = 600;
},
{
layerId = m01;
shapes = (
{
closed = 1;
nodes = (
(496,132,o),
(599,241,o),
(599,421,cs),
(599,601,o),
(496,710,o),
(318,710,cs),
(140,710,o),
(37,602,o),
(37,424,cs),
(37,242,o),
(140,132,o),
(318,132,cs)
);
},
{
closed = 1;
nodes = (
(168,225,o),
(80,291,o),
(80,421,cs),
(80,551,o),
(168,617,o),
(318,617,cs),
(468,617,o),
(555,551,o),
(555,421,cs),
(555,291,o),
(468,225,o),
(318,225,cs)
);
},
{
closed = 1;
nodes = (
(243,284,l),
(242,299,o),
(240,333,o),
(240,346,cs),
(240,365,o),
(242,376,o),
(248,384,cs),
(255,393,o),
(266,394,o),
(281,394,c),
(281,324,o),
(327,281,o),
(387,281,cs),
(417,281,o),
(439,285,o),
(450,289,c),
(450,396,l),
(432,383,o),
(397,372,o),
(367,372,cs),
(342,372,o),
(320,383,o),
(320,395,c),
(396,395,o),
(446,414,o),
(446,478,cs),
(446,547,o),
(407,572,o),
(353,572,cs),
(199,572,l),
(202,474,o),
(202,474,o),
(202,428,cs),
(202,382,o),
(202,382,o),
(199,284,c)
);
},
{
closed = 1;
nodes = (
(284,422,o),
(264,424,o),
(254,428,cs),
(244,432,o),
(239,438,o),
(239,446,cs),
(239,454,o),
(244,460,o),
(254,464,cs),
(264,468,o),
(284,470,o),
(316,470,cs),
(351,470,o),
(372,468,o),
(382,464,cs),
(392,460,o),
(397,454,o),
(397,446,cs),
(397,438,o),
(392,432,o),
(382,428,cs),
(372,424,o),
(351,422,o),
(316,422,cs)
);
}
);
width = 644;
}
);
unicode = 174;
}
{
glyphname = degree;
kernLeft = KO_degree;
kernRight = KO_degree;
layers = (
{
layerId = "60D037D9-62E9-4843-B070-F1594CB0B0D1";
shapes = (
{
closed = 1;
nodes = (
(198,478,o),
(238,522,o),
(238,596,cs),
(238,669,o),
(198,714,o),
(129,714,cs),
(61,714,o),
(20,669,o),
(20,596,cs),
(20,522,o),
(61,478,o),
(129,478,cs)
);
},
{
closed = 1;
nodes = (
(70,513,o),
(37,546,o),
(37,596,cs),
(37,645,o),
(70,679,o),
(129,679,cs),
(188,679,o),
(221,645,o),
(221,596,cs),
(221,546,o),
(188,513,o),
(129,513,cs)
);
}
);
width = 260;
},
{
layerId = m01;
shapes = (
{
closed = 1;
nodes = (
(211,455,o),
(246,492,o),
(246,583,cs),
(246,673,o),
(210,710,o),
(133,710,cs),
(56,710,o),
(20,673,o),
(20,583,cs),
(20,492,o),
(55,455,o),
(133,455,cs)
);
},
{
closed = 1;
nodes = (
(73,554,o),
(52,561,o),
(52,583,cs),
(52,604,o),
(73,611,o),
(133,611,cs),
(193,611,o),
(214,604,o),
(214,583,cs),
(214,561,o),
(193,554,o),
(133,554,cs)
);
}
);
width = 266;
}
);
unicode = 176;
}
{
glyphname = micro;
layers = (
{
layerId = "60D037D9-62E9-4843-B070-F1594CB0B0D1";
shapes = (
{
closed = 1;
nodes = (
(112,-174,l),
(109,60,l),
(133,13,o),
(178,-16,o),
(245,-16,cs),
(346,-16,o),
(396,42,o),
(416,72,cs),
(430,93,o),
(433,97,o),
(440,97,cs),
(447,97,o),
(448,90,o),
(448,50,cs),
(448,33,o),
(448,17,o),
(446,0,c),
(475,0,l),
(472,133,o),
(471,206,o),
(471,267,cs),
(471,332,o),
(472,384,o),
(475,480,c),
(445,480,l),
(448,403,o),
(449,295,o),
(449,231,cs),
(449,109,o),
(385,21,o),
(254,21,cs),
(188,21,o),
(110,51,o),
(110,175,cs),
(110,298,o),
(112,403,o),
(115,480,c),
(85,480,l),
(88,370,o),
(89,260,o),
(89,150,cs),
(89,49,o),
(89,47,o),
(86,-174,c)
);
}
);
width = 560;
},
{
layerId = m01;
shapes = (
{
closed = 1;
nodes = (
(106,-200,l),
(103,20,l),
(134,0,o),
(172,-8,o),
(211,-8,cs),
(293,-8,o),
(330,38,o),
(352,67,cs),
(371,92,o),
(378,100,o),
(385,100,cs),
(394,100,o),
(394,88,o),
(394,69,cs),
(394,46,o),
(393,23,o),
(391,0,c),
(462,0,l),
(461,29,o),
(461,172,o),
(461,251,cs),
(461,329,o),
(461,471,o),
(462,500,c),
(390,500,l),
(393,454,o),
(394,383,o),
(394,324,cs),
(394,243,o),
(383,237,o),
(249,237,cs),
(116,237,o),
(105,243,o),
(105,324,cs),
(105,364,o),
(105,454,o),
(108,500,c),
(36,500,l),
(39,438,o),
(40,267,o),
(40,150,cs),
(40,39,o),
(40,39,o),
(37,-200,c)
);
}
);
width = 499;
}
);
unicode = 181;
}
{
glyphname = paragraph;
layers = (
{
layerId = "60D037D9-62E9-4843-B070-F1594CB0B0D1";
shapes = (
{
closed = 1;
nodes = (
(382,-152,l),
(379,139,o),
(379,139,o),
(379,343,cs),
(379,621,o),
(379,622,o),
(389,632,cs),
(395,637,o),
(410,639,o),
(420,639,cs),
(430,639,o),
(445,637,o),
(451,632,cs),
(461,622,o),
(461,621,o),
(461,343,cs),
(461,139,o),
(461,139,o),
(458,-152,c),
(490,-152,l),
(487,139,o),
(487,139,o),
(487,274,cs),
(487,409,o),
(487,409,o),
(490,700,c),
(294,700,l),
(162,700,o),
(95,624,o),
(95,516,cs),
(95,409,o),
(150,331,o),
(283,331,cs),
(314,331,o),
(329,326,o),
(339,314,cs),
(352,299,o),
(353,268,o),
(353,240,cs),
(353,163,o),
(349,-123,o),
(347,-152,c)
);
}
);
width = 585;
},
{
background = {
shapes = (
{
closed = 1;
nodes = (
(433,-135,l),
(430,150,o),
(430,150,o),
(430,283,cs),
(430,415,o),
(430,415,o),
(433,700,c),
(318,700,ls),
(146,700,o),
(74,619,o),
(74,484,cs),
(74,339,o),
(147,270,o),
(319,270,cs),
(343,270,o),
(366,265,o),
(371,230,cs),
(372,220,o),
(373,195,o),
(373,162,cs),
(373,73,o),
(369,-106,o),
(367,-135,c)
);
},
{
closed = 1;
nodes = (
(571,-135,l),
(568,150,o),
(568,150,o),
(568,283,cs),
(568,415,o),
(568,415,o),
(571,700,c),
(509,700,l),
(512,415,o),
(512,415,o),
(512,283,cs),
(512,150,o),
(512,150,o),
(509,-135,c)
);
},
{
pos = (294,887);
ref = L;
scale = (1,-1);
}
);
};
layerId = m01;
shapes = (
{
closed = 1;
nodes = (
(433,-135,l),
(430,150,o),
(430,150,o),
(430,350,cs),
(430,622,o),
(430,623,o),
(440,633,cs),
(446,639,o),
(461,641,o),
(471,641,cs),
(481,641,o),
(496,639,o),
(502,633,cs),
(512,623,o),
(512,622,o),
(512,350,cs),
(512,150,o),
(512,150,o),
(509,-135,c),
(582,-135,l),
(579,150,o),
(579,150,o),
(579,283,cs),
(579,415,o),
(579,415,o),
(582,700,c),
(296,700,l),
(138,700,o),
(58,611,o),
(58,485,cs),
(58,359,o),
(124,270,o),
(282,270,cs),
(320,270,o),
(336,262,o),
(349,248,cs),
(364,231,o),
(366,195,o),
(366,162,cs),
(366,73,o),
(362,-106,o),
(360,-135,c)
);
}
);
width = 640;
}
);
metricLeft = P;
metricRight = H;
unicode = 182;
}
{
glyphname = ordmasculine;
layers = (
{
layerId = "60D037D9-62E9-4843-B070-F1594CB0B0D1";
shapes = (
{
closed = 1;
nodes = (
(337,407,o),
(391,477,o),
(391,575,cs),
(391,673,o),
(337,746,o),
(244,746,cs),
(151,746,o),
(99,673,o),
(99,575,cs),
(99,477,o),
(151,407,o),
(244,407,cs)
);
},
{
closed = 1;
nodes = (
(163,437,o),
(118,493,o),
(118,575,cs),
(118,657,o),
(163,716,o),
(244,716,cs),
(325,716,o),
(372,657,o),
(372,575,cs),
(372,493,o),
(325,437,o),
(244,437,cs)
);
}
);
width = 462;
},
{
layerId = m01;
shapes = (
{
closed = 1;
nodes = (
(293,389,o),
(350,443,o),
(350,571,cs),
(350,700,o),
(292,746,o),
(182,746,cs),
(73,746,o),
(15,700,o),
(15,571,cs),
(15,443,o),
(72,389,o),
(182,389,cs)
);
},
{
closed = 1;
nodes = (
(92,519,o),
(60,532,o),
(60,568,cs),
(60,604,o),
(92,616,o),
(182,616,cs),
(273,616,o),
(305,604,o),
(305,568,cs),
(305,532,o),
(273,519,o),
(182,519,cs)
);
}
);
width = 365;
}
);
unicode = 186;
}
{
glyphname = AE;
kernLeft = KO_AE;
kernRight = KO_AE;
layers = (
{
anchors = (
{
name = bottom;
pos = (484,0);
},
{
name = top;
pos = (484,700);
}
);
background = {
shapes = (
{
closed = 1;
nodes = (
(86,0,l),
(90,21,o),
(124,187,o),
(141,202,cs),
(153,212,o),
(164,214,o),
(275,214,cs),
(399,214,o),
(416,213,o),
(423,208,cs),
(433,201,o),
(436,179,o),
(436,0,c),
(782,0,l),
(782,36,l),
(720,36,o),
(658,36,o),
(596,36,cs),
(489,36,o),
(477,37,o),
(470,42,cs),
(462,48,o),
(459,62,o),
(459,195,cs),
(459,301,o),
(460,341,o),
(470,348,cs),
(477,353,o),
(495,354,o),
(549,354,cs),
(635,354,o),
(635,354,o),
(764,351,c),
(764,387,l),
(635,384,o),
(635,384,o),
(550,384,cs),
(495,384,o),
(477,385,o),
(470,390,cs),
(462,396,o),
(459,411,o),
(459,524,cs),
(459,637,o),
(462,652,o),
(470,658,cs),
(477,663,o),
(489,664,o),
(596,664,cs),
(658,664,o),
(720,664,o),
(782,664,c),
(782,700,l),
(219,700,l),
(170,468,o),
(120,232,o),
(54,0,c)
);
},
{
closed = 1;
nodes = (
(188,243,o),
(176,244,o),
(164,249,cs),
(146,256,o),
(147,264,o),
(193,464,cs),
(233,639,o),
(236,651,o),
(243,656,cs),
(250,661,o),
(275,661,o),
(334,661,cs),
(419,661,o),
(426,659,o),
(431,655,cs),
(437,650,o),
(437,649,o),
(437,463,cs),
(437,271,o),
(434,256,o),
(424,249,cs),
(417,244,o),
(399,243,o),
(291,243,cs)
);
}
);
};
layerId = "60D037D9-62E9-4843-B070-F1594CB0B0D1";
shapes = (
{
closed = 1;
nodes = (
(88,0,l),
(91,21,o),
(123,187,o),
(140,202,cs),
(152,212,o),
(164,214,o),
(275,214,cs),
(399,214,o),
(416,213,o),
(423,208,cs),
(433,201,o),
(436,179,o),
(436,0,c),
(781,0,l),
(781,36,l),
(719,36,o),
(657,36,o),
(595,36,cs),
(488,36,o),
(476,37,o),
(469,42,cs),
(461,48,o),
(458,62,o),
(458,195,cs),
(458,301,o),
(459,341,o),
(469,348,cs),
(476,353,o),
(494,354,o),
(548,354,cs),
(634,354,o),
(634,354,o),
(763,351,c),
(763,387,l),
(634,384,o),
(634,384,o),
(549,384,cs),
(494,384,o),
(477,385,o),
(470,390,cs),
(462,396,o),
(459,411,o),
(459,524,cs),
(459,637,o),
(462,652,o),
(470,658,cs),
(477,663,o),
(488,664,o),
(595,664,cs),
(657,664,o),
(719,664,o),
(781,664,c),
(781,700,l),
(217,700,l),
(170,468,o),
(120,232,o),
(54,0,c)
);
},
{
closed = 1;
nodes = (
(154,243,o),
(151,246,o),
(151,266,cs),
(151,288,o),
(162,337,o),
(191,464,cs),
(231,639,o),
(234,651,o),
(241,656,cs),
(248,661,o),
(274,661,o),
(334,661,cs),
(419,661,o),
(426,659,o),
(431,655,cs),
(437,650,o),
(437,649,o),
(437,463,cs),
(437,271,o),
(434,256,o),
(424,249,cs),
(417,244,o),
(399,243,o),
(291,243,cs)
);
}
);
width = 831;
},
{
anchors = (
{
name = bottom;
pos = (560,0);
},
{
name = top;
pos = (560,700);
}
);
background = {
shapes = (
{
closed = 1;
nodes = (
(135,0,l),
(132,43,o),
(129,97,o),
(159,115,cs),
(171,122,o),
(191,131,o),
(321,131,cs),
(452,131,o),
(472,122,o),
(484,115,cs),
(514,97,o),
(511,43,o),
(508,0,c),
(920,0,l),
(920,249,l),
(910,248,o),
(815,246,o),
(770,246,cs),
(628,246,o),
(605,248,o),
(586,262,cs),
(579,269,o),
(574,273,o),
(574,287,cs),
(574,301,o),
(579,307,o),
(586,313,cs),
(605,327,o),
(669,325,o),
(770,325,cs),
(823,325,o),
(868,324,o),
(890,323,c),
(890,395,l),
(868,394,o),
(823,393,o),
(770,393,cs),
(669,393,o),
(596,392,o),
(582,404,cs),
(576,409,o),
(574,415,o),
(574,423,cs),
(574,431,o),
(576,437,o),
(582,442,cs),
(596,454,o),
(628,455,o),
(770,455,cs),
(815,455,o),
(907,453,o),
(917,452,c),
(920,700,l),
(199,700,l),
(145,427,o),
(88,208,o),
(30,0,c)
);
},
{
closed = 1;
nodes = (
(304,350,o),
(239,353,o),
(216,376,cs),
(210,382,o),
(207,390,o),
(207,403,cs),
(207,416,o),
(210,424,o),
(216,430,cs),
(239,453,o),
(306,456,o),
(348,456,cs),
(390,456,o),
(457,453,o),
(480,430,cs),
(486,424,o),
(489,416,o),
(489,403,cs),
(489,390,o),
(486,382,o),
(480,376,cs),
(457,353,o),
(392,350,o),
(348,350,cs)
);
}
);
};
layerId = m01;
shapes = (
{
closed = 1;
nodes = (
(122,0,l),
(126,48,o),
(133,92,o),
(152,110,cs),
(173,129,o),
(189,131,o),
(321,131,cs),
(453,131,o),
(467,129,o),
(488,110,cs),
(507,92,o),
(509,43,o),
(509,0,c),
(920,0,l),
(920,249,l),
(910,248,o),
(815,246,o),
(770,246,cs),
(628,246,o),
(604,249,o),
(586,262,cs),
(578,268,o),
(574,276,o),
(574,287,cs),
(574,299,o),
(578,307,o),
(586,313,cs),
(602,325,o),
(669,325,o),
(712,325,cs),
(751,325,o),
(751,325,o),
(890,322,c),
(890,396,l),
(751,393,o),
(751,393,o),
(712,393,cs),
(669,393,o),
(596,395,o),
(582,405,cs),
(574,411,o),
(574,419,o),
(574,424,cs),
(574,429,o),
(576,437,o),
(582,442,cs),
(596,454,o),
(628,455,o),
(770,455,cs),
(815,455,o),
(907,453,o),
(917,452,c),
(920,700,l),
(199,700,l),
(145,427,o),
(88,208,o),
(30,0,c)
);
},
{
closed = 1;
nodes = (
(304,350,o),
(239,353,o),
(216,376,cs),
(210,382,o),
(207,390,o),
(207,403,cs),
(207,416,o),
(210,424,o),
(216,430,cs),
(239,453,o),
(306,456,o),
(348,456,cs),
(390,456,o),
(457,453,o),
(480,430,cs),
(486,424,o),
(489,416,o),
(489,403,cs),
(489,390,o),
(486,382,o),
(480,376,cs),
(457,353,o),
(392,350,o),
(348,350,cs)
);
}
);
width = 956;
}
);
metricLeft = A;
metricRight = E;
unicode = 198;
}
{
glyphname = multiply;
layers = (
{
layerId = "60D037D9-62E9-4843-B070-F1594CB0B0D1";
shapes = (
{
closed = 1;
nodes = (
(50,85,l),
(161,196,o),
(161,196,o),
(216,250,cs),
(274,306,o),
(274,306,o),
(391,411,c),
(366,434,l),
(256,323,o),
(256,323,o),
(197,267,cs),
(140,213,o),
(140,213,o),
(26,109,c)
);
},
{
closed = 1;
nodes = (
(387,108,l),
(273,213,o),
(273,213,o),
(214,268,cs),
(158,321,o),
(158,321,o),
(48,432,c),
(22,409,l),
(139,303,o),
(139,303,o),
(196,248,cs),
(252,194,o),
(252,194,o),
(363,83,c)
);
}
);
width = 413;
},
{
layerId = m01;
shapes = (
{
closed = 1;
nodes = (
(145,64,l),
(231,154,o),
(231,154,o),
(282,205,cs),
(329,252,o),
(329,252,o),
(423,342,c),
(314,452,l),
(224,357,o),
(224,357,o),
(177,310,cs),
(130,263,o),
(130,263,o),
(35,173,c)
);
},
{
closed = 1;
nodes = (
(413,116,l),
(307,211,o),
(307,211,o),
(239,280,cs),
(183,336,o),
(183,336,o),
(79,453,c),
(35,410,l),
(150,299,o),
(150,299,o),
(206,243,cs),
(271,178,o),
(271,178,o),
(371,71,c)
);
}
);
width = 458;
}
);
metricLeft = minus;
metricRight = minus;
unicode = 215;
}
{
glyphname = Thorn;
kernLeft = KO_H;
kernRight = KO_Thorn;
layers = (
{
layerId = "60D037D9-62E9-4843-B070-F1594CB0B0D1";
shapes = (
{
closed = 1;
nodes = (
(126,0,l),
(123,50,o),
(123,50,o),
(123,66,cs),
(123,84,o),
(124,107,o),
(130,118,cs),
(139,134,o),
(166,134,o),
(310,134,cs),
(461,134,o),
(540,243,o),
(540,351,cs),
(540,484,o),
(461,574,o),
(310,574,cs),
(160,574,o),
(140,577,o),
(131,585,cs),
(124,591,o),
(123,607,o),
(123,632,cs),
(123,652,o),
(123,652,o),
(126,700,c),
(95,700,l),
(98,433,o),
(98,433,o),
(98,350,cs),
(98,267,o),
(98,267,o),
(95,0,c)
);
},
{
closed = 1;
nodes = (
(122,488,o),
(123,510,o),
(129,520,cs),
(137,534,o),
(148,535,o),
(306,535,cs),
(397,535,o),
(447,507,o),
(480,466,cs),
(505,435,o),
(518,396,o),
(518,351,cs),
(518,306,o),
(505,267,o),
(480,236,cs),
(449,198,o),
(405,167,o),
(306,167,cs),
(169,167,o),
(137,170,o),
(129,181,cs),
(123,189,o),
(122,211,o),
(122,351,cs)
);
}
);
width = 588;
},
{
background = {
shapes = (
{
closed = 1;
nodes = (
(143,0,l),
(139,54,o),
(141,82,o),
(151,95,cs),
(167,115,o),
(189,125,o),
(379,128,cs),
(537,130,o),
(628,198,o),
(628,355,cs),
(628,503,o),
(547,582,o),
(411,582,cs),
(311,582,ls),
(189,582,o),
(165,589,o),
(149,609,cs),
(139,622,o),
(137,646,o),
(141,700,c),
(58,700,l),
(65,320,o),
(66,447,o),
(60,0,c)
);
},
{
closed = 1;
nodes = (
(134,286,o),
(143,310,o),
(170,322,cs),
(195,332,o),
(245,338,o),
(321,338,cs),
(406,338,o),
(456,332,o),
(481,322,cs),
(508,310,o),
(518,286,o),
(518,264,cs),
(518,244,o),
(508,219,o),
(481,208,cs),
(456,198,o),
(406,190,o),
(321,190,cs),
(245,190,o),
(195,197,o),
(170,208,cs),
(143,218,o),
(134,240,o),
(134,264,cs)
);
}
);
};
layerId = m01;
shapes = (
{
closed = 1;
nodes = (
(143,0,l),
(142,12,o),
(141,26,o),
(141,39,cs),
(141,61,o),
(143,82,o),
(152,95,cs),
(167,118,o),
(192,126,o),
(341,126,cs),
(538,126,o),
(629,192,o),
(629,353,cs),
(629,501,o),
(545,581,o),
(412,581,cs),
(183,581,o),
(168,591,o),
(153,603,cs),
(141,612,o),
(139,636,o),
(139,657,cs),
(139,669,o),
(139,683,o),
(141,700,c),
(58,700,l),
(61,628,o),
(63,414,o),
(63,350,cs),
(63,170,o),
(63,52,o),
(60,0,c)
);
},
{
closed = 1;
nodes = (
(135,286,o),
(144,307,o),
(171,318,cs),
(196,328,o),
(246,336,o),
(322,336,cs),
(407,336,o),
(457,328,o),
(482,318,cs),
(509,307,o),
(519,286,o),
(519,262,cs),
(519,238,o),
(509,217,o),
(482,206,cs),
(457,196,o),
(407,188,o),
(322,188,cs),
(246,188,o),
(196,196,o),
(171,206,cs),
(144,217,o),
(135,238,o),
(135,262,cs)
);
}
);
width = 676;
}
);
metricLeft = P;
metricRight = P;
unicode = 222;
}
{
glyphname = germandbls;
kernRight = KO_germandbls;
layers = (
{
layerId = "60D037D9-62E9-4843-B070-F1594CB0B0D1";
shapes = (
{
closed = 1;
nodes = (
(127,0,l),
(124,386,o),
(124,386,o),
(124,462,cs),
(124,526,o),
(143,583,o),
(176,621,cs),
(208,658,o),
(257,678,o),
(324,678,cs),
(396,678,o),
(482,627,o),
(482,535,cs),
(482,464,o),
(424,381,o),
(310,381,cs),
(284,381,o),
(252,381,o),
(215,383,c),
(215,350,l),
(252,352,o),
(276,352,o),
(322,352,cs),
(436,352,o),
(503,277,o),
(503,197,cs),
(503,92,o),
(429,22,o),
(296,22,cs),
(244,22,o),
(203,29,o),
(170,40,c),
(170,-1,l),
(205,-11,o),
(243,-16,o),
(285,-16,cs),
(449,-16,o),
(529,71,o),
(529,189,cs),
(529,261,o),
(494,324,o),
(424,357,cs),
(413,362,o),
(405,366,o),
(405,370,cs),
(405,373,o),
(410,377,o),
(424,386,cs),
(481,423,o),
(507,481,o),
(507,538,cs),
(507,647,o),
(423,716,o),
(322,716,cs),
(186,716,o),
(120,628,o),
(106,525,cs),
(102,493,o),
(100,451,o),
(100,395,cs),
(100,261,o),
(100,261,o),
(95,0,c)
);
}
);
width = 574;
},
{
layerId = m01;
shapes = (
{
closed = 1;
nodes = (
(129,0,l),
(126,57,o),
(125,146,o),
(125,263,cs),
(125,385,o),
(126,443,o),
(168,481,cs),
(198,508,o),
(245,513,o),
(276,513,cs),
(356,513,o),
(399,487,o),
(399,450,cs),
(399,413,o),
(365,386,o),
(304,386,cs),
(279,386,o),
(252,387,o),
(220,390,c),
(220,328,l),
(252,331,o),
(271,331,o),
(296,331,cs),
(364,331,o),
(400,296,o),
(400,262,cs),
(400,213,o),
(354,187,o),
(289,187,cs),
(260,187,o),
(222,189,o),
(177,198,c),
(177,-4,l),
(219,-8,o),
(255,-10,o),
(276,-10,cs),
(429,-10,o),
(546,39,o),
(546,173,cs),
(546,251,o),
(491,293,o),
(464,311,cs),
(431,333,o),
(418,345,o),
(418,360,cs),
(418,375,o),
(430,386,o),
(461,411,cs),
(489,434,o),
(528,476,o),
(528,540,cs),
(528,654,o),
(440,710,o),
(307,710,cs),
(153,710,o),
(98,612,o),
(80,545,cs),
(66,493,o),
(61,441,o),
(61,293,cs),
(61,195,o),
(61,98,o),
(58,0,c)
);
}
);
width = 586;
}
);
metricLeft = B;
metricRight = B;
unicode = 223;
}
{
glyphname = ae;
kernLeft = KO_ae;
kernRight = KO_e;
layers = (
{
anchors = (
{
name = bottom;
pos = (427,0);
},
{
name = top;
pos = (425,520);
}
);
layerId = "60D037D9-62E9-4843-B070-F1594CB0B0D1";
shapes = (
{
closed = 1;
nodes = (
(296,-16,o),
(357,21,o),
(388,71,cs),
(405,98,o),
(415,125,o),
(422,156,c),
(447,43,o),
(521,-16,o),
(638,-16,cs),
(687,-16,o),
(729,-9,o),
(776,5,c),
(776,45,l),
(720,27,o),
(680,20,o),
(634,20,cs),
(497,20,o),
(432,96,o),
(432,252,c),
(806,252,l),
(806,416,o),
(742,496,o),
(610,496,cs),
(525,496,o),
(456,444,o),
(428,358,c),
(412,456,o),
(359,496,o),
(237,496,cs),
(200,496,o),
(150,489,o),
(106,478,c),
(106,438,l),
(157,452,o),
(200,459,o),
(240,459,cs),
(369,459,o),
(413,413,o),
(413,279,c),
(302,279,o),
(220,275,o),
(164,262,cs),
(91,245,o),
(54,196,o),
(54,129,cs),
(54,37,o),
(115,-16,o),
(223,-16,cs)
);
},
{
closed = 1;
nodes = (
(127,20,o),
(76,62,o),
(76,129,cs),
(76,198,o),
(126,227,o),
(167,238,cs),
(199,247,o),
(285,252,o),
(412,252,c),
(412,96,o),
(348,20,o),
(220,20,cs)
);
},
{
closed = 1;
nodes = (
(441,387,o),
(512,459,o),
(610,459,cs),
(721,459,o),
(785,394,o),
(785,279,c),
(433,279,l)
);
}
);
width = 842;
},
{
anchors = (
{
name = bottom;
pos = (419,0);
},
{
name = top;
pos = (444,530);
}
);
layerId = m01;
shapes = (
{
closed = 1;
nodes = (
(307,-8,o),
(356,13,o),
(406,64,cs),
(418,76,o),
(428,91,o),
(437,108,c),
(477,30,o),
(560,-8,o),
(690,-8,cs),
(750,-8,o),
(788,-3,o),
(834,11,c),
(834,203,l),
(755,185,o),
(704,178,o),
(645,178,cs),
(539,178,o),
(487,193,o),
(471,230,c),
(845,230,l),
(845,436,o),
(789,508,o),
(626,508,cs),
(549,508,o),
(488,477,o),
(450,418,c),
(419,482,o),
(356,508,o),
(226,508,cs),
(172,508,o),
(111,499,o),
(58,484,c),
(58,325,l),
(107,346,o),
(190,363,o),
(244,363,cs),
(343,363,o),
(394,339,o),
(406,285,c),
(285,285,o),
(201,285,o),
(145,274,cs),
(55,257,o),
(30,209,o),
(30,151,cs),
(30,51,o),
(106,-8,o),
(236,-8,cs)
);
},
{
closed = 1;
nodes = (
(172,166,o),
(133,177,o),
(133,201,cs),
(133,220,o),
(174,230,o),
(246,230,cs),
(297,230,o),
(365,230,o),
(406,230,c),
(406,201,o),
(344,166,o),
(242,166,cs)
);
},
{
closed = 1;
nodes = (
(477,317,o),
(540,343,o),
(626,343,cs),
(717,343,o),
(780,317,o),
(780,285,c),
(477,285,l)
);
}
);
width = 877;
}
);
metricLeft = a;
metricRight = e;
unicode = 230;
}
{
glyphname = eth;
layers = (
{
background = {
shapes = (
{
pos = (1,0);
ref = o;
}
);
};
layerId = "60D037D9-62E9-4843-B070-F1594CB0B0D1";
shapes = (
{
closed = 1;
nodes = (
(385,-16,o),
(478,81,o),
(478,274,cs),
(478,335,o),
(466,423,o),
(452,471,cs),
(425,565,o),
(370,630,o),
(324,669,cs),
(279,707,o),
(203,732,o),
(147,732,c),
(147,698,l),
(185,698,o),
(234,690,o),
(273,669,cs),
(395,603,o),
(446,456,o),
(446,394,cs),
(446,387,o),
(444,386,o),
(441,386,cs),
(437,386,o),
(434,388,o),
(428,398,cs),
(409,427,o),
(357,496,o),
(264,496,cs),
(129,496,o),
(54,388,o),
(54,240,cs),
(54,92,o),
(129,-16,o),
(266,-16,cs)
);
},
{
closed = 1;
nodes = (
(139,22,o),
(77,101,o),
(77,240,cs),
(77,379,o),
(141,459,o),
(266,459,cs),
(370,459,o),
(453,381,o),
(453,240,cs),
(453,101,o),
(372,22,o),
(266,22,cs)
);
},
{
closed = 1;
nodes = (
(237,578,o),
(265,604,o),
(297,634,cs),
(328,663,o),
(358,690,o),
(390,716,c),
(370,738,l),
(341,709,o),
(310,681,o),
(279,653,cs),
(248,625,o),
(218,598,o),
(186,572,c),
(206,550,l)
);
}
);
width = 532;
},
{
background = {
shapes = (
{
angle = 47;
pos = (389,299);
ref = centerstrokecomb;
},
{
ref = o;
}
);
};
layerId = m01;
shapes = (
{
closed = 1;
nodes = (
(417,-8,o),
(514,61,o),
(514,247,cs),
(514,352,o),
(494,451,o),
(451,530,cs),
(413,600,o),
(368,653,o),
(318,690,cs),
(252,738,o),
(178,761,o),
(100,761,c),
(100,552,l),
(136,552,o),
(235,552,o),
(320,514,cs),
(380,487,o),
(418,438,o),
(419,417,cs),
(419,412,o),
(418,409,o),
(413,409,cs),
(407,409,o),
(399,413,o),
(387,421,cs),
(366,435,o),
(324,458,o),
(259,458,cs),
(121,458,o),
(30,393,o),
(30,225,cs),
(30,57,o),
(112,-8,o),
(272,-8,cs)
);
},
{
closed = 1;
nodes = (
(136,180,o),
(90,198,o),
(90,250,cs),
(90,302,o),
(136,320,o),
(272,320,cs),
(408,320,o),
(454,302,o),
(454,250,cs),
(454,198,o),
(408,180,o),
(272,180,cs)
);
},
{
closed = 1;
nodes = (
(254,506,o),
(289,544,o),
(323,580,cs),
(357,617,o),
(391,653,o),
(427,688,c),
(389,724,l),
(357,687,o),
(322,649,o),
(288,613,cs),
(254,576,o),
(220,540,o),
(184,505,c),
(222,469,l)
);
}
);
width = 544;
}
);
metricLeft = o;
metricRight = o;
unicode = 240;
}
{
glyphname = thorn;
kernLeft = KO_h;
layers = (
{
layerId = "60D037D9-62E9-4843-B070-F1594CB0B0D1";
shapes = (
{
closed = 1;
nodes = (
(124,-207,l),
(123,-178,o),
(122,-24,o),
(122,53,cs),
(122,80,o),
(122,87,o),
(129,87,cs),
(136,87,o),
(139,83,o),
(153,62,cs),
(173,32,o),
(223,-16,o),
(309,-16,cs),
(434,-16,o),
(512,80,o),
(512,240,cs),
(512,400,o),
(434,496,o),
(309,496,cs),
(218,496,o),
(173,448,o),
(153,418,cs),
(139,397,o),
(136,393,o),
(129,393,cs),
(122,393,o),
(120,400,o),
(120,430,cs),
(120,462,o),
(120,708,o),
(120,740,c),
(91,740,l),
(94,608,o),
(99,269,o),
(99,137,cs),
(99,37,o),
(98,-32,o),
(95,-207,c)
);
},
{
closed = 1;
nodes = (
(119,384,o),
(189,459,o),
(309,459,cs),
(428,459,o),
(491,376,o),
(491,240,cs),
(491,104,o),
(428,21,o),
(309,21,cs),
(189,21,o),
(119,96,o),
(119,240,cs)
);
}
);
width = 601;
},
{
layerId = m01;
shapes = (
{
closed = 1;
nodes = (
(122,-207,l),
(120,-182,o),
(118,49,o),
(118,64,cs),
(118,81,o),
(118,91,o),
(128,91,cs),
(135,91,o),
(143,81,o),
(160,58,cs),
(183,27,o),
(220,-8,o),
(316,-8,cs),
(462,-8,o),
(527,74,o),
(527,250,cs),
(527,426,o),
(462,508,o),
(316,508,cs),
(220,508,o),
(183,473,o),
(160,442,cs),
(143,419,o),
(135,409,o),
(128,409,cs),
(118,409,o),
(116,419,o),
(116,436,cs),
(116,537,o),
(118,639,o),
(121,740,c),
(48,740,l),
(51,626,o),
(53,278,o),
(53,247,cs),
(53,96,o),
(52,-56,o),
(49,-207,c)
);
},
{
closed = 1;
nodes = (
(116,301,o),
(164,317,o),
(291,317,cs),
(412,317,o),
(467,301,o),
(467,250,cs),
(467,199,o),
(412,181,o),
(291,181,cs),
(164,181,o),
(116,199,o),
(116,250,cs)
);
}
);
width = 557;
}
);
unicode = 254;
}
{
glyphname = Hbar;
layers = (
{
layerId = "60D037D9-62E9-4843-B070-F1594CB0B0D1";
shapes = (
{
closed = 1;
nodes = (
(126,0,l),
(123,219,o),
(123,219,o),
(123,319,cs),
(123,350,o),
(135,350,o),
(334,350,cs),
(533,350,o),
(545,350,o),
(545,319,cs),
(545,219,o),
(545,219,o),
(542,0,c),
(573,0,l),
(568,239,o),
(568,239,o),
(568,350,cs),
(568,461,o),
(568,461,o),
(573,700,c),
(542,700,l),
(545,519,o),
(545,519,o),
(545,419,cs),
(545,388,o),
(533,388,o),
(334,388,cs),
(135,388,o),
(123,388,o),
(123,419,cs),
(123,519,o),
(123,519,o),
(126,700,c),
(95,700,l),
(100,461,o),
(100,461,o),
(100,350,cs),
(100,239,o),
(100,239,o),
(95,0,c)
);
},
{
closed = 1;
nodes = (
(233,551,o),
(233,551,o),
(334,551,cs),
(435,551,o),
(435,551,o),
(610,548,c),
(610,583,l),
(435,580,o),
(435,580,o),
(334,580,cs),
(233,580,o),
(233,580,o),
(58,583,c),
(58,548,l)
);
}
);
width = 646;
},
{
layerId = m01;
shapes = (
{
closed = 1;
nodes = (
(142,0,l),
(139,69,o),
(139,83,o),
(139,121,cs),
(139,214,o),
(152,222,o),
(347,222,cs),
(542,222,o),
(555,214,o),
(555,121,cs),
(555,83,o),
(555,69,o),
(552,0,c),
(636,0,l),
(629,239,o),
(629,239,o),
(629,350,cs),
(629,461,o),
(629,461,o),
(636,700,c),
(554,700,l),
(557,621,o),
(557,593,o),
(557,563,cs),
(557,514,o),
(544,510,o),
(347,510,cs),
(150,510,o),
(137,514,o),
(137,563,cs),
(137,593,o),
(137,621,o),
(140,700,c),
(58,700,l),
(65,461,o),
(65,461,o),
(65,350,cs),
(65,239,o),
(65,239,o),
(58,0,c)
);
},
{
closed = 1;
nodes = (
(126,579,o),
(236,579,o),
(347,579,cs),
(458,579,o),
(568,579,o),
(679,576,c),
(679,630,l),
(568,627,o),
(458,627,o),
(347,627,cs),
(236,627,o),
(126,627,o),
(15,630,c),
(15,576,l)
);
}
);
width = 694;
}
);
unicode = 294;
}
{
glyphname = idotless;
kernLeft = KO_i;
kernRight = KO_i;
layers = (
{
anchors = (
{
name = bottom;
pos = (135,0);
},
{
name = ogonek;
pos = (268,0);
},
{
name = top;
pos = (135,520);
}
);
background = {
shapes = (
{
closed = 1;
nodes = (
(165,645,o),
(180,658,o),
(180,685,cs),
(180,715,o),
(165,729,o),
(134,729,cs),
(102,729,o),
(87,715,o),
(87,685,cs),
(87,658,o),
(102,645,o),
(134,645,cs)
);
}
);
};
layerId = "60D037D9-62E9-4843-B070-F1594CB0B0D1";
shapes = (
{
closed = 1;
nodes = (
(268,0,l),
(268,30,l),
(252,30,o),
(239,30,o),
(229,30,cs),
(190,30,o),
(183,31,o),
(177,36,cs),
(167,44,o),
(164,59,o),
(164,240,cs),
(164,284,o),
(165,451,o),
(166,480,c),
(50,480,l),
(50,447,l),
(64,447,o),
(76,447,o),
(85,447,cs),
(118,447,o),
(125,446,o),
(131,441,cs),
(141,434,o),
(143,418,o),
(143,240,cs),
(143,59,o),
(141,44,o),
(131,36,cs),
(125,31,o),
(118,30,o),
(81,30,cs),
(70,30,o),
(55,30,o),
(36,30,c),
(36,0,l)
);
}
);
width = 286;
},
{
anchors = (
{
name = bottom;
pos = (177,0);
},
{
name = ogonek;
pos = (383,0);
},
{
name = top;
pos = (157,520);
}
);
background = {
shapes = (
{
closed = 1;
nodes = (
(240,596,o),
(269,619,o),
(269,668,cs),
(269,717,o),
(240,740,o),
(176,740,cs),
(109,740,o),
(78,717,o),
(78,668,cs),
(78,619,o),
(109,596,o),
(176,596,cs)
);
}
);
};
layerId = m01;
shapes = (
{
closed = 1;
nodes = (
(383,0,l),
(383,161,l),
(361,159,o),
(338,158,o),
(314,158,cs),
(277,158,o),
(261,162,o),
(253,169,cs),
(240,180,o),
(239,204,o),
(239,283,cs),
(239,356,o),
(239,356,o),
(242,500,c),
(42,500,l),
(42,292,l),
(67,294,o),
(86,295,o),
(113,295,cs),
(142,295,o),
(162,291,o),
(170,284,cs),
(183,273,o),
(184,246,o),
(184,225,cs),
(184,204,o),
(183,180,o),
(170,169,cs),
(162,162,o),
(141,158,o),
(104,158,cs),
(74,158,o),
(52,159,o),
(30,161,c),
(30,0,l)
);
}
);
width = 404;
}
);
metricLeft = i;
metricRight = i;
unicode = 305;
}
{
glyphname = IJ;
kernLeft = KO_I;
kernRight = KO_J;
layers = (
{
anchors = (
{
name = top;
pos = (328,700);
}
);
layerId = "60D037D9-62E9-4843-B070-F1594CB0B0D1";
shapes = (
{
closed = 1;
nodes = (
(283,0,l),
(283,36,l),
(265,36,o),
(250,36,o),
(238,36,cs),
(199,36,o),
(191,37,o),
(185,42,cs),
(175,50,o),
(174,65,o),
(174,350,cs),
(174,635,o),
(176,650,o),
(186,658,cs),
(192,663,o),
(200,664,o),
(239,664,cs),
(251,664,o),
(266,664,o),
(284,664,c),
(284,700,l),
(42,700,l),
(42,664,l),
(60,664,o),
(75,664,o),
(87,664,cs),
(126,664,o),
(134,663,o),
(140,658,cs),
(150,650,o),
(152,635,o),
(152,350,cs),
(152,65,o),
(150,50,o),
(140,42,cs),
(134,37,o),
(126,36,o),
(87,36,cs),
(75,36,o),
(60,36,o),
(42,36,c),
(42,0,l)
);
},
{
closed = 1;
nodes = (
(332,-5,o),
(379,-16,o),
(405,-16,cs),
(511,-16,o),
(534,43,o),
(534,148,cs),
(534,259,ls),
(534,635,o),
(536,650,o),
(546,658,cs),
(552,663,o),
(560,664,o),
(599,664,cs),
(611,664,o),
(626,664,o),
(644,664,c),
(644,700,l),
(402,700,l),
(402,664,l),
(420,664,o),
(435,664,o),
(447,664,cs),
(486,664,o),
(494,663,o),
(500,658,cs),
(510,650,o),
(512,635,o),
(512,259,cs),
(512,69,o),
(511,21,o),
(414,21,cs),
(380,21,o),
(347,29,o),
(307,51,c),
(307,8,l)
);
}
);
width = 686;
},
{
anchors = (
{
name = top;
pos = (478,700);
}
);
layerId = m01;
shapes = (
{
closed = 1;
nodes = (
(445,0,l),
(445,248,l),
(415,246,o),
(392,245,o),
(374,245,cs),
(337,245,o),
(320,249,o),
(309,256,cs),
(289,269,o),
(285,284,o),
(285,350,cs),
(285,416,o),
(289,431,o),
(309,444,cs),
(320,451,o),
(337,455,o),
(374,455,cs),
(392,455,o),
(415,454,o),
(445,452,c),
(445,700,l),
(58,700,l),
(58,452,l),
(88,454,o),
(111,455,o),
(129,455,cs),
(166,455,o),
(183,451,o),
(194,444,cs),
(214,431,o),
(218,416,o),
(218,350,cs),
(218,284,o),
(214,269,o),
(194,256,cs),
(183,249,o),
(166,245,o),
(129,245,cs),
(111,245,o),
(88,246,o),
(58,248,c),
(58,0,l)
);
},
{
closed = 1;
nodes = (
(517,-1,o),
(585,-8,o),
(647,-8,cs),
(749,-8,o),
(801,43,o),
(801,190,cs),
(801,350,ls),
(801,419,o),
(805,431,o),
(825,444,cs),
(835,451,o),
(852,455,o),
(889,455,cs),
(907,455,o),
(930,454,o),
(960,452,c),
(960,700,l),
(573,700,l),
(573,452,l),
(603,454,o),
(626,455,o),
(644,455,cs),
(681,455,o),
(698,451,o),
(708,444,cs),
(728,431,o),
(732,419,o),
(732,350,cs),
(732,271,o),
(732,223,o),
(651,223,cs),
(596,223,o),
(539,236,o),
(490,252,c),
(490,5,l)
);
}
);
width = 984;
}
);
metricLeft = I;
metricRight = J;
unicode = 306;
}
{
glyphname = ij;
kernLeft = KO_i;
kernRight = KO_j;
layers = (
{
layerId = "60D037D9-62E9-4843-B070-F1594CB0B0D1";
shapes = (
{
closed = 1;
nodes = (
(268,0,l),
(268,30,l),
(252,30,o),
(239,30,o),
(229,30,cs),
(190,30,o),
(183,31,o),
(177,36,cs),
(167,44,o),
(164,59,o),
(164,240,cs),
(164,284,o),
(165,451,o),
(166,480,c),
(50,480,l),
(50,447,l),
(64,447,o),
(76,447,o),
(85,447,cs),
(118,447,o),
(125,446,o),
(131,441,cs),
(141,434,o),
(143,418,o),
(143,240,cs),
(143,59,o),
(141,44,o),
(131,36,cs),
(125,31,o),
(118,30,o),
(81,30,cs),
(70,30,o),
(55,30,o),
(36,30,c),
(36,0,l)
);
},
{
closed = 1;
nodes = (
(169,609,o),
(183,625,o),
(183,654,cs),
(183,684,o),
(169,700,o),
(146,700,cs),
(121,700,o),
(107,684,o),
(107,654,cs),
(107,625,o),
(121,609,o),
(146,609,cs)
);
},
{
closed = 1;
nodes = (
(334,609,o),
(348,625,o),
(348,654,cs),
(348,684,o),
(334,700,o),
(311,700,cs),
(286,700,o),
(272,684,o),
(272,654,cs),
(272,625,o),
(286,609,o),
(311,609,cs)
);
},
{
closed = 1;
nodes = (
(127,-175,l),
(153,-186,o),
(186,-196,o),
(217,-196,cs),
(277,-196,o),
(329,-167,o),
(329,-62,cs),
(329,67,o),
(329,67,o),
(329,163,cs),
(329,210,o),
(329,451,o),
(330,480,c),
(214,480,l),
(214,447,l),
(229,447,o),
(241,447,o),
(250,447,cs),
(283,447,o),
(290,446,o),
(296,441,cs),
(306,433,o),
(308,427,o),
(308,-46,cs),
(308,-107,o),
(287,-138,o),
(259,-151,cs),
(246,-157,o),
(231,-159,o),
(216,-159,cs),
(182,-159,o),
(146,-144,o),
(127,-133,c)
);
}
);
width = 420;
},
{
layerId = m01;
shapes = (
{
closed = 1;
nodes = (
(383,0,l),
(383,161,l),
(361,159,o),
(338,158,o),
(314,158,cs),
(277,158,o),
(261,162,o),
(253,169,cs),
(240,180,o),
(239,204,o),
(239,283,cs),
(239,356,o),
(239,356,o),
(242,500,c),
(42,500,l),
(42,292,l),
(67,294,o),
(86,295,o),
(113,295,cs),
(142,295,o),
(162,291,o),
(170,284,cs),
(183,273,o),
(184,246,o),
(184,225,cs),
(184,204,o),
(183,180,o),
(170,169,cs),
(162,162,o),
(141,158,o),
(104,158,cs),
(74,158,o),
(52,159,o),
(30,161,c),
(30,0,l)
);
},
{
closed = 1;
nodes = (
(264,575,o),
(293,598,o),
(293,647,cs),
(293,696,o),
(264,719,o),
(200,719,cs),
(133,719,o),
(102,696,o),
(102,647,cs),
(102,598,o),
(133,575,o),
(200,575,cs)
);
},
{
closed = 1;
nodes = (
(559,575,o),
(588,598,o),
(588,647,cs),
(588,696,o),
(559,719,o),
(495,719,cs),
(428,719,o),
(397,696,o),
(397,647,cs),
(397,598,o),
(428,575,o),
(495,575,cs)
);
},
{
closed = 1;
nodes = (
(313,-190,l),
(345,-194,o),
(375,-197,o),
(401,-197,cs),
(494,-197,o),
(544,-161,o),
(544,-22,cs),
(544,80,o),
(544,164,o),
(544,236,cs),
(544,343,o),
(544,343,o),
(547,500,c),
(350,500,l),
(350,292,l),
(375,294,o),
(394,295,o),
(421,295,cs),
(450,295,o),
(465,291,o),
(473,284,cs),
(486,273,o),
(487,246,o),
(487,166,cs),
(487,69,o),
(486,14,o),
(457,-8,cs),
(443,-19,o),
(421,-25,o),
(390,-25,cs),
(369,-25,o),
(344,-21,o),
(313,-15,c)
);
}
);
width = 588;
}
);
metricLeft = i;
metricRight = j;
unicode = 307;
}
{
glyphname = kgreenlandic;
kernRight = KO_k;
layers = (
{
layerId = "60D037D9-62E9-4843-B070-F1594CB0B0D1";
shapes = (
{
closed = 1;
nodes = (
(98,480,l),
(98,375,o),
(98,280,o),
(98,239,cs),
(98,162,o),
(98,162,o),
(95,-2,c),
(124,-2,l),
(121,54,o),
(120,175,o),
(120,186,cs),
(120,244,o),
(120,252,o),
(125,256,cs),
(132,261,o),
(155,261,o),
(243,261,c),
(299,94,o),
(336,-8,o),
(418,-8,cs),
(435,-8,o),
(445,-6,o),
(452,-3,c),
(452,32,l),
(443,28,o),
(431,26,o),
(421,26,cs),
(361,26,o),
(324,92,o),
(266,261,c),
(300,263,o),
(322,281,o),
(334,298,cs),
(341,308,o),
(355,329,o),
(439,480,c),
(402,480,l),
(381,432,o),
(381,432,o),
(356,382,cs),
(339,349,o),
(321,315,o),
(306,304,cs),
(294,295,o),
(289,292,o),
(213,292,cs),
(156,292,o),
(132,292,o),
(125,298,cs),
(122,302,o),
(121,308,o),
(121,333,cs),
(121,351,o),
(121,409,o),
(124,480,c)
);
}
);
width = 501;
},
{
layerId = m01;
shapes = (
{
closed = 1;
nodes = (
(42,501,l),
(45,344,o),
(45,271,o),
(45,250,cs),
(45,219,o),
(45,219,o),
(42,0,c),
(114,0,l),
(112,27,o),
(109,92,o),
(109,119,cs),
(109,133,o),
(109,161,o),
(114,179,cs),
(122,209,o),
(155,211,o),
(177,211,c),
(177,86,o),
(240,-16,o),
(367,-16,cs),
(391,-16,o),
(452,-9,o),
(471,1,c),
(471,212,l),
(445,186,o),
(385,165,o),
(325,165,cs),
(269,165,o),
(237,190,o),
(227,212,c),
(269,212,o),
(339,215,o),
(375,242,cs),
(418,275,o),
(448,353,o),
(462,500,c),
(396,500,l),
(396,469,o),
(396,466,o),
(395,442,cs),
(394,423,o),
(390,410,o),
(380,401,cs),
(365,387,o),
(329,385,o),
(247,385,cs),
(166,385,o),
(134,388,o),
(121,400,cs),
(111,409,o),
(111,422,o),
(111,442,cs),
(111,455,o),
(112,472,o),
(114,501,c)
);
}
);
width = 489;
}
);
metricLeft = k;
metricRight = k;
unicode = 312;
}
{
glyphname = Lslash;
kernRight = KO_L;
layers = (
{
layerId = "60D037D9-62E9-4843-B070-F1594CB0B0D1";
shapes = (
{
ref = L;
},
{
closed = 1;
nodes = (
(245,436,l),
(153,403,o),
(153,403,o),
(111,388,cs),
(67,372,o),
(67,372,o),
(-24,343,c),
(-24,311,l),
(69,343,o),
(69,343,o),
(114,358,cs),
(158,373,o),
(158,373,o),
(245,402,c)
);
}
);
width = 433;
},
{
layerId = m01;
shapes = (
{
ref = L;
},
{
closed = 1;
nodes = (
(234,509,l),
(145,476,o),
(145,476,o),
(104,461,cs),
(63,446,o),
(63,446,o),
(-24,416,c),
(-24,361,l),
(63,395,o),
(63,395,o),
(104,410,cs),
(145,425,o),
(145,425,o),
(234,454,c)
);
}
);
width = 522;
}
);
unicode = 321;
}
{
glyphname = lslash;
kernLeft = KO_lslash;
kernRight = KO_lslash;
layers = (
{
layerId = "60D037D9-62E9-4843-B070-F1594CB0B0D1";
shapes = (
{
closed = 1;
nodes = (
(292,0,l),
(292,30,l),
(275,30,o),
(261,30,o),
(250,30,cs),
(210,30,o),
(203,31,o),
(197,36,cs),
(187,44,o),
(184,59,o),
(184,371,cs),
(184,636,o),
(184,711,o),
(185,740,c),
(69,740,l),
(69,707,l),
(84,707,o),
(95,707,o),
(105,707,cs),
(137,707,o),
(144,706,o),
(150,701,cs),
(160,693,o),
(162,678,o),
(162,371,cs),
(162,59,o),
(160,44,o),
(150,36,cs),
(144,32,o),
(138,30,o),
(103,30,cs),
(91,30,o),
(75,30,o),
(55,30,c),
(55,0,l)
);
},
{
closed = 1;
nodes = (
(305,435,l),
(213,402,o),
(213,402,o),
(171,387,cs),
(127,371,o),
(127,371,o),
(36,342,c),
(36,310,l),
(129,342,o),
(129,342,o),
(174,357,cs),
(218,372,o),
(218,372,o),
(305,401,c)
);
}
);
width = 323;
},
{
layerId = m01;
shapes = (
{
closed = 1;
nodes = (
(383,0,l),
(383,161,l),
(361,159,o),
(344,158,o),
(317,158,cs),
(286,158,o),
(265,162,o),
(257,169,cs),
(244,180,o),
(243,204,o),
(243,324,cs),
(243,507,o),
(243,507,o),
(246,740,c),
(42,740,l),
(42,531,l),
(67,533,o),
(86,534,o),
(113,534,cs),
(142,534,o),
(162,531,o),
(170,524,cs),
(183,513,o),
(184,486,o),
(184,345,cs),
(184,204,o),
(183,180,o),
(170,169,cs),
(162,162,o),
(141,158,o),
(104,158,cs),
(74,158,o),
(52,159,o),
(30,161,c),
(30,0,l)
);
},
{
closed = 1;
nodes = (
(343,448,l),
(254,415,o),
(254,415,o),
(213,400,cs),
(172,385,o),
(172,385,o),
(85,355,c),
(85,300,l),
(172,334,o),
(172,334,o),
(213,349,cs),
(254,364,o),
(254,364,o),
(343,393,c)
);
}
);
width = 404;
}
);
metricLeft = l;
metricRight = l;
unicode = 322;
}
